<?xml version="1.0" encoding="UTF-8" standalone="no"?>
<!-- Created with Inkscape (http://www.inkscape.org/) -->

<svg
   xmlns:dc="http://purl.org/dc/elements/1.1/"
   xmlns:cc="http://creativecommons.org/ns#"
   xmlns:rdf="http://www.w3.org/1999/02/22-rdf-syntax-ns#"
   xmlns:svg="http://www.w3.org/2000/svg"
   xmlns="http://www.w3.org/2000/svg"
   xmlns:sodipodi="http://sodipodi.sourceforge.net/DTD/sodipodi-0.dtd"
   xmlns:inkscape="http://www.inkscape.org/namespaces/inkscape"
   width="74.38839"
   height="98.702133"
   id="svg5353"
   version="1.1"
   inkscape:version="0.48.3.1 r9886"
   sodipodi:docname="mol.svg">
  <defs
     id="defs5355" />
  <sodipodi:namedview
     id="base"
     pagecolor="#ffffff"
     bordercolor="#666666"
     borderopacity="1.0"
     inkscape:pageopacity="0.0"
     inkscape:pageshadow="2"
     inkscape:zoom="4.8"
     inkscape:cx="106.97404"
     inkscape:cy="37.171749"
     inkscape:current-layer="layer1"
     inkscape:document-units="px"
     showgrid="false"
     inkscape:window-width="1680"
     inkscape:window-height="973"
     inkscape:window-x="0"
     inkscape:window-y="24"
     inkscape:window-maximized="1"
     fit-margin-top="5"
     fit-margin-left="5"
     fit-margin-right="5"
     fit-margin-bottom="5" />
  <metadata
     id="metadata5358">
    <rdf:RDF>
      <cc:Work
         rdf:about="">
        <dc:format>image/svg+xml</dc:format>
        <dc:type
           rdf:resource="http://purl.org/dc/dcmitype/StillImage" />
        <dc:title></dc:title>
      </cc:Work>
    </rdf:RDF>
  </metadata>
  <g
     id="layer1"
     inkscape:label="Layer 1"
     inkscape:groupmode="layer"
     transform="translate(-652.8058,-2.8622341)">
    <path
       stroke-miterlimit="10"
       d="m 712.055,59.741167 c 0,0 -2.791,-3.619 -7.768,-5.656 0,0 -2.789,4.978 -4.75,7.39 0,0 0.529,-5.699 -0.68,-8.671 -0.979,-2.413 -4.297,-6.259 -9.65,-6.259 -6.035,0 -11.086,2.639 -12.744,11.839 0,0 -2.641,-2.564 -3.922,-7.013 0,0 -2.715,4.146 -6.713,4.524 0,0 0.68,3.544 7.844,15.458 0,0 -3.016,7.843 -3.016,12.744 0,4.901 1.809,7.54 1.809,7.54 l 1.936,4.701 h 22.346 c 0,0 3.998,-3.494 3.395,-12.015 -0.527,-7.45 -1.207,-10.181 -1.207,-10.181 0,0 9.124,-8.746 13.12,-14.401 z"
       id="path1584"
       inkscape:connector-curvature="0"
       style="stroke:#000000;stroke-width:0.4524;stroke-miterlimit:10" />
    <ellipse
       transform="matrix(-0.97470002,-0.2234,0.2234,-0.97470002,1331.4253,713.21432)"
       stroke-miterlimit="10"
       cx="772.86401"
       cy="501.73401"
       rx="2.951"
       ry="3.839"
       id="ellipse1586"
       d="m 775.81501,501.73401 c 0,2.12022 -1.3212,3.839 -2.951,3.839 -1.62979,0 -2.951,-1.71878 -2.951,-3.839 0,-2.12022 1.32121,-3.839 2.951,-3.839 1.6298,0 2.951,1.71878 2.951,3.839 z"
       sodipodi:cx="772.86401"
       sodipodi:cy="501.73401"
       sodipodi:rx="2.951"
       sodipodi:ry="3.839"
       style="fill:#ffffff;stroke:#000000;stroke-width:0.4524;stroke-miterlimit:10" />
    <g
       transform="translate(-82.676996,-450.23783)"
       id="g1588">
      <g
         id="g1590">
        <path
           stroke-miterlimit="10"
           d="m 761.346,505.759 c 0,0 2.08,-0.742 2.846,-2.643 0,0 1.434,2.563 2.791,2.563 1.357,0 1.834,-0.88 2.338,-1.433 0.324,-0.357 0.754,-0.755 1.809,-0.755 1.057,0 3.094,0.379 2.488,3.997 -0.602,3.62 -1.432,5.505 -1.055,9.729 0.377,4.223 2.412,7.616 2.412,13.725 0,6.107 -3.693,10.481 -7.615,10.481 -3.922,0 -7.693,-3.317 -7.693,-9.804 0,-6.485 2.566,-10.405 3.545,-15.458 0.764,-3.937 0.887,-6.172 0.904,-6.971 1.268,0.827 2.678,0.862 2.678,0.862 0,0 0.15,2.262 0.566,3.017 0.414,0.755 1.244,1.396 2.412,-0.152 1.168,-1.545 1.207,-6.295 1.207,-6.295 0.227,0 0.717,0.565 0.717,0.565 0,0 0.15,-1.094 -0.527,-1.47 -0.68,-0.378 -1.094,0.149 -1.094,0.149 0.34,0.114 0.453,0.491 0.453,0.491 0,0 -1.66,2.94 -4.035,2.94 -2.375,0 -5.147,-3.538 -5.147,-3.538 z"
           id="path1592"
           inkscape:connector-curvature="0"
           style="fill:#a7a9ac;stroke:#000000;stroke-width:0.4524;stroke-miterlimit:10" />
      </g>
    </g>
    <path
       d="m 682.286,50.382167 1.566,1.867 c 0,0 0.756,0.755 1.457,0.252 0.705,-0.502 1.107,-1.257 1.359,-2.464 0.25,-1.206 0.197,-2.07 -0.516,-2.287 -0.715,-0.217 -2.123,0.066 -2.652,0.377 -0.529,0.312 -1.97,1.25 -1.214,2.255 z"
       id="path1594"
       inkscape:connector-curvature="0"
       style="fill:#ffffff" />
    <path
       stroke-miterlimit="10"
       d="m 678.774,55.317167 c 0,0 -1.256,-1.056 -1.256,-3.519 0,-2.464 0.754,-4.073 1.105,-4.223 0.352,-0.151 0.754,-0.303 1.66,0.502 0.904,0.805 1.508,1.609 1.508,3.167 10e-4,1.559 -1.306,4.022 -3.017,4.073 z"
       id="path1596"
       inkscape:connector-curvature="0"
       style="fill:#ff0000;stroke:#000000;stroke-width:0.4524;stroke-miterlimit:10" />
    <path
       stroke-miterlimit="10"
       d="m 698.511,63.098167 c 0,0 -1.623,2.018 -2.631,2.895"
       id="path1598"
       inkscape:connector-curvature="0"
       style="fill:none;stroke:#a7a9ac;stroke-width:0.4524;stroke-miterlimit:10" />
    <path
       stroke-miterlimit="10"
       d="m 676.212,60.168167 c 0,0 -0.662,6.707 -2.027,10.27"
       id="path1600"
       inkscape:connector-curvature="0"
       style="fill:none;stroke:#a7a9ac;stroke-width:0.4524;stroke-miterlimit:10" />
    <path
       stroke-miterlimit="10"
       d="m 680.233,96.338167 c 0,0 -2.654,-4.175 -6.611,-4.175 -3.959,0 -4.965,3.48 -4.965,4.175 h 11.576 z"
       id="path1602"
       inkscape:connector-curvature="0"
       style="fill:#f2d2be;stroke:#000000;stroke-width:0.4524;stroke-miterlimit:10" />
    <path
       stroke-miterlimit="10"
       d="m 696.405,96.338167 c 0,0 -1.182,-4.193 -5.066,-3.435 -3.844,0.75 -5.283,2.74 -5.283,3.435 h 10.349 z"
       id="path1604"
       inkscape:connector-curvature="0"
       style="fill:#f2d2be;stroke:#000000;stroke-width:0.4524;stroke-miterlimit:10" />
    <path
       stroke-miterlimit="10"
       d="m 691.968,47.145167 c 0,0 1.488,-2.369 0.473,-10.15"
       id="path1608"
       inkscape:connector-curvature="0"
       style="fill:none;stroke:#000000;stroke-width:0.4524;stroke-miterlimit:10" />
    <path
       stroke-miterlimit="10"
       d="m 693.725,47.482167 c 0,0 2.25,-1.497 2.572,-9.337"
       id="path1610"
       inkscape:connector-curvature="0"
       style="fill:none;stroke:#000000;stroke-width:0.4524;stroke-miterlimit:10" />
    <path
       stroke-miterlimit="10"
       d="m 672.438,51.014167 c 0,0 -1.576,-2.99 0.326,-5.545 1.904,-2.555 2.012,-2.12 1.795,-2.828 -0.217,-0.706 -2.004,-1.888 -3.316,-0.325 -1.158,1.379 -1.141,1.903 -1.141,1.903 0,0 -1.93,-4.951 -3.48,-5.764 0,0 -2.393,-1.467 -2.611,0.599 -0.215,2.065 1.904,4.512 1.904,4.512 0,0 -2.229,-2.648 -3.154,-3.425 -1.018,-0.854 -3.043,-1.087 -3.207,0.217 -0.164,1.306 0.816,2.557 3.424,5.927 0,0 -1.875,-1.059 -3.096,-0.979 -1.223,0.08 -1.664,0.265 -1.85,1.197 0,1.087 0.652,2.064 1.521,2.555 0.869,0.489 1.898,0.554 2.447,0.815 0.549,0.261 1.521,0.707 2.066,1.739 0.541,1.033 1.666,4.062 1.666,4.062 0,0 3.989,0.342 6.706,-4.66 z"
       id="path1612"
       inkscape:connector-curvature="0"
       style="fill:#f2d2be;stroke:#000000;stroke-width:0.4524;stroke-linejoin:round;stroke-miterlimit:10" />
    <path
       stroke-miterlimit="10"
       d="m 670.083,44.011167 c 0,0 -0.232,1.726 -0.203,2.427"
       id="path1614"
       inkscape:connector-curvature="0"
       style="fill:none;stroke:#000000;stroke-width:0.4524;stroke-linejoin:round;stroke-miterlimit:10" />
    <path
       stroke-miterlimit="10"
       d="m 669.997,44.918167 c 0,0 -3.391,-0.468 -2.516,4.004"
       id="path1616"
       inkscape:connector-curvature="0"
       style="fill:none;stroke:#000000;stroke-width:0.4524;stroke-linejoin:round;stroke-miterlimit:10" />
    <path
       stroke-miterlimit="10"
       d="m 704.526,53.880167 c 0,0 2.203,-3.306 1.389,-5.366 -0.814,-2.06 -2.107,-3.641 -1.197,-4.551 0.91,-0.91 2.588,-1.485 3.258,0.574 0.67,2.062 1.004,2.636 1.725,3.258 0,0 0.314,-3.766 1.197,-5.317 1.096,-1.931 3.783,-2.729 4.264,-0.766 0.479,1.964 -0.959,3.928 -0.959,3.928 0,0 -1.135,1.8 -0.527,2.251 0.787,0.586 1.438,-0.287 1.438,-0.287 0,0 2.492,-2.299 3.977,-2.347 1.485,-0.048 3.307,1.341 2.156,2.586 -1.15,1.246 -5.461,3.258 -5.461,3.258 0,0 3.66,-0.069 4.789,0.287 0.605,0.191 0.766,0.454 1.246,1.534 0.707,1.586 -1.197,2.824 -4.408,2.634 0,0 -2.012,-0.336 -3.064,1.149 -1.055,1.485 -1.869,2.442 -2.203,2.827 -0.003,10e-4 -4.458,-3.497 -7.62,-5.652 z"
       id="path1618"
       inkscape:connector-curvature="0"
       style="fill:#f2d2be;stroke:#000000;stroke-width:0.4524;stroke-linejoin:round;stroke-miterlimit:10" />
    <path
       stroke-miterlimit="10"
       d="m 709.7,47.795167 c 0,0 2.711,2.127 0.004,5.541"
       id="path1620"
       inkscape:connector-curvature="0"
       style="fill:#f2d2be;stroke:#000000;stroke-width:0.4524;stroke-linejoin:round;stroke-miterlimit:10" />
    <ellipse
       transform="matrix(-0.96020002,-0.2793,0.2793,-0.96020002,1280.2029,745.34352)"
       cx="766.62903"
       cy="500.681"
       rx="0.79500002"
       ry="1.569"
       id="ellipse1622"
       d="m 767.42403,500.681 c 0,0.86653 -0.35594,1.569 -0.795,1.569 -0.43907,0 -0.795,-0.70247 -0.795,-1.569 0,-0.86654 0.35593,-1.569 0.795,-1.569 0.43906,0 0.795,0.70246 0.795,1.569 z"
       sodipodi:cx="766.62903"
       sodipodi:cy="500.681"
       sodipodi:rx="0.79500002"
       sodipodi:ry="1.569" />
    <ellipse
       transform="matrix(-0.96000002,-0.2799,0.2799,-0.96000002,1289.9399,749.45312)"
       cx="771.96198"
       cy="501.84601"
       rx="0.92500001"
       ry="1.826"
       id="ellipse1624"
       d="m 772.88698,501.84601 c 0,1.00847 -0.41414,1.826 -0.925,1.826 -0.51087,0 -0.925,-0.81753 -0.925,-1.826 0,-1.00847 0.41413,-1.826 0.925,-1.826 0.51086,0 0.925,0.81753 0.925,1.826 z"
       sodipodi:cx="771.96198"
       sodipodi:cy="501.84601"
       sodipodi:rx="0.92500001"
       sodipodi:ry="1.826" />
    <g
       transform="matrix(0.9962686,0.08630693,-0.08630693,0.9962686,-35.566061,-514.94454)"
       id="g761">
      <path
         style="fill:#f7941e;stroke:#000000;stroke-width:0.4524;stroke-miterlimit:10"
         inkscape:connector-curvature="0"
         stroke-miterlimit="10"
         d="m 783.269,467.454 c 0.929,-0.412 1.87,-0.803 2.853,-1.145 0.567,-0.198 1.148,-0.381 1.762,-0.527 0.618,-0.14 1.249,-0.27 2.048,-0.228 l -0.315,2.38 c -0.354,-0.096 -0.887,-0.109 -1.411,-0.076 -0.531,0.033 -1.082,0.104 -1.635,0.194 -1.107,0.183 -2.228,0.44 -3.34,0.728 -0.538,0.14 -1.074,0.287 -1.61,0.439 l -0.036,-0.018 c 0.557,-0.585 1.119,-1.169 1.684,-1.747 z"
         id="path763" />
      <path
         style="fill:#5fbb46;stroke:#000000;stroke-width:0.4524;stroke-miterlimit:10"
         inkscape:connector-curvature="0"
         stroke-miterlimit="10"
         d="m 780.77,468.628 c 0.298,-0.803 0.57,-1.613 0.81,-2.43 0.864,-2.975 1.326,-6.076 0.964,-8.998 l 2.397,-0.137 c -0.005,1.698 -0.253,3.354 -0.649,4.943 -0.396,1.593 -0.942,3.124 -1.584,4.6 -0.043,0.102 -0.092,0.2 -0.136,0.301 -0.336,0.442 -0.668,0.887 -1,1.332 -0.269,0.128 -0.536,0.258 -0.802,0.389 z"
         id="path765" />
      <path
         style="fill:#ffdd00;stroke:#000000;stroke-width:0.4524;stroke-miterlimit:10"
         inkscape:connector-curvature="0"
         stroke-miterlimit="10"
         d="m 762.874,500.304 18.062,-32.281 c 0,0 1.638,-3.27 1.605,1.026 -0.034,4.296 -0.932,35.806 -0.932,35.806 0,0 -3.755,-6.242 -8.246,-7.75 -4.492,-1.509 -9.404,1.093 -10.489,3.199 z"
         id="path767" />
      <g
         id="g769">
        <path
           style="fill:#5fbbcf"
           inkscape:connector-curvature="0"
           d="m 780.401,486.512 c -0.545,0 -1.074,-0.117 -1.572,-0.349 -1.867,-0.871 -2.678,-3.096 -1.808,-4.962 0.61,-1.31 1.94,-2.156 3.386,-2.156 0.547,0 1.076,0.118 1.575,0.351 0.052,0.023 0.269,0.145 0.269,0.145 l 0.053,0.168 c -0.047,1.973 -0.1,4.094 -0.162,6.24 l -0.004,0.139 -0.124,0.06 c -0.501,0.238 -1.058,0.364 -1.613,0.364 z"
           id="path771" />
        <path
           inkscape:connector-curvature="0"
           d="m 780.407,479.271 c 0.496,0 1,0.105 1.479,0.329 0.066,0.031 0.127,0.066 0.191,0.102 -0.047,1.973 -0.101,4.094 -0.162,6.24 -0.47,0.225 -0.987,0.344 -1.515,0.344 -0.494,0 -0.998,-0.105 -1.478,-0.328 -1.756,-0.819 -2.516,-2.905 -1.697,-4.661 0.596,-1.276 1.861,-2.026 3.182,-2.026 m 0,-0.452 c -1.533,0 -2.943,0.896 -3.591,2.286 -0.923,1.979 -0.062,4.339 1.916,5.263 0.529,0.246 1.091,0.37 1.669,0.37 0.588,0 1.179,-0.134 1.709,-0.388 l 0.25,-0.119 0.008,-0.275 c 0.062,-2.148 0.115,-4.271 0.162,-6.243 l 0.007,-0.278 -0.245,-0.131 -0.051,-0.028 c -0.055,-0.03 -0.107,-0.06 -0.164,-0.085 -0.528,-0.247 -1.09,-0.372 -1.67,-0.372 l 0,0 z"
           id="path773" />
      </g>
      <g
         id="g775">
        <path
           style="fill:#f7941e"
           inkscape:connector-curvature="0"
           d="m 778.63,476.44 c -0.402,0 -0.793,-0.09 -1.158,-0.266 -0.226,-0.107 -0.438,-0.25 -0.629,-0.422 l -0.134,-0.121 2.489,-4.49 0.174,0.051 c 0.142,0.041 0.282,0.092 0.42,0.158 1.33,0.64 1.892,2.242 1.252,3.572 -0.443,0.923 -1.391,1.518 -2.414,1.518 l 0,0 z"
           id="path777" />
        <path
           inkscape:connector-curvature="0"
           d="m 779.309,471.409 c 0.13,0.039 0.259,0.084 0.385,0.145 1.22,0.588 1.733,2.051 1.146,3.271 -0.422,0.877 -1.298,1.389 -2.21,1.389 -0.355,0 -0.719,-0.078 -1.061,-0.242 -0.215,-0.104 -0.406,-0.235 -0.575,-0.387 l 2.315,-4.176 m -0.22,-0.535 -0.176,0.316 -2.314,4.175 -0.175,0.315 0.269,0.24 c 0.207,0.187 0.437,0.341 0.682,0.459 0.396,0.189 0.818,0.287 1.256,0.287 1.109,0 2.137,-0.646 2.617,-1.646 0.694,-1.442 0.085,-3.181 -1.357,-3.875 -0.137,-0.065 -0.285,-0.122 -0.453,-0.171 l -0.349,-0.1 0,0 z"
           id="path779" />
      </g>
      <g
         id="g781">
        <path
           style="fill:#ff0000"
           inkscape:connector-curvature="0"
           d="m 779.369,498.571 c -0.601,0 -1.183,-0.131 -1.729,-0.39 -2.029,-0.959 -2.902,-3.391 -1.943,-5.421 0.67,-1.418 2.116,-2.334 3.686,-2.334 0.604,0 1.188,0.131 1.736,0.391 0.269,0.127 0.527,0.288 0.771,0.479 l 0.091,0.071 -0.229,6.44 -0.096,0.064 c -0.682,0.458 -1.471,0.7 -2.287,0.7 l 0,0 z"
           id="path783" />
        <path
           inkscape:connector-curvature="0"
           d="m 779.382,490.653 c 0.551,0 1.109,0.118 1.64,0.368 0.265,0.126 0.507,0.279 0.728,0.452 -0.078,2.229 -0.153,4.348 -0.221,6.211 -0.637,0.428 -1.389,0.66 -2.159,0.66 -0.548,0 -1.104,-0.118 -1.633,-0.367 -1.921,-0.908 -2.742,-3.199 -1.836,-5.12 0.657,-1.389 2.038,-2.204 3.481,-2.204 m 0,-0.453 c -1.656,0 -3.184,0.967 -3.891,2.464 -1.012,2.144 -0.091,4.71 2.052,5.722 0.577,0.273 1.192,0.412 1.826,0.412 0.86,0 1.694,-0.256 2.411,-0.738 l 0.191,-0.129 0.009,-0.23 c 0.067,-1.862 0.143,-3.981 0.221,-6.211 l 0.009,-0.229 -0.182,-0.143 c -0.256,-0.201 -0.529,-0.371 -0.812,-0.506 -0.581,-0.273 -1.197,-0.412 -1.834,-0.412 l 0,0 z"
           id="path785" />
      </g>
      <g
         id="g787">
        <path
           style="fill:#5fbb46"
           inkscape:connector-curvature="0"
           d="m 768.222,492.447 c -0.189,0 -0.379,-0.007 -0.568,-0.022 l -0.352,-0.027 6.598,-11.798 0.207,0.286 c 1.586,2.18 1.84,5.04 0.664,7.464 -1.227,2.527 -3.737,4.097 -6.549,4.097 l 0,0 z"
           id="path789" />
        <path
           inkscape:connector-curvature="0"
           d="m 773.924,481.019 c 1.482,2.039 1.82,4.807 0.644,7.232 -1.219,2.51 -3.73,3.97 -6.346,3.97 -0.184,0 -0.367,-0.007 -0.551,-0.021 l 6.253,-11.181 m -0.05,-0.838 -0.346,0.617 -6.252,11.181 -0.346,0.616 0.705,0.056 c 0.195,0.015 0.391,0.022 0.586,0.022 2.899,0 5.486,-1.618 6.752,-4.225 1.213,-2.499 0.951,-5.447 -0.684,-7.695 l -0.415,-0.572 0,0 z"
           id="path791" />
      </g>
    </g>
  </g>
</svg>
