<?xml version="1.0" encoding="utf-8"?>
<!-- Generator: Adobe Illustrator 15.0.0, SVG Export Plug-In . SVG Version: 6.00 Build 0)  -->
<!DOCTYPE svg PUBLIC "-//W3C//DTD SVG 1.1//EN" "http://www.w3.org/Graphics/SVG/1.1/DTD/svg11.dtd">
<svg version="1.1" xmlns="http://www.w3.org/2000/svg" xmlns:xlink="http://www.w3.org/1999/xlink" x="0px" y="0px"
	 width="841.89px" height="595.28px" viewBox="0 0 841.89 595.28" enable-background="new 0 0 841.89 595.28" xml:space="preserve">
<g id="achtergrond">
	
		<line fill="none" stroke="#000000" stroke-width="0.452" stroke-miterlimit="10" x1="417.358" y1="79.586" x2="572.334" y2="286.947"/>
	<defs>
		<filter id="Adobe_OpacityMaskFilter" filterUnits="userSpaceOnUse" x="-0.092" y="190.133" width="841.982" height="405.147">
			<feColorMatrix  type="matrix" values="1 0 0 0 0  0 1 0 0 0  0 0 1 0 0  0 0 0 1 0"/>
		</filter>
	</defs>
	<mask maskUnits="userSpaceOnUse" x="-0.092" y="190.133" width="841.982" height="405.147" id="SVGID_1_">
		<g filter="url(#Adobe_OpacityMaskFilter)">
			<linearGradient id="SVGID_2_" gradientUnits="userSpaceOnUse" x1="421.6836" y1="595.2803" x2="421.6836" y2="158.8823">
				<stop  offset="0" style="stop-color:#FFFFFF"/>
				<stop  offset="0.3482" style="stop-color:#F9F9F9"/>
				<stop  offset="0.4908" style="stop-color:#F5F5F5"/>
				<stop  offset="0.5573" style="stop-color:#F1F1F1"/>
				<stop  offset="0.6227" style="stop-color:#E5E5E5"/>
				<stop  offset="0.6876" style="stop-color:#D1D1D1"/>
				<stop  offset="0.7523" style="stop-color:#B6B6B6"/>
				<stop  offset="0.8169" style="stop-color:#929292"/>
				<stop  offset="0.8814" style="stop-color:#666666"/>
				<stop  offset="0.9445" style="stop-color:#333333"/>
				<stop  offset="1" style="stop-color:#000000"/>
			</linearGradient>
			<rect x="0.601" y="158.882" fill="url(#SVGID_2_)" width="842.167" height="436.398"/>
		</g>
	</mask>
	
		<linearGradient id="SVGID_3_" gradientUnits="userSpaceOnUse" x1="210.5552" y1="402.1807" x2="615.7021" y2="402.1807" gradientTransform="matrix(0 1 -1 0 823.0791 -20.4219)">
		<stop  offset="0" style="stop-color:#99D647"/>
		<stop  offset="1" style="stop-color:#5FBB46"/>
	</linearGradient>
	<path mask="url(#SVGID_1_)" fill="url(#SVGID_3_)" d="M0.093,595.28l-0.186-405.147c0,0,66.044,17.044,196.064,14.615
		c174.621-3.263,259.965,17.792,417.609,35.489c119.678,13.435,228.309-9.859,228.309-9.859V595.28H0.093z"/>
	<defs>
		<filter id="Adobe_OpacityMaskFilter_1_" filterUnits="userSpaceOnUse" x="0" y="244.939" width="841.705" height="350.341">
			<feColorMatrix  type="matrix" values="1 0 0 0 0  0 1 0 0 0  0 0 1 0 0  0 0 0 1 0"/>
		</filter>
	</defs>
	<mask maskUnits="userSpaceOnUse" x="0" y="244.939" width="841.705" height="350.341" id="SVGID_4_">
		<g filter="url(#Adobe_OpacityMaskFilter_1_)">
			
				<linearGradient id="SVGID_5_" gradientUnits="userSpaceOnUse" x1="421.7305" y1="560.0938" x2="421.7304" y2="207.3237" gradientTransform="matrix(-1 0 0 1 841.8906 0)">
				<stop  offset="0" style="stop-color:#FFFFFF"/>
				<stop  offset="0.3482" style="stop-color:#F9F9F9"/>
				<stop  offset="0.4908" style="stop-color:#F5F5F5"/>
				<stop  offset="0.5573" style="stop-color:#F1F1F1"/>
				<stop  offset="0.6227" style="stop-color:#E5E5E5"/>
				<stop  offset="0.6876" style="stop-color:#D1D1D1"/>
				<stop  offset="0.7523" style="stop-color:#B6B6B6"/>
				<stop  offset="0.8169" style="stop-color:#929292"/>
				<stop  offset="0.8814" style="stop-color:#666666"/>
				<stop  offset="0.9445" style="stop-color:#333333"/>
				<stop  offset="1" style="stop-color:#000000"/>
			</linearGradient>
			<rect x="-0.878" y="207.324" fill="url(#SVGID_5_)" width="842.075" height="352.769"/>
		</g>
	</mask>
	
		<linearGradient id="SVGID_6_" gradientUnits="userSpaceOnUse" x1="265.3613" y1="402.041" x2="615.7021" y2="402.041" gradientTransform="matrix(0 1 1 0 18.8115 -20.4219)">
		<stop  offset="0" style="stop-color:#99D647"/>
		<stop  offset="1" style="stop-color:#5FBB46"/>
	</linearGradient>
	<path mask="url(#SVGID_4_)" fill="url(#SVGID_6_)" d="M841.705,595.28V277.279c0,0-323.776-57.377-612.95-19.281
		C109.628,273.692,0,265.118,0,265.118V595.28H841.705z"/>
	<ellipse fill="#5FBB46" cx="417.67" cy="326.834" rx="147.435" ry="20.862"/>
	<path fill="none" stroke="#CB3D17" stroke-miterlimit="10" d="M463.428,335.224c-14.404,0.665-29.784,1.024-45.758,1.024
		c-81.426,0-147.435-9.342-147.435-20.862c0-11.522,66.009-20.864,147.435-20.864c16.516,0,32.397,0.384,47.223,1.093
		c0,0,9.688,0.621,10.966,0.949"/>
	<path fill="none" stroke="#CB3D17" stroke-miterlimit="10" d="M471.59,327.335c-16.7,0.93-34.889,1.439-53.92,1.439
		c-81.426,0-147.435-9.342-147.435-20.862c0-11.522,66.009-20.864,147.435-20.864c16.239,0,31.865,0.372,46.477,1.058
		c0,0,8.324,0.275,12.196,0.804"/>
	<path fill="#FFDD00" stroke="#000000" stroke-width="0.452" stroke-miterlimit="10" d="M527.423,341.879
		c0,0,11.25-2.329,24.879-8.449s-24.879-93.483-24.879-93.483l-25.756-29.878l-15.334,28.878L527.423,341.879z"/>
	<path fill="#FFDD00" stroke="#000000" stroke-width="0.452" stroke-miterlimit="10" d="M464.709,194.666
		c0,0,17.319,78.882,9.819,110.245c-7.5,31.363-50.482,42.442-32.873,44.381c113.566,12.503,65.88,6.344,66.862-3.584
		s-32.949-126.107-32.949-126.107L464.709,194.666z"/>
	<linearGradient id="SVGID_7_" gradientUnits="userSpaceOnUse" x1="420.853" y1="154.4688" x2="420.853" y2="1.421085e-13">
		<stop  offset="0" style="stop-color:#FFFFFF"/>
		<stop  offset="1" style="stop-color:#5FBBCF"/>
	</linearGradient>
	<rect opacity="0.3" fill="url(#SVGID_7_)" width="841.705" height="154.469"/>
	<path fill="none" stroke="#000000" stroke-width="0.452" stroke-miterlimit="10" d="M420.945,305.97"/>
	<circle fill="#FFDD00" stroke="#000000" stroke-width="0.452" stroke-miterlimit="10" cx="417.635" cy="35.637" r="3.218"/>
	<g>
		<path opacity="0.9" fill="#FF0000" stroke="#000000" stroke-width="0.452" stroke-miterlimit="10" d="M512.422,223.467
			c13.505,36.584,28.434,72.609,39.88,109.963c10.403-4.991,12.803-9.044,12.803-9.044l-34.043-96.714
			c-1.178-3.21-2.349-6.423-3.509-9.641C524.278,208.956,507.375,209.798,512.422,223.467z M463.263,182.127
			c12.839,55.193,31.95,108.534,45.255,163.581c7.146-1.185,13.414-2.481,18.905-3.829c-10.779-38.693-24.913-76.239-37.537-114.308
			C484.901,212.539,468.06,182.127,463.263,182.127z"/>
		<g>
			<path fill="#FF0000" stroke="#000000" stroke-width="0.452" stroke-miterlimit="10" d="M544.479,198.991
				c0,0-1.545,17.417,4.507,16.048c7.43-1.682,0.095-18.316,0.095-18.316l0,0L544.479,198.991z"/>
			<g>
				<path fill="#FF0000" stroke="#000000" stroke-width="0.452" stroke-miterlimit="10" d="M548.479,195.863
					c0.204,0.289,0.399,0.572,0.601,0.86c-1.511,0.77-3.046,1.526-4.602,2.269"/>
				<path fill="#FF0000" stroke="#000000" stroke-width="0.452" stroke-miterlimit="10" d="M417.792,78.673
					c0.008,0.002,0.016,0.004,0.023,0.006c0.004,0.001,0.008,0.001,0.012,0.002"/>
			</g>
			<path fill="#FF0000" stroke="#000000" stroke-width="0.452" stroke-miterlimit="10" d="M478.809,219.622
				c0,0,0.807,16.189,11.271,16.189c9.176,0,8.5-20.451,8.5-20.451l-9.477,2.186L478.809,219.622z"/>
			<path fill="#FFDD00" stroke="#000000" stroke-width="0.452" stroke-miterlimit="10" d="M498.508,215.324
				c0,0,0.778,16.182,11.242,16.182c9.872,0,6.905-21.437,6.905-21.437l-6.921,2.062L498.508,215.324z"/>
			<path fill="#FFDD00" stroke="#000000" stroke-width="0.452" stroke-miterlimit="10" d="M533.547,203.838
				c0,0-0.61,18.092,9.349,15.51c7.346-1.904,1.589-20.357,1.589-20.357l0,0L533.547,203.838z"/>
			<path fill="#FF0000" stroke="#000000" stroke-width="0.452" stroke-miterlimit="10" d="M516.638,210.069
				c0,0,0.027,15.769,10.492,15.769c10.463,0,6.485-22.044,6.485-22.044l-6.816,2.702L516.638,210.069z"/>
		</g>
	</g>
	<line fill="none" stroke="#000000" stroke-width="2" stroke-miterlimit="10" x1="417.635" y1="38.855" x2="417.635" y2="326.833"/>
	<path fill="none" stroke="#000000" stroke-width="0.452" stroke-miterlimit="10" d="M307.667,349.484"/>
	<path fill="none" stroke="#000000" stroke-width="0.452" stroke-miterlimit="10" d="M417.358,79.586"/>
	<g>
		<g>
			<g>
				<g>
					<path fill="none" stroke="#059F14" stroke-width="0.4455" stroke-miterlimit="10" d="M262.554,283.631
						c0,0,0.261-7.615-0.203-11.395l1.748,12.127c0,0,0.493-5.724,0.658-7.197l0.426,6.759c0,0,0.515-4.604,1.658-8.204
						c0,0-0.141,3.899,0.027,5.037c0,0,1.873-3.52,1.847-7.251c0,0,0.383,5.822,0.053,8.768c0,0,0.538-3.482,1.454-5.057
						c0,0-0.867,6.428-0.825,7.365c0,0,1.075-6.964,2.866-9.747c0,0-0.371,3.314-0.431,5.171l1.332-2.647
						c0,0-0.188,0.352-0.454,4.051c0,0,2.684-5.479,2.826-8.073c0,0-0.388,6.108-1.01,9.021"/>
				</g>
				<g>
					<path fill="none" stroke="#059F14" stroke-width="0.4455" stroke-miterlimit="10" d="M276.171,285.156
						c0,0,0.261-7.615-0.203-11.395l1.748,12.127c0,0,0.493-5.724,0.658-7.197l0.426,6.759c0,0,0.515-4.604,1.658-8.204
						c0,0-0.141,3.899,0.027,5.037c0,0,1.873-3.52,1.847-7.251c0,0,0.383,5.822,0.053,8.768c0,0,0.538-3.482,1.454-5.057
						c0,0-0.867,6.428-0.825,7.365c0,0,1.075-6.964,2.866-9.747c0,0-0.371,3.314-0.431,5.171l1.332-2.647
						c0,0-0.188,0.352-0.454,4.051c0,0,2.684-5.479,2.826-8.073c0,0-0.388,6.108-1.01,9.021"/>
				</g>
			</g>
		</g>
	</g>
	<g>
		<g>
			<g>
				<g>
					<path fill="none" stroke="#059F14" stroke-width="0.4455" stroke-miterlimit="10" d="M295.015,352.713
						c0,0,0.261-7.614-0.203-11.395l1.748,12.127c0,0,0.493-5.724,0.658-7.197l0.426,6.76c0,0,0.515-4.604,1.658-8.204
						c0,0-0.141,3.899,0.027,5.037c0,0,1.873-3.52,1.847-7.251c0,0,0.383,5.822,0.053,8.769c0,0,0.538-3.482,1.454-5.058
						c0,0-0.867,6.429-0.825,7.365c0,0,1.075-6.964,2.866-9.747c0,0-0.371,3.314-0.431,5.172l1.332-2.647
						c0,0-0.188,0.353-0.454,4.052c0,0,2.684-5.479,2.826-8.073c0,0-0.388,6.108-1.01,9.021"/>
				</g>
				<g>
					<path fill="none" stroke="#059F14" stroke-width="0.4455" stroke-miterlimit="10" d="M308.632,354.237
						c0,0,0.261-7.614-0.203-11.395l1.748,12.127c0,0,0.493-5.724,0.658-7.197l0.426,6.76c0,0,0.515-4.604,1.658-8.204
						c0,0-0.141,3.899,0.027,5.037c0,0,1.873-3.52,1.847-7.251c0,0,0.383,5.822,0.053,8.769c0,0,0.538-3.482,1.454-5.058
						c0,0-0.867,6.429-0.825,7.365c0,0,1.075-6.964,2.866-9.747c0,0-0.371,3.314-0.431,5.172l1.332-2.647
						c0,0-0.188,0.353-0.454,4.052c0,0,2.684-5.479,2.826-8.073c0,0-0.388,6.108-1.01,9.021"/>
				</g>
			</g>
		</g>
	</g>
	<line fill="none" stroke="#9C4F17" stroke-width="2" stroke-miterlimit="10" x1="270.235" y1="326.834" x2="270.235" y2="297.78"/>
	<line fill="none" stroke="#9C4F17" stroke-width="2" stroke-miterlimit="10" x1="286.923" y1="336.193" x2="286.923" y2="307.14"/>
	
		<line fill="none" stroke="#9C4F17" stroke-width="2" stroke-miterlimit="10" x1="311.333" y1="312.308" x2="311.333" y2="283.253"/>
	
		<line fill="none" stroke="#9C4F17" stroke-width="2" stroke-miterlimit="10" x1="383.667" y1="306.892" x2="383.667" y2="277.837"/>
	
		<line fill="none" stroke="#9C4F17" stroke-width="2" stroke-miterlimit="10" x1="334.337" y1="344.135" x2="334.337" y2="315.081"/>
	
		<line fill="none" stroke="#9C4F17" stroke-width="2" stroke-miterlimit="10" x1="398.333" y1="347.696" x2="398.333" y2="318.643"/>
	
		<line fill="none" stroke="#000000" stroke-width="0.452" stroke-miterlimit="10" x1="535.384" y1="218.554" x2="625.308" y2="307.038"/>
	<g>
		<g>
			<g>
				<g>
					<path fill="none" stroke="#059F14" stroke-width="0.4875" stroke-miterlimit="10" d="M609.611,314.043
						c0,0-1.218-8.253-2.522-12.234l4.489,12.721c0,0-0.566-6.262-0.668-7.881l1.856,7.198c0,0-0.314-5.06,0.31-9.161
						c0,0,0.615,4.228,1.042,5.42c0,0,1.5-4.156,0.723-8.171c0,0,1.618,6.196,1.819,9.435c0,0-0.063-3.856,0.699-5.731
						c0,0,0.267,7.094,0.505,8.094c0,0-0.13-7.711,1.422-11.059c0,0,0.228,3.643,0.528,5.655l1.038-3.112
						c0,0-0.149,0.416,0.277,4.453c0,0,2.063-6.427,1.712-9.248c0,0,0.767,6.655,0.618,9.915"/>
				</g>
				<g>
					<path fill="none" stroke="#059F14" stroke-width="0.4875" stroke-miterlimit="10" d="M625.958,313.023
						c0,0-1.218-8.253-2.522-12.234l4.489,12.722c0,0-0.566-6.262-0.668-7.881l1.856,7.197c0,0-0.314-5.059,0.31-9.161
						c0,0,0.615,4.228,1.042,5.421c0,0,1.5-4.157,0.723-8.172c0,0,1.618,6.197,1.819,9.435c0,0-0.063-3.855,0.699-5.731
						c0,0,0.267,7.094,0.505,8.095c0,0-0.13-7.712,1.422-11.059c0,0,0.228,3.643,0.528,5.655l1.038-3.112
						c0,0-0.15,0.416,0.277,4.452c0,0,2.063-6.426,1.712-9.248c0,0,0.767,6.655,0.618,9.915"/>
				</g>
			</g>
		</g>
	</g>
	<g>
		<g>
			
				<line fill="none" stroke="#9C4F17" stroke-width="3" stroke-miterlimit="10" x1="311.301" y1="213.886" x2="279.669" y2="354.389"/>
			
				<line fill="none" stroke="#9C4F17" stroke-width="3" stroke-miterlimit="10" x1="291.43" y1="212.891" x2="256.667" y2="353.235"/>
			
				<line fill="none" stroke="#9C4F17" stroke-width="3" stroke-miterlimit="10" x1="308.35" y1="226.993" x2="288.198" y2="225.984"/>
			
				<line fill="none" stroke="#9C4F17" stroke-width="3" stroke-miterlimit="10" x1="303.704" y1="242.748" x2="283.552" y2="241.738"/>
			
				<line fill="none" stroke="#9C4F17" stroke-width="3" stroke-miterlimit="10" x1="301.374" y1="256.84" x2="281.222" y2="255.831"/>
			
				<line fill="none" stroke="#9C4F17" stroke-width="3" stroke-miterlimit="10" x1="297.739" y1="270.981" x2="277.587" y2="269.971"/>
			
				<line fill="none" stroke="#9C4F17" stroke-width="3" stroke-miterlimit="10" x1="295.386" y1="284.132" x2="275.235" y2="283.122"/>
			
				<line fill="none" stroke="#9C4F17" stroke-width="3" stroke-miterlimit="10" x1="292.688" y1="296.126" x2="272.537" y2="295.116"/>
			
				<line fill="none" stroke="#9C4F17" stroke-width="3" stroke-miterlimit="10" x1="289.367" y1="307.325" x2="269.215" y2="306.317"/>
			
				<line fill="none" stroke="#9C4F17" stroke-width="3" stroke-miterlimit="10" x1="286.18" y1="320.091" x2="266.028" y2="319.081"/>
		</g>
		
			<line fill="none" stroke="#9C4F17" stroke-width="3" stroke-miterlimit="10" x1="282.734" y1="335.068" x2="262.583" y2="334.061"/>
		
			<line fill="none" stroke="#9C4F17" stroke-width="3" stroke-miterlimit="10" x1="280.023" y1="347.327" x2="259.872" y2="346.317"/>
	</g>
	
		<line fill="none" stroke="#000000" stroke-width="0.452" stroke-miterlimit="10" x1="418.358" y1="79.586" x2="278.201" y2="279.263"/>
	
		<line fill="none" stroke="#000000" stroke-width="0.452" stroke-miterlimit="10" x1="298.822" y1="222.067" x2="206.846" y2="308.415"/>
	<g>
		<g>
			<path fill="#FF0000" d="M242.299,361.696c-0.348,0-0.699-0.022-1.045-0.068c-2.106-0.277-3.979-1.358-5.273-3.045
				s-1.854-3.775-1.576-5.883c0.52-3.944,3.908-6.918,7.883-6.918c0.348,0,0.699,0.022,1.045,0.068
				c2.106,0.277,3.979,1.359,5.273,3.046c1.293,1.686,1.853,3.774,1.575,5.882C249.661,358.723,246.272,361.696,242.299,361.696z"/>
			<path d="M242.287,348.779c0.216,0,0.434,0.014,0.653,0.043c2.715,0.357,4.626,2.85,4.269,5.564
				c-0.328,2.495-2.46,4.312-4.91,4.312c-0.216,0-0.434-0.014-0.653-0.043c-2.715-0.357-4.627-2.85-4.27-5.564
				C237.704,350.597,239.837,348.779,242.287,348.779 M242.287,342.784L242.287,342.784c-5.474,0.001-10.14,4.096-10.854,9.525
				c-0.382,2.9,0.389,5.776,2.17,8.098s4.36,3.811,7.261,4.192c0.475,0.062,0.958,0.095,1.436,0.095
				c5.473,0,10.139-4.095,10.854-9.525c0.382-2.9-0.389-5.775-2.169-8.097c-1.781-2.322-4.359-3.812-7.261-4.193
				C243.248,342.816,242.765,342.784,242.287,342.784L242.287,342.784z"/>
		</g>
		<polyline fill="none" stroke="#000000" stroke-linejoin="round" stroke-miterlimit="10" points="278.58,352.482 285.15,365.641 
			292.596,351.361 		"/>
		<polygon fill="#1E82A4" stroke="#000000" stroke-width="0.452" stroke-miterlimit="10" points="255.67,353.166 239.272,326.031 
			304.081,334.355 292.598,352.648 		"/>
		<polyline fill="none" stroke="#000000" stroke-miterlimit="10" points="242.293,353.74 298.85,351.732 312.687,336.939 
			326.451,335.744 		"/>
		<g>
			<g>
				<g>
					<path fill="#1E47A4" d="M305.941,334.276c-0.07,0.515-0.549,0.878-1.064,0.808l-65.726-8.943
						c-0.515-0.07-0.878-0.549-0.808-1.062l0.06-0.439c0.07-0.516,0.549-0.879,1.063-0.809l65.727,8.945
						c0.514,0.07,0.877,0.549,0.807,1.062L305.941,334.276z"/>
					<path fill="none" stroke="#000000" stroke-width="0.452" stroke-miterlimit="10" d="M305.941,334.276
						c-0.07,0.515-0.549,0.878-1.064,0.808l-65.726-8.943c-0.515-0.07-0.878-0.549-0.808-1.062l0.06-0.439
						c0.07-0.516,0.549-0.879,1.063-0.809l65.727,8.945c0.514,0.07,0.877,0.549,0.807,1.062L305.941,334.276z"/>
				</g>
			</g>
		</g>
	</g>
	<path fill="#FF0000" stroke="#000000" stroke-width="0.452" stroke-miterlimit="10" d="M474.528,304.789
		c-7.5,31.363-50.482,42.442-32.873,44.381l19.478,2.583c0,0,41.776,11.319,3.576-157.209
		C464.709,194.544,482.028,273.426,474.528,304.789"/>
	<g>
		<g>
			<path opacity="0.3" fill="#231F20" stroke="#000000" stroke-width="0.452" stroke-miterlimit="10" d="M474.528,219.59
				c0,0,0.819,20.053,11.432,20.053c9.308,0,8.622-25.331,8.622-25.331l-9.612,2.708L474.528,219.59z"/>
			<path opacity="0.3" fill="#231F20" stroke="#000000" stroke-width="0.452" stroke-miterlimit="10" d="M494.51,214.268
				c0,0,0.79,20.041,11.402,20.041c10.013,0,7.004-26.55,7.004-26.55l-7.02,2.553L494.51,214.268z"/>
			<path opacity="0.3" fill="#231F20" stroke="#000000" stroke-width="0.452" stroke-miterlimit="10" d="M512.897,207.758
				c0,0,0.028,19.531,10.641,19.531c10.613,0,6.578-27.306,6.578-27.306l-6.912,3.348L512.897,207.758z"/>
			<path fill="#FF0000" stroke="#000000" stroke-width="0.452" stroke-miterlimit="10" d="M544.479,198.991
				c0,0-1.545,17.417,4.507,16.048c7.43-1.682,0.095-18.316,0.095-18.316l0,0L544.479,198.991z"/>
			<g>
				<path fill="#FFDD00" stroke="#000000" stroke-width="0.452" stroke-miterlimit="10" d="M417.131,77.512
					c0.002-0.005,0.005-0.01,0.007-0.015c-0.019,0.098,0.204,1.071,0.678,1.182c-0.008-0.002-0.016-0.004-0.023-0.006
					c31.462,56.559,67.41,78.267,126.687,120.318c-3.533,1.686-7.178,3.303-10.932,4.847
					c-58.979-47.223-90.251-73.98-115.835-125.191c-0.039-0.016-0.081-0.036-0.123-0.06c19.433,46.991,44.87,77.925,99.049,131.481
					c-5.85,1.918-11.898,3.674-18.13,5.255c-46.28-58.503-66.368-92.025-81.039-136.817c-0.038-0.03-0.075-0.063-0.11-0.097
					c10.529,43.58,25.374,78.891,61.45,141.212c-6.909,1.272-13.994,2.338-21.228,3.186
					c-24.057-65.053-33.63-101.572-40.318-144.508c-0.027-0.038-0.053-0.077-0.076-0.117c2.986,42.658,7.228,79.864,18.007,146.508
					c-6.158,0.32-12.399,0.486-18.712,0.486c-1.421,0-2.838-0.01-4.252-0.026c3.099-67.043,4.229-104.432,4.899-147.088
					c-0.015-0.041-0.026-0.081-0.035-0.12c-4.35,42.915-10.859,79.979-27.699,146.216c-7.492-0.568-14.846-1.37-22.038-2.391
					c29.73-64.239,41.593-100.462,49.72-143.939c-0.002-0.037-0.002-0.072,0-0.105c-12.116,44.48-29.305,79.317-70.438,140.417
					c-6.564-1.375-12.956-2.939-19.153-4.68c50.518-56.839,73.072-89.626,89.604-135.828c0.006-0.027,0.013-0.051,0.02-0.072
					c-21.829,49.255-50.004,78.948-107.306,130.271c-5.836-2.091-11.452-4.349-16.824-6.76
					C353.146,156.933,387.872,132.876,417.131,77.512z"/>
				<path fill="#FF0000" stroke="#000000" stroke-width="0.452" stroke-miterlimit="10" d="M417.589,78.588
					c0.042,0.023,0.084,0.044,0.123,0.06c25.584,51.211,56.855,77.968,115.835,125.191c-5.421,2.231-11.063,4.312-16.909,6.23
					C462.459,156.513,437.021,125.579,417.589,78.588z"/>
				<path fill="#FF0000" stroke="#000000" stroke-width="0.452" stroke-miterlimit="10" d="M417.792,78.673
					c0.008,0.002,0.016,0.004,0.023,0.006c0.004,0.001,0.008,0.001,0.012,0.002c34.988,60.144,73.354,78.12,130.652,117.181
					c0.204,0.289,0.399,0.572,0.601,0.86c-1.511,0.77-3.046,1.526-4.602,2.269C485.202,156.94,449.254,135.232,417.792,78.673z"/>
				<path fill="#FF0000" stroke="#000000" stroke-width="0.452" stroke-miterlimit="10" d="M417.469,78.507
					c14.671,44.792,34.759,78.314,81.039,136.817c-6.384,1.621-12.958,3.057-19.699,4.298
					c-36.076-62.321-50.921-97.633-61.45-141.212C417.394,78.444,417.431,78.477,417.469,78.507z"/>
				<path fill="#FF0000" stroke="#000000" stroke-width="0.452" stroke-miterlimit="10" d="M417.263,78.3
					c6.688,42.936,16.262,79.455,40.318,144.508c-7.317,0.857-14.789,1.489-22.388,1.883
					c-10.779-66.644-15.021-103.85-18.007-146.508C417.21,78.223,417.235,78.262,417.263,78.3z"/>
				<path fill="#FF0000" stroke="#000000" stroke-width="0.452" stroke-miterlimit="10" d="M417.129,78.062
					c-0.67,42.656-1.801,80.045-4.899,147.088c-7.731-0.091-15.352-0.425-22.835-0.992c16.84-66.238,23.35-103.302,27.699-146.216
					C417.103,77.982,417.114,78.022,417.129,78.062z"/>
				<path fill="#FF0000" stroke="#000000" stroke-width="0.452" stroke-miterlimit="10" d="M417.076,77.829
					c-8.126,43.477-19.989,79.7-49.72,143.939c-7.072-1.001-13.986-2.215-20.718-3.627c41.133-61.101,58.322-95.938,70.438-140.417
					C417.074,77.757,417.074,77.792,417.076,77.829z"/>
				<path fill="#FF0000" stroke="#000000" stroke-width="0.452" stroke-miterlimit="10" d="M417.109,77.562
					c-0.007,0.021-0.014,0.045-0.02,0.072c-16.533,46.202-39.086,78.989-89.604,135.828c-6.089-1.71-11.991-3.589-17.682-5.628
					C367.105,156.509,395.28,126.816,417.109,77.562z"/>
				<path fill="#FF0000" stroke="#000000" stroke-width="0.452" stroke-miterlimit="10" d="M417.138,77.498
					c-0.002,0.004-0.005,0.009-0.007,0.015c-29.259,55.364-63.985,79.421-124.152,123.561c-2.899-1.301-5.728-2.647-8.481-4.037
					C343.015,157.193,382.1,138.852,417.138,77.498z"/>
			</g>
			<path fill="#FF0000" stroke="#000000" stroke-width="0.452" stroke-miterlimit="10" d="M412.229,225.151
				c0,0-2.622,15.71-13.087,15.71c-10.463,0-9.748-16.702-9.748-16.702l12.073,0.532L412.229,225.151z"/>
			<path fill="#FFDD00" stroke="#000000" stroke-width="0.452" stroke-miterlimit="10" d="M389.385,224.248
				c0,0-2.624,15.711-13.086,15.711c-10.465,0-8.942-18.191-8.942-18.191l12.022,1.35L389.385,224.248z"/>
			<path fill="#FF0000" stroke="#000000" stroke-width="0.452" stroke-miterlimit="10" d="M367.279,221.776
				c0,0-1.876,15.711-12.339,15.711c-10.464,0-8.302-19.346-8.302-19.346l10.229,1.967L367.279,221.776z"/>
			<path fill="#FFDD00" stroke="#000000" stroke-width="0.452" stroke-miterlimit="10" d="M346.638,218.141
				c0,0-0.753,15.789-11.218,15.789c-10.464,0-7.935-20.469-7.935-20.469l9.443,2.478L346.638,218.141z"/>
			<path fill="#FF0000" stroke="#000000" stroke-width="0.452" stroke-miterlimit="10" d="M327.485,213.482
				c0,0-0.754,15.787-11.218,15.787s-6.464-21.437-6.464-21.437l6.921,2.062L327.485,213.482z"/>
			<path fill="#FF0000" stroke="#231F20" stroke-width="0.452" stroke-miterlimit="10" d="M292.979,201.073
				c0,0,1.638,18.146-8.481,16.004c-5.813-1.23,0-20.041,0-20.041l0,0L292.979,201.073z"/>
			<path fill="#FFDD00" stroke="#000000" stroke-width="0.452" stroke-miterlimit="10" d="M309.803,207.833
				c0,0,0.125,15.285-10.337,15.285c-10.465,0-6.487-22.045-6.487-22.045l6.779,2.909L309.803,207.833z"/>
			<path fill="#FFDD00" stroke="#000000" stroke-width="0.452" stroke-miterlimit="10" d="M412.229,225.151
				c0,0,2.624,16.323,13.087,16.323c10.464,0,9.748-16.702,9.748-16.702l-11.672,0.379H412.229z"/>
			<path fill="#FF0000" stroke="#000000" stroke-width="0.452" stroke-miterlimit="10" d="M435.193,224.691
				c0,0,2.338,15.552,12.802,15.552s9.586-17.436,9.586-17.436l-10.817,1.092L435.193,224.691z"/>
			<path fill="#FFDD00" stroke="#000000" stroke-width="0.452" stroke-miterlimit="10" d="M457.581,222.808
				c0,0,1.937,16.16,12.4,16.16c9.467,0,8.827-19.345,8.827-19.345l-10.191,1.707L457.581,222.808z"/>
			<path fill="#FF0000" stroke="#000000" stroke-width="0.452" stroke-miterlimit="10" d="M478.809,219.622
				c0,0,0.807,16.189,11.271,16.189c9.176,0,8.5-20.451,8.5-20.451l-9.477,2.186L478.809,219.622z"/>
			<path fill="#FFDD00" stroke="#000000" stroke-width="0.452" stroke-miterlimit="10" d="M498.508,215.324
				c0,0,0.778,16.182,11.242,16.182c9.872,0,6.905-21.437,6.905-21.437l-6.921,2.062L498.508,215.324z"/>
			<path fill="#FFDD00" stroke="#000000" stroke-width="0.452" stroke-miterlimit="10" d="M533.547,203.838
				c0,0-0.61,18.092,9.349,15.51c7.346-1.904,1.589-20.357,1.589-20.357l0,0L533.547,203.838z"/>
			<path fill="#FF0000" stroke="#000000" stroke-width="0.452" stroke-miterlimit="10" d="M516.638,210.069
				c0,0,0.027,15.769,10.492,15.769c10.463,0,6.485-22.044,6.485-22.044l-6.816,2.702L516.638,210.069z"/>
		</g>
	</g>
</g>
<g id="Layer_2">
</g>
</svg>
