<?xml version="1.0" encoding="utf-8"?>
<!-- Generator: Adobe Illustrator 15.0.0, SVG Export Plug-In . SVG Version: 6.00 Build 0)  -->
<!DOCTYPE svg PUBLIC "-//W3C//DTD SVG 1.1//EN" "http://www.w3.org/Graphics/SVG/1.1/DTD/svg11.dtd">
<svg version="1.1" xmlns="http://www.w3.org/2000/svg" xmlns:xlink="http://www.w3.org/1999/xlink" x="0px" y="0px"
	 width="841.89px" height="595.28px" viewBox="0 0 841.89 595.28" enable-background="new 0 0 841.89 595.28" xml:space="preserve">
<g id="achtergrond">
	
		<line fill="none" stroke="#000000" stroke-width="0.452" stroke-miterlimit="10" x1="417.358" y1="79.586" x2="572.334" y2="286.947"/>
	<defs>
		<filter id="Adobe_OpacityMaskFilter" filterUnits="userSpaceOnUse" x="-0.092" y="190.133" width="841.982" height="405.147">
			<feColorMatrix  type="matrix" values="1 0 0 0 0  0 1 0 0 0  0 0 1 0 0  0 0 0 1 0"/>
		</filter>
	</defs>
	<mask maskUnits="userSpaceOnUse" x="-0.092" y="190.133" width="841.982" height="405.147" id="SVGID_1_">
		<g filter="url(#Adobe_OpacityMaskFilter)">
			<linearGradient id="SVGID_2_" gradientUnits="userSpaceOnUse" x1="421.6836" y1="595.2803" x2="421.6836" y2="158.8823">
				<stop  offset="0" style="stop-color:#FFFFFF"/>
				<stop  offset="0.3482" style="stop-color:#F9F9F9"/>
				<stop  offset="0.4908" style="stop-color:#F5F5F5"/>
				<stop  offset="0.5573" style="stop-color:#F1F1F1"/>
				<stop  offset="0.6227" style="stop-color:#E5E5E5"/>
				<stop  offset="0.6876" style="stop-color:#D1D1D1"/>
				<stop  offset="0.7523" style="stop-color:#B6B6B6"/>
				<stop  offset="0.8169" style="stop-color:#929292"/>
				<stop  offset="0.8814" style="stop-color:#666666"/>
				<stop  offset="0.9445" style="stop-color:#333333"/>
				<stop  offset="1" style="stop-color:#000000"/>
			</linearGradient>
			<rect x="0.601" y="158.882" fill="url(#SVGID_2_)" width="842.167" height="436.398"/>
		</g>
	</mask>
	
		<linearGradient id="SVGID_3_" gradientUnits="userSpaceOnUse" x1="210.5552" y1="402.1807" x2="615.7021" y2="402.1807" gradientTransform="matrix(0 1 -1 0 823.0791 -20.4219)">
		<stop  offset="0" style="stop-color:#99D647"/>
		<stop  offset="1" style="stop-color:#5FBB46"/>
	</linearGradient>
	<path mask="url(#SVGID_1_)" fill="url(#SVGID_3_)" d="M0.093,595.28l-0.186-405.147c0,0,66.044,17.044,196.064,14.615
		c174.621-3.263,259.965,17.792,417.609,35.489c119.678,13.435,228.309-9.859,228.309-9.859V595.28H0.093z"/>
	<defs>
		<filter id="Adobe_OpacityMaskFilter_1_" filterUnits="userSpaceOnUse" x="0" y="244.939" width="841.705" height="350.341">
			<feColorMatrix  type="matrix" values="1 0 0 0 0  0 1 0 0 0  0 0 1 0 0  0 0 0 1 0"/>
		</filter>
	</defs>
	<mask maskUnits="userSpaceOnUse" x="0" y="244.939" width="841.705" height="350.341" id="SVGID_4_">
		<g filter="url(#Adobe_OpacityMaskFilter_1_)">
			
				<linearGradient id="SVGID_5_" gradientUnits="userSpaceOnUse" x1="421.7305" y1="560.0938" x2="421.7304" y2="207.3237" gradientTransform="matrix(-1 0 0 1 841.8906 0)">
				<stop  offset="0" style="stop-color:#FFFFFF"/>
				<stop  offset="0.3482" style="stop-color:#F9F9F9"/>
				<stop  offset="0.4908" style="stop-color:#F5F5F5"/>
				<stop  offset="0.5573" style="stop-color:#F1F1F1"/>
				<stop  offset="0.6227" style="stop-color:#E5E5E5"/>
				<stop  offset="0.6876" style="stop-color:#D1D1D1"/>
				<stop  offset="0.7523" style="stop-color:#B6B6B6"/>
				<stop  offset="0.8169" style="stop-color:#929292"/>
				<stop  offset="0.8814" style="stop-color:#666666"/>
				<stop  offset="0.9445" style="stop-color:#333333"/>
				<stop  offset="1" style="stop-color:#000000"/>
			</linearGradient>
			<rect x="-0.878" y="207.324" fill="url(#SVGID_5_)" width="842.075" height="352.769"/>
		</g>
	</mask>
	
		<linearGradient id="SVGID_6_" gradientUnits="userSpaceOnUse" x1="265.3613" y1="402.041" x2="615.7021" y2="402.041" gradientTransform="matrix(0 1 1 0 18.8115 -20.4219)">
		<stop  offset="0" style="stop-color:#99D647"/>
		<stop  offset="1" style="stop-color:#5FBB46"/>
	</linearGradient>
	<path mask="url(#SVGID_4_)" fill="url(#SVGID_6_)" d="M841.705,595.28V277.279c0,0-323.776-57.377-612.95-19.281
		C109.628,273.692,0,265.118,0,265.118V595.28H841.705z"/>
	<ellipse fill="#5FBB46" cx="417.67" cy="326.834" rx="147.435" ry="20.862"/>
	<path fill="none" stroke="#CB3D17" stroke-miterlimit="10" d="M463.428,335.224c-14.404,0.665-29.784,1.024-45.758,1.024
		c-81.426,0-147.435-9.342-147.435-20.862c0-11.522,66.009-20.864,147.435-20.864c16.516,0,32.397,0.384,47.223,1.093
		c0,0,9.688,0.621,10.966,0.949"/>
	<path fill="none" stroke="#CB3D17" stroke-miterlimit="10" d="M471.59,327.335c-16.7,0.93-34.889,1.439-53.92,1.439
		c-81.426,0-147.435-9.342-147.435-20.862c0-11.522,66.009-20.864,147.435-20.864c16.239,0,31.865,0.372,46.477,1.058
		c0,0,8.324,0.275,12.196,0.804"/>
	<path fill="#FFDD00" stroke="#000000" stroke-width="0.452" stroke-miterlimit="10" d="M527.423,341.879
		c0,0,11.25-2.329,24.879-8.449s-24.879-93.483-24.879-93.483l-25.756-29.878l-15.334,28.878L527.423,341.879z"/>
	<path fill="#FFDD00" stroke="#000000" stroke-width="0.452" stroke-miterlimit="10" d="M464.709,194.666
		c0,0,17.319,78.882,9.819,110.245c-7.5,31.363-50.482,42.442-32.873,44.381c113.566,12.503,65.88,6.344,66.862-3.584
		s-32.949-126.107-32.949-126.107L464.709,194.666z"/>
	<linearGradient id="SVGID_7_" gradientUnits="userSpaceOnUse" x1="420.853" y1="154.4688" x2="420.853" y2="1.421085e-13">
		<stop  offset="0" style="stop-color:#FFFFFF"/>
		<stop  offset="1" style="stop-color:#5FBBCF"/>
	</linearGradient>
	<rect opacity="0.3" fill="url(#SVGID_7_)" width="841.705" height="154.469"/>
	<path fill="none" stroke="#000000" stroke-width="0.452" stroke-miterlimit="10" d="M420.945,305.97"/>
	<circle fill="#FFDD00" stroke="#000000" stroke-width="0.452" stroke-miterlimit="10" cx="417.635" cy="35.637" r="3.218"/>
	<g>
		<path opacity="0.9" fill="#FF0000" stroke="#000000" stroke-width="0.452" stroke-miterlimit="10" d="M512.422,223.467
			c13.505,36.584,28.434,72.609,39.88,109.963c10.403-4.991,12.803-9.044,12.803-9.044l-34.043-96.714
			c-1.178-3.21-2.349-6.423-3.509-9.641C524.278,208.956,507.375,209.798,512.422,223.467z M463.263,182.127
			c12.839,55.193,31.95,108.534,45.255,163.581c7.146-1.185,13.414-2.481,18.905-3.829c-10.779-38.693-24.913-76.239-37.537-114.308
			C484.901,212.539,468.06,182.127,463.263,182.127z"/>
		<g>
			<path fill="#FF0000" stroke="#000000" stroke-width="0.452" stroke-miterlimit="10" d="M544.479,198.991
				c0,0-1.545,17.417,4.507,16.048c7.43-1.682,0.095-18.316,0.095-18.316l0,0L544.479,198.991z"/>
			<g>
				<path fill="#FF0000" stroke="#000000" stroke-width="0.452" stroke-miterlimit="10" d="M548.479,195.863
					c0.204,0.289,0.399,0.572,0.601,0.86c-1.511,0.77-3.046,1.526-4.602,2.269"/>
				<path fill="#FF0000" stroke="#000000" stroke-width="0.452" stroke-miterlimit="10" d="M417.792,78.673
					c0.008,0.002,0.016,0.004,0.023,0.006c0.004,0.001,0.008,0.001,0.012,0.002"/>
			</g>
			<path fill="#FF0000" stroke="#000000" stroke-width="0.452" stroke-miterlimit="10" d="M478.809,219.622
				c0,0,0.807,16.189,11.271,16.189c9.176,0,8.5-20.451,8.5-20.451l-9.477,2.186L478.809,219.622z"/>
			<path fill="#FFDD00" stroke="#000000" stroke-width="0.452" stroke-miterlimit="10" d="M498.508,215.324
				c0,0,0.778,16.182,11.242,16.182c9.872,0,6.905-21.437,6.905-21.437l-6.921,2.062L498.508,215.324z"/>
			<path fill="#FFDD00" stroke="#000000" stroke-width="0.452" stroke-miterlimit="10" d="M533.547,203.838
				c0,0-0.61,18.092,9.349,15.51c7.346-1.904,1.589-20.357,1.589-20.357l0,0L533.547,203.838z"/>
			<path fill="#FF0000" stroke="#000000" stroke-width="0.452" stroke-miterlimit="10" d="M516.638,210.069
				c0,0,0.027,15.769,10.492,15.769c10.463,0,6.485-22.044,6.485-22.044l-6.816,2.702L516.638,210.069z"/>
		</g>
	</g>
	<line fill="none" stroke="#000000" stroke-width="2" stroke-miterlimit="10" x1="417.635" y1="38.855" x2="417.635" y2="326.833"/>
	<path fill="none" stroke="#000000" stroke-width="0.452" stroke-miterlimit="10" d="M307.667,349.484"/>
	<path fill="none" stroke="#000000" stroke-width="0.452" stroke-miterlimit="10" d="M417.358,79.586"/>
	<g>
		<g>
			<g>
				<g>
					<path fill="none" stroke="#059F14" stroke-width="0.4455" stroke-miterlimit="10" d="M262.554,283.631
						c0,0,0.261-7.615-0.203-11.395l1.748,12.127c0,0,0.493-5.724,0.658-7.197l0.426,6.759c0,0,0.515-4.604,1.658-8.204
						c0,0-0.141,3.899,0.027,5.037c0,0,1.873-3.52,1.847-7.251c0,0,0.383,5.822,0.053,8.768c0,0,0.538-3.482,1.454-5.057
						c0,0-0.867,6.428-0.825,7.365c0,0,1.075-6.964,2.866-9.747c0,0-0.371,3.314-0.431,5.171l1.332-2.647
						c0,0-0.188,0.352-0.454,4.051c0,0,2.684-5.479,2.826-8.073c0,0-0.388,6.108-1.01,9.021"/>
				</g>
				<g>
					<path fill="none" stroke="#059F14" stroke-width="0.4455" stroke-miterlimit="10" d="M276.171,285.156
						c0,0,0.261-7.615-0.203-11.395l1.748,12.127c0,0,0.493-5.724,0.658-7.197l0.426,6.759c0,0,0.515-4.604,1.658-8.204
						c0,0-0.141,3.899,0.027,5.037c0,0,1.873-3.52,1.847-7.251c0,0,0.383,5.822,0.053,8.768c0,0,0.538-3.482,1.454-5.057
						c0,0-0.867,6.428-0.825,7.365c0,0,1.075-6.964,2.866-9.747c0,0-0.371,3.314-0.431,5.171l1.332-2.647
						c0,0-0.188,0.352-0.454,4.051c0,0,2.684-5.479,2.826-8.073c0,0-0.388,6.108-1.01,9.021"/>
				</g>
			</g>
		</g>
	</g>
	<g>
		<g>
			<g>
				<g>
					<path fill="none" stroke="#059F14" stroke-width="0.4455" stroke-miterlimit="10" d="M295.015,352.713
						c0,0,0.261-7.614-0.203-11.395l1.748,12.127c0,0,0.493-5.724,0.658-7.197l0.426,6.76c0,0,0.515-4.604,1.658-8.204
						c0,0-0.141,3.899,0.027,5.037c0,0,1.873-3.52,1.847-7.251c0,0,0.383,5.822,0.053,8.769c0,0,0.538-3.482,1.454-5.058
						c0,0-0.867,6.429-0.825,7.365c0,0,1.075-6.964,2.866-9.747c0,0-0.371,3.314-0.431,5.172l1.332-2.647
						c0,0-0.188,0.353-0.454,4.052c0,0,2.684-5.479,2.826-8.073c0,0-0.388,6.108-1.01,9.021"/>
				</g>
				<g>
					<path fill="none" stroke="#059F14" stroke-width="0.4455" stroke-miterlimit="10" d="M308.632,354.237
						c0,0,0.261-7.614-0.203-11.395l1.748,12.127c0,0,0.493-5.724,0.658-7.197l0.426,6.76c0,0,0.515-4.604,1.658-8.204
						c0,0-0.141,3.899,0.027,5.037c0,0,1.873-3.52,1.847-7.251c0,0,0.383,5.822,0.053,8.769c0,0,0.538-3.482,1.454-5.058
						c0,0-0.867,6.429-0.825,7.365c0,0,1.075-6.964,2.866-9.747c0,0-0.371,3.314-0.431,5.172l1.332-2.647
						c0,0-0.188,0.353-0.454,4.052c0,0,2.684-5.479,2.826-8.073c0,0-0.388,6.108-1.01,9.021"/>
				</g>
			</g>
		</g>
	</g>
	<line fill="none" stroke="#9C4F17" stroke-width="2" stroke-miterlimit="10" x1="270.235" y1="326.834" x2="270.235" y2="297.78"/>
	<line fill="none" stroke="#9C4F17" stroke-width="2" stroke-miterlimit="10" x1="286.923" y1="336.193" x2="286.923" y2="307.14"/>
	
		<line fill="none" stroke="#9C4F17" stroke-width="2" stroke-miterlimit="10" x1="311.333" y1="312.308" x2="311.333" y2="283.253"/>
	
		<line fill="none" stroke="#9C4F17" stroke-width="2" stroke-miterlimit="10" x1="383.667" y1="306.892" x2="383.667" y2="277.837"/>
	
		<line fill="none" stroke="#9C4F17" stroke-width="2" stroke-miterlimit="10" x1="334.337" y1="344.135" x2="334.337" y2="315.081"/>
	
		<line fill="none" stroke="#9C4F17" stroke-width="2" stroke-miterlimit="10" x1="398.333" y1="347.696" x2="398.333" y2="318.643"/>
	
		<line fill="none" stroke="#000000" stroke-width="0.452" stroke-miterlimit="10" x1="535.384" y1="218.554" x2="625.308" y2="307.038"/>
	<g>
		<g>
			<g>
				<g>
					<path fill="none" stroke="#059F14" stroke-width="0.4875" stroke-miterlimit="10" d="M609.611,314.043
						c0,0-1.218-8.253-2.522-12.234l4.489,12.721c0,0-0.566-6.262-0.668-7.881l1.856,7.198c0,0-0.314-5.06,0.31-9.161
						c0,0,0.615,4.228,1.042,5.42c0,0,1.5-4.156,0.723-8.171c0,0,1.618,6.196,1.819,9.435c0,0-0.063-3.856,0.699-5.731
						c0,0,0.267,7.094,0.505,8.094c0,0-0.13-7.711,1.422-11.059c0,0,0.228,3.643,0.528,5.655l1.038-3.112
						c0,0-0.149,0.416,0.277,4.453c0,0,2.063-6.427,1.712-9.248c0,0,0.767,6.655,0.618,9.915"/>
				</g>
				<g>
					<path fill="none" stroke="#059F14" stroke-width="0.4875" stroke-miterlimit="10" d="M625.958,313.023
						c0,0-1.218-8.253-2.522-12.234l4.489,12.722c0,0-0.566-6.262-0.668-7.881l1.856,7.197c0,0-0.314-5.059,0.31-9.161
						c0,0,0.615,4.228,1.042,5.421c0,0,1.5-4.157,0.723-8.172c0,0,1.618,6.197,1.819,9.435c0,0-0.063-3.855,0.699-5.731
						c0,0,0.267,7.094,0.505,8.095c0,0-0.13-7.712,1.422-11.059c0,0,0.228,3.643,0.528,5.655l1.038-3.112
						c0,0-0.15,0.416,0.277,4.452c0,0,2.063-6.426,1.712-9.248c0,0,0.767,6.655,0.618,9.915"/>
				</g>
			</g>
		</g>
	</g>
	<g>
		<g>
			
				<line fill="none" stroke="#9C4F17" stroke-width="3" stroke-miterlimit="10" x1="311.301" y1="213.886" x2="279.669" y2="354.389"/>
			
				<line fill="none" stroke="#9C4F17" stroke-width="3" stroke-miterlimit="10" x1="291.43" y1="212.891" x2="256.667" y2="353.235"/>
			
				<line fill="none" stroke="#9C4F17" stroke-width="3" stroke-miterlimit="10" x1="308.35" y1="226.993" x2="288.198" y2="225.984"/>
			
				<line fill="none" stroke="#9C4F17" stroke-width="3" stroke-miterlimit="10" x1="303.704" y1="242.748" x2="283.552" y2="241.738"/>
			
				<line fill="none" stroke="#9C4F17" stroke-width="3" stroke-miterlimit="10" x1="301.374" y1="256.84" x2="281.222" y2="255.831"/>
			
				<line fill="none" stroke="#9C4F17" stroke-width="3" stroke-miterlimit="10" x1="297.739" y1="270.981" x2="277.587" y2="269.971"/>
			
				<line fill="none" stroke="#9C4F17" stroke-width="3" stroke-miterlimit="10" x1="295.386" y1="284.132" x2="275.235" y2="283.122"/>
			
				<line fill="none" stroke="#9C4F17" stroke-width="3" stroke-miterlimit="10" x1="292.688" y1="296.126" x2="272.537" y2="295.116"/>
			
				<line fill="none" stroke="#9C4F17" stroke-width="3" stroke-miterlimit="10" x1="289.367" y1="307.325" x2="269.215" y2="306.317"/>
			
				<line fill="none" stroke="#9C4F17" stroke-width="3" stroke-miterlimit="10" x1="286.18" y1="320.091" x2="266.028" y2="319.081"/>
		</g>
		
			<line fill="none" stroke="#9C4F17" stroke-width="3" stroke-miterlimit="10" x1="282.734" y1="335.068" x2="262.583" y2="334.061"/>
		
			<line fill="none" stroke="#9C4F17" stroke-width="3" stroke-miterlimit="10" x1="280.023" y1="347.327" x2="259.872" y2="346.317"/>
	</g>
	
		<line fill="none" stroke="#000000" stroke-width="0.452" stroke-miterlimit="10" x1="418.358" y1="79.586" x2="278.201" y2="279.263"/>
	
		<line fill="none" stroke="#000000" stroke-width="0.452" stroke-miterlimit="10" x1="298.822" y1="222.067" x2="206.846" y2="308.415"/>
	<g>
		<g>
			<path fill="#FF0000" d="M242.299,361.696c-0.348,0-0.699-0.022-1.045-0.068c-2.106-0.277-3.979-1.358-5.273-3.045
				s-1.854-3.775-1.576-5.883c0.52-3.944,3.908-6.918,7.883-6.918c0.348,0,0.699,0.022,1.045,0.068
				c2.106,0.277,3.979,1.359,5.273,3.046c1.293,1.686,1.853,3.774,1.575,5.882C249.661,358.723,246.272,361.696,242.299,361.696z"/>
			<path d="M242.287,348.779c0.216,0,0.434,0.014,0.653,0.043c2.715,0.357,4.626,2.85,4.269,5.564
				c-0.328,2.495-2.46,4.312-4.91,4.312c-0.216,0-0.434-0.014-0.653-0.043c-2.715-0.357-4.627-2.85-4.27-5.564
				C237.704,350.597,239.837,348.779,242.287,348.779 M242.287,342.784L242.287,342.784c-5.474,0.001-10.14,4.096-10.854,9.525
				c-0.382,2.9,0.389,5.776,2.17,8.098s4.36,3.811,7.261,4.192c0.475,0.062,0.958,0.095,1.436,0.095
				c5.473,0,10.139-4.095,10.854-9.525c0.382-2.9-0.389-5.775-2.169-8.097c-1.781-2.322-4.359-3.812-7.261-4.193
				C243.248,342.816,242.765,342.784,242.287,342.784L242.287,342.784z"/>
		</g>
		<polyline fill="none" stroke="#000000" stroke-linejoin="round" stroke-miterlimit="10" points="278.58,352.482 285.15,365.641 
			292.596,351.361 		"/>
		<polygon fill="#1E82A4" stroke="#000000" stroke-width="0.452" stroke-miterlimit="10" points="255.67,353.166 239.272,326.031 
			304.081,334.355 292.598,352.648 		"/>
		<polyline fill="none" stroke="#000000" stroke-miterlimit="10" points="242.293,353.74 298.85,351.732 312.687,336.939 
			326.451,335.744 		"/>
		<g>
			<g>
				<g>
					<path fill="#1E47A4" d="M305.941,334.276c-0.07,0.515-0.549,0.878-1.064,0.808l-65.726-8.943
						c-0.515-0.07-0.878-0.549-0.808-1.062l0.06-0.439c0.07-0.516,0.549-0.879,1.063-0.809l65.727,8.945
						c0.514,0.07,0.877,0.549,0.807,1.062L305.941,334.276z"/>
					<path fill="none" stroke="#000000" stroke-width="0.452" stroke-miterlimit="10" d="M305.941,334.276
						c-0.07,0.515-0.549,0.878-1.064,0.808l-65.726-8.943c-0.515-0.07-0.878-0.549-0.808-1.062l0.06-0.439
						c0.07-0.516,0.549-0.879,1.063-0.809l65.727,8.945c0.514,0.07,0.877,0.549,0.807,1.062L305.941,334.276z"/>
				</g>
			</g>
		</g>
	</g>
	<path fill="#FF0000" stroke="#000000" stroke-width="0.452" stroke-miterlimit="10" d="M474.528,304.789
		c-7.5,31.363-50.482,42.442-32.873,44.381l19.478,2.583c0,0,41.776,11.319,3.576-157.209
		C464.709,194.544,482.028,273.426,474.528,304.789"/>
	<g>
		<g>
			<path opacity="0.3" fill="#231F20" stroke="#000000" stroke-width="0.452" stroke-miterlimit="10" d="M474.528,219.59
				c0,0,0.819,20.053,11.432,20.053c9.308,0,8.622-25.331,8.622-25.331l-9.612,2.708L474.528,219.59z"/>
			<path opacity="0.3" fill="#231F20" stroke="#000000" stroke-width="0.452" stroke-miterlimit="10" d="M494.51,214.268
				c0,0,0.79,20.041,11.402,20.041c10.013,0,7.004-26.55,7.004-26.55l-7.02,2.553L494.51,214.268z"/>
			<path opacity="0.3" fill="#231F20" stroke="#000000" stroke-width="0.452" stroke-miterlimit="10" d="M512.897,207.758
				c0,0,0.028,19.531,10.641,19.531c10.613,0,6.578-27.306,6.578-27.306l-6.912,3.348L512.897,207.758z"/>
			<path fill="#FF0000" stroke="#000000" stroke-width="0.452" stroke-miterlimit="10" d="M544.479,198.991
				c0,0-1.545,17.417,4.507,16.048c7.43-1.682,0.095-18.316,0.095-18.316l0,0L544.479,198.991z"/>
			<g>
				<path fill="#FFDD00" stroke="#000000" stroke-width="0.452" stroke-miterlimit="10" d="M417.131,77.512
					c0.002-0.005,0.005-0.01,0.007-0.015c-0.019,0.098,0.204,1.071,0.678,1.182c-0.008-0.002-0.016-0.004-0.023-0.006
					c31.462,56.559,67.41,78.267,126.687,120.318c-3.533,1.686-7.178,3.303-10.932,4.847
					c-58.979-47.223-90.251-73.98-115.835-125.191c-0.039-0.016-0.081-0.036-0.123-0.06c19.433,46.991,44.87,77.925,99.049,131.481
					c-5.85,1.918-11.898,3.674-18.13,5.255c-46.28-58.503-66.368-92.025-81.039-136.817c-0.038-0.03-0.075-0.063-0.11-0.097
					c10.529,43.58,25.374,78.891,61.45,141.212c-6.909,1.272-13.994,2.338-21.228,3.186
					c-24.057-65.053-33.63-101.572-40.318-144.508c-0.027-0.038-0.053-0.077-0.076-0.117c2.986,42.658,7.228,79.864,18.007,146.508
					c-6.158,0.32-12.399,0.486-18.712,0.486c-1.421,0-2.838-0.01-4.252-0.026c3.099-67.043,4.229-104.432,4.899-147.088
					c-0.015-0.041-0.026-0.081-0.035-0.12c-4.35,42.915-10.859,79.979-27.699,146.216c-7.492-0.568-14.846-1.37-22.038-2.391
					c29.73-64.239,41.593-100.462,49.72-143.939c-0.002-0.037-0.002-0.072,0-0.105c-12.116,44.48-29.305,79.317-70.438,140.417
					c-6.564-1.375-12.956-2.939-19.153-4.68c50.518-56.839,73.072-89.626,89.604-135.828c0.006-0.027,0.013-0.051,0.02-0.072
					c-21.829,49.255-50.004,78.948-107.306,130.271c-5.836-2.091-11.452-4.349-16.824-6.76
					C353.146,156.933,387.872,132.876,417.131,77.512z"/>
				<path fill="#FF0000" stroke="#000000" stroke-width="0.452" stroke-miterlimit="10" d="M417.589,78.588
					c0.042,0.023,0.084,0.044,0.123,0.06c25.584,51.211,56.855,77.968,115.835,125.191c-5.421,2.231-11.063,4.312-16.909,6.23
					C462.459,156.513,437.021,125.579,417.589,78.588z"/>
				<path fill="#FF0000" stroke="#000000" stroke-width="0.452" stroke-miterlimit="10" d="M417.792,78.673
					c0.008,0.002,0.016,0.004,0.023,0.006c0.004,0.001,0.008,0.001,0.012,0.002c34.988,60.144,73.354,78.12,130.652,117.181
					c0.204,0.289,0.399,0.572,0.601,0.86c-1.511,0.77-3.046,1.526-4.602,2.269C485.202,156.94,449.254,135.232,417.792,78.673z"/>
				<path fill="#FF0000" stroke="#000000" stroke-width="0.452" stroke-miterlimit="10" d="M417.469,78.507
					c14.671,44.792,34.759,78.314,81.039,136.817c-6.384,1.621-12.958,3.057-19.699,4.298
					c-36.076-62.321-50.921-97.633-61.45-141.212C417.394,78.444,417.431,78.477,417.469,78.507z"/>
				<path fill="#FF0000" stroke="#000000" stroke-width="0.452" stroke-miterlimit="10" d="M417.263,78.3
					c6.688,42.936,16.262,79.455,40.318,144.508c-7.317,0.857-14.789,1.489-22.388,1.883
					c-10.779-66.644-15.021-103.85-18.007-146.508C417.21,78.223,417.235,78.262,417.263,78.3z"/>
				<path fill="#FF0000" stroke="#000000" stroke-width="0.452" stroke-miterlimit="10" d="M417.129,78.062
					c-0.67,42.656-1.801,80.045-4.899,147.088c-7.731-0.091-15.352-0.425-22.835-0.992c16.84-66.238,23.35-103.302,27.699-146.216
					C417.103,77.982,417.114,78.022,417.129,78.062z"/>
				<path fill="#FF0000" stroke="#000000" stroke-width="0.452" stroke-miterlimit="10" d="M417.076,77.829
					c-8.126,43.477-19.989,79.7-49.72,143.939c-7.072-1.001-13.986-2.215-20.718-3.627c41.133-61.101,58.322-95.938,70.438-140.417
					C417.074,77.757,417.074,77.792,417.076,77.829z"/>
				<path fill="#FF0000" stroke="#000000" stroke-width="0.452" stroke-miterlimit="10" d="M417.109,77.562
					c-0.007,0.021-0.014,0.045-0.02,0.072c-16.533,46.202-39.086,78.989-89.604,135.828c-6.089-1.71-11.991-3.589-17.682-5.628
					C367.105,156.509,395.28,126.816,417.109,77.562z"/>
				<path fill="#FF0000" stroke="#000000" stroke-width="0.452" stroke-miterlimit="10" d="M417.138,77.498
					c-0.002,0.004-0.005,0.009-0.007,0.015c-29.259,55.364-63.985,79.421-124.152,123.561c-2.899-1.301-5.728-2.647-8.481-4.037
					C343.015,157.193,382.1,138.852,417.138,77.498z"/>
			</g>
			<path fill="#FF0000" stroke="#000000" stroke-width="0.452" stroke-miterlimit="10" d="M412.229,225.151
				c0,0-2.622,15.71-13.087,15.71c-10.463,0-9.748-16.702-9.748-16.702l12.073,0.532L412.229,225.151z"/>
			<path fill="#FFDD00" stroke="#000000" stroke-width="0.452" stroke-miterlimit="10" d="M389.385,224.248
				c0,0-2.624,15.711-13.086,15.711c-10.465,0-8.942-18.191-8.942-18.191l12.022,1.35L389.385,224.248z"/>
			<path fill="#FF0000" stroke="#000000" stroke-width="0.452" stroke-miterlimit="10" d="M367.279,221.776
				c0,0-1.876,15.711-12.339,15.711c-10.464,0-8.302-19.346-8.302-19.346l10.229,1.967L367.279,221.776z"/>
			<path fill="#FFDD00" stroke="#000000" stroke-width="0.452" stroke-miterlimit="10" d="M346.638,218.141
				c0,0-0.753,15.789-11.218,15.789c-10.464,0-7.935-20.469-7.935-20.469l9.443,2.478L346.638,218.141z"/>
			<path fill="#FF0000" stroke="#000000" stroke-width="0.452" stroke-miterlimit="10" d="M327.485,213.482
				c0,0-0.754,15.787-11.218,15.787s-6.464-21.437-6.464-21.437l6.921,2.062L327.485,213.482z"/>
			<path fill="#FF0000" stroke="#231F20" stroke-width="0.452" stroke-miterlimit="10" d="M292.979,201.073
				c0,0,1.638,18.146-8.481,16.004c-5.813-1.23,0-20.041,0-20.041l0,0L292.979,201.073z"/>
			<path fill="#FFDD00" stroke="#000000" stroke-width="0.452" stroke-miterlimit="10" d="M309.803,207.833
				c0,0,0.125,15.285-10.337,15.285c-10.465,0-6.487-22.045-6.487-22.045l6.779,2.909L309.803,207.833z"/>
			<path fill="#FFDD00" stroke="#000000" stroke-width="0.452" stroke-miterlimit="10" d="M412.229,225.151
				c0,0,2.624,16.323,13.087,16.323c10.464,0,9.748-16.702,9.748-16.702l-11.672,0.379H412.229z"/>
			<path fill="#FF0000" stroke="#000000" stroke-width="0.452" stroke-miterlimit="10" d="M435.193,224.691
				c0,0,2.338,15.552,12.802,15.552s9.586-17.436,9.586-17.436l-10.817,1.092L435.193,224.691z"/>
			<path fill="#FFDD00" stroke="#000000" stroke-width="0.452" stroke-miterlimit="10" d="M457.581,222.808
				c0,0,1.937,16.16,12.4,16.16c9.467,0,8.827-19.345,8.827-19.345l-10.191,1.707L457.581,222.808z"/>
			<path fill="#FF0000" stroke="#000000" stroke-width="0.452" stroke-miterlimit="10" d="M478.809,219.622
				c0,0,0.807,16.189,11.271,16.189c9.176,0,8.5-20.451,8.5-20.451l-9.477,2.186L478.809,219.622z"/>
			<path fill="#FFDD00" stroke="#000000" stroke-width="0.452" stroke-miterlimit="10" d="M498.508,215.324
				c0,0,0.778,16.182,11.242,16.182c9.872,0,6.905-21.437,6.905-21.437l-6.921,2.062L498.508,215.324z"/>
			<path fill="#FFDD00" stroke="#000000" stroke-width="0.452" stroke-miterlimit="10" d="M533.547,203.838
				c0,0-0.61,18.092,9.349,15.51c7.346-1.904,1.589-20.357,1.589-20.357l0,0L533.547,203.838z"/>
			<path fill="#FF0000" stroke="#000000" stroke-width="0.452" stroke-miterlimit="10" d="M516.638,210.069
				c0,0,0.027,15.769,10.492,15.769c10.463,0,6.485-22.044,6.485-22.044l-6.816,2.702L516.638,210.069z"/>
		</g>
	</g>
</g>
<g id="Layer_2">
	<g>
		<path fill="#5FBB46" stroke="#000000" stroke-width="0.4524" stroke-miterlimit="10" d="M627.703,328.54
			c-0.251-0.985-0.525-1.968-0.862-2.95c-0.195-0.569-0.411-1.138-0.674-1.711c-0.272-0.573-0.561-1.149-1.086-1.752l-1.677,1.718
			c0.294,0.219,0.635,0.632,0.932,1.062c0.303,0.439,0.586,0.916,0.857,1.406c0.539,0.984,1.028,2.023,1.491,3.076
			c0.221,0.51,0.437,1.021,0.646,1.537l0.037,0.019C627.482,330.144,627.595,329.341,627.703,328.54z"/>
		<path fill="#FF0000" stroke="#000000" stroke-width="0.4524" stroke-miterlimit="10" d="M628.321,331.229
			c0.448-0.729,0.917-1.445,1.413-2.137c1.805-2.518,3.959-4.796,6.48-6.316l-1.373-1.969c-1.333,1.053-2.481,2.271-3.488,3.564
			c-1.007,1.295-1.874,2.67-2.639,4.086c-0.052,0.097-0.101,0.195-0.152,0.293c-0.141,0.537-0.285,1.072-0.43,1.608
			C628.198,330.649,628.26,330.94,628.321,331.229z"/>
		<path fill="#5FBBCF" stroke="#000000" stroke-width="0.4524" stroke-miterlimit="10" d="M608.792,362.515l18.335-32.127
			c0,0,1.664-3.256,1.595,1.039c-0.069,4.297-1.233,35.797-1.233,35.797s-3.701-6.272-8.181-7.819
			C614.827,357.857,609.895,360.419,608.792,362.515z"/>
		<g>
			<path fill="#FFFFFF" d="M622.206,346.305c-0.747,0-1.466-0.171-2.138-0.508c-0.399-0.201-0.772-0.46-1.108-0.771l-0.132-0.123
				l4.604-7.995l0.173,0.054c0.275,0.084,0.52,0.181,0.746,0.295c1.141,0.571,1.991,1.553,2.394,2.764s0.309,2.507-0.264,3.647
				C625.665,345.294,624.027,346.305,622.206,346.305L622.206,346.305z"/>
			<path d="M623.538,337.177c0.242,0.074,0.479,0.164,0.711,0.281c2.248,1.125,3.156,3.86,2.029,6.107
				c-0.798,1.593-2.404,2.513-4.072,2.513c-0.686,0-1.382-0.155-2.036-0.483c-0.395-0.198-0.747-0.449-1.056-0.735L623.538,337.177
				 M623.326,336.639l-0.18,0.312l-4.424,7.683l-0.181,0.312l0.265,0.245c0.352,0.325,0.741,0.598,1.16,0.808
				c0.704,0.353,1.457,0.531,2.239,0.531c1.907,0,3.623-1.059,4.477-2.762c0.6-1.195,0.697-2.552,0.276-3.82
				c-0.422-1.269-1.312-2.297-2.508-2.895c-0.237-0.12-0.493-0.222-0.78-0.31L623.326,336.639L623.326,336.639z"/>
		</g>
		<g>
			<path fill="#FFDD00" d="M624.793,358.964c-0.78,0-1.534-0.174-2.241-0.515c-1.247-0.602-2.186-1.653-2.642-2.961
				s-0.376-2.715,0.226-3.962c0.859-1.781,2.694-2.932,4.674-2.932c0.782,0,1.54,0.173,2.25,0.516
				c0.338,0.165,0.666,0.372,0.976,0.617l0.091,0.072l-0.364,8.234l-0.096,0.063C626.809,358.664,625.815,358.964,624.793,358.964
				L624.793,358.964z"/>
			<path d="M624.81,348.82c0.723,0,1.457,0.159,2.151,0.494c0.34,0.165,0.65,0.366,0.934,0.591
				c-0.125,2.873-0.246,5.604-0.354,8.004c-0.812,0.537-1.77,0.828-2.748,0.828c-0.72,0-1.45-0.158-2.143-0.492
				c-2.467-1.189-3.501-4.154-2.311-6.62C621.194,349.854,622.965,348.82,624.81,348.82 M624.81,348.368
				c-2.066,0-3.98,1.201-4.877,3.061c-0.629,1.301-0.712,2.77-0.236,4.134c0.477,1.365,1.456,2.463,2.758,3.09
				c0.737,0.356,1.524,0.538,2.339,0.538c1.066,0,2.103-0.312,2.997-0.903l0.192-0.128l0.011-0.229
				c0.107-2.399,0.229-5.132,0.354-8.005l0.01-0.23l-0.181-0.144c-0.322-0.256-0.665-0.472-1.018-0.644
				C626.416,348.55,625.626,348.368,624.81,348.368L624.81,348.368z"/>
		</g>
		<g>
			<path fill="#FF0000" d="M614.021,354.693c-0.127,0-0.255-0.006-0.383-0.017l-0.352-0.03l4.146-7.27l0.205,0.287
				c0.959,1.341,1.099,3.088,0.366,4.562C617.249,353.747,615.723,354.693,614.021,354.693L614.021,354.693z"/>
			<path d="M617.453,347.796c0.877,1.227,1.065,2.885,0.348,4.329c-0.735,1.484-2.229,2.342-3.78,2.342
				c-0.121,0-0.242-0.005-0.363-0.016L617.453,347.796 M617.41,346.958l-0.35,0.613l-3.796,6.655l-0.351,0.614l0.704,0.062
				c0.134,0.011,0.269,0.017,0.402,0.017c1.789,0,3.393-0.993,4.186-2.593c0.77-1.548,0.622-3.385-0.385-4.793L617.41,346.958
				L617.41,346.958z"/>
		</g>
	</g>
	<g>
		<path fill="#5FBB46" stroke="#000000" stroke-width="0.4524" stroke-miterlimit="10" d="M183.938,306.373
			c0.2-0.996,0.426-1.991,0.712-2.989c0.166-0.578,0.353-1.157,0.586-1.742c0.244-0.586,0.501-1.177,0.996-1.805l1.762,1.631
			c-0.282,0.233-0.602,0.662-0.876,1.108c-0.281,0.453-0.541,0.944-0.785,1.448c-0.491,1.01-0.926,2.072-1.334,3.147
			c-0.195,0.519-0.386,1.042-0.569,1.567l-0.036,0.021C184.238,307.965,184.085,307.169,183.938,306.373z"/>
		<path fill="#FFDD00" stroke="#000000" stroke-width="0.4524" stroke-miterlimit="10" d="M183.694,307.687
			c-0.195-0.355-0.396-0.709-0.604-1.059c-0.261-0.817-0.515-1.636-0.768-2.456c-0.471-1.554-0.927-3.114-1.339-4.698
			c-0.205-0.793-0.399-1.592-0.567-2.41c-0.084-0.41-0.162-0.825-0.224-1.257c-0.058-0.438-0.115-0.867-0.092-1.422l2.388,0.235
			c-0.048,0.252-0.059,0.632-0.053,0.998c0.006,0.372,0.029,0.76,0.06,1.148c0.061,0.779,0.152,1.57,0.256,2.362
			c0.208,1.586,0.465,3.177,0.739,4.764c0.145,0.828,0.294,1.654,0.448,2.48c-0.031,0.158-0.063,0.314-0.094,0.472
			C183.791,307.126,183.744,307.406,183.694,307.687z"/>
		<path fill="#FF0000" stroke="#000000" stroke-width="0.4524" stroke-miterlimit="10" d="M183.456,309.093
			c-0.483-0.708-0.989-1.397-1.519-2.064c-1.93-2.423-4.196-4.589-6.791-5.979l1.272-2.037c1.383,0.984,2.592,2.142,3.663,3.383
			c1.071,1.244,2.006,2.572,2.842,3.948c0.057,0.094,0.11,0.189,0.166,0.284c0.168,0.53,0.34,1.058,0.512,1.585
			C183.552,308.506,183.503,308.799,183.456,309.093z"/>
		<path fill="#FF0000" stroke="#000000" stroke-width="0.4524" stroke-miterlimit="10" d="M204.542,339.349l-19.935-31.158
			c0,0-1.828-3.168-1.541,1.119s3.042,35.688,3.042,35.688s3.379-6.452,7.774-8.224
			C198.279,335.004,203.335,337.312,204.542,339.349z"/>
		<g>
			<path fill="#5FBBCF" d="M190.085,323.844c-1.721,0-3.315-0.929-4.161-2.425c-0.629-1.109-0.788-2.397-0.448-3.628
				c0.34-1.229,1.139-2.253,2.25-2.883c0.212-0.121,0.451-0.229,0.73-0.331l0.169-0.062l5.002,7.751l-0.125,0.13
				c-0.318,0.326-0.677,0.604-1.068,0.825C191.717,323.629,190.905,323.844,190.085,323.844z"/>
			<path d="M188.534,314.79l4.807,7.448c-0.294,0.302-0.634,0.569-1.018,0.787c-0.708,0.401-1.479,0.592-2.238,0.592
				c-1.586,0-3.127-0.83-3.964-2.31c-1.239-2.186-0.471-4.963,1.717-6.202C188.063,314.977,188.298,314.876,188.534,314.79
				 M188.719,314.241l-0.339,0.124c-0.291,0.105-0.542,0.22-0.766,0.348c-1.162,0.658-1.999,1.73-2.355,3.019s-0.19,2.637,0.469,3.8
				c0.886,1.565,2.556,2.539,4.357,2.539c0.859,0,1.71-0.226,2.461-0.651c0.41-0.232,0.786-0.523,1.119-0.865l0.251-0.258
				l-0.195-0.303l-4.807-7.448L188.719,314.241L188.719,314.241z"/>
		</g>
		<g>
			<path fill="#FFDD00" d="M188.12,336.619c-0.93,0-1.847-0.251-2.651-0.725l-0.1-0.059l-0.778-8.206l0.086-0.076
				c0.297-0.264,0.615-0.488,0.944-0.668c0.762-0.416,1.62-0.636,2.482-0.636c1.899,0,3.645,1.034,4.554,2.699
				c1.37,2.511,0.444,5.666-2.064,7.035C189.835,336.399,188.98,336.619,188.12,336.619z"/>
			<path d="M188.104,326.476c1.755,0,3.455,0.933,4.355,2.582c1.312,2.403,0.431,5.416-1.974,6.729
				c-0.752,0.412-1.564,0.606-2.365,0.606c-0.892,0-1.769-0.241-2.536-0.693c-0.229-2.394-0.487-5.115-0.757-7.977
				c0.271-0.24,0.57-0.457,0.902-0.639C186.484,326.672,187.3,326.476,188.104,326.476 M188.104,326.023L188.104,326.023
				c-0.901,0-1.797,0.229-2.591,0.663c-0.344,0.188-0.675,0.423-0.985,0.697l-0.172,0.152l0.021,0.229
				c0.27,2.862,0.528,5.584,0.757,7.978l0.022,0.229l0.198,0.117c0.839,0.495,1.796,0.756,2.766,0.756
				c0.898,0,1.791-0.229,2.583-0.662c2.617-1.428,3.583-4.722,2.153-7.342C191.907,327.103,190.086,326.023,188.104,326.023
				L188.104,326.023z"/>
		</g>
	</g>
	<g>
		<path fill="#F7941E" stroke="#000000" stroke-width="0.4524" stroke-miterlimit="10" d="M418.73,486.869
			c0.068-1.014,0.113-2.033,0.1-3.071c-0.01-0.602-0.036-1.21-0.108-1.836c-0.08-0.631-0.175-1.266-0.485-2.003l-2.13,1.111
			c0.211,0.297,0.407,0.795,0.555,1.3c0.15,0.51,0.272,1.051,0.376,1.603c0.207,1.102,0.348,2.241,0.459,3.388
			c0.052,0.552,0.096,1.106,0.136,1.662l0.03,0.028C418.022,488.324,418.377,487.598,418.73,486.869z"/>
		<path fill="#FFDD00" stroke="#000000" stroke-width="0.4524" stroke-miterlimit="10" d="M418.62,488.199
			c0.281-0.29,0.568-0.578,0.861-0.862c0.466-0.719,0.928-1.44,1.387-2.168c0.863-1.374,1.712-2.761,2.527-4.179
			c0.407-0.714,0.805-1.432,1.182-2.178c0.189-0.374,0.373-0.754,0.546-1.153c0.171-0.406,0.339-0.806,0.464-1.349l-2.367-0.399
			c-0.02,0.255-0.107,0.625-0.211,0.975c-0.104,0.358-0.228,0.726-0.359,1.093c-0.264,0.736-0.561,1.476-0.868,2.213
			c-0.616,1.476-1.284,2.942-1.968,4.403c-0.355,0.759-0.718,1.518-1.082,2.274c-0.012,0.16-0.021,0.319-0.034,0.478
			C418.674,487.634,418.646,487.916,418.62,488.199z"/>
		<path fill="#5FBBCF" stroke="#000000" stroke-width="0.4524" stroke-miterlimit="10" d="M418.479,489.619
			c0.653-0.556,1.323-1.088,2.007-1.591c2.5-1.832,5.257-3.325,8.127-3.985l-0.693-2.298c-1.592,0.586-3.062,1.385-4.424,2.3
			c-1.359,0.919-2.613,1.955-3.78,3.062c-0.079,0.075-0.156,0.152-0.235,0.229c-0.302,0.466-0.605,0.93-0.91,1.396
			C418.542,489.027,418.511,489.323,418.479,489.619z"/>
		<path fill="#FF0000" stroke="#000000" stroke-width="0.4524" stroke-miterlimit="10" d="M390.177,513.265l27.43-24.819
			c0,0,2.595-2.576,1.191,1.485c-1.403,4.059-12.32,33.632-12.32,33.632s-1.563-7.114-5.339-9.979
			C397.365,510.719,391.879,511.615,390.177,513.265z"/>
		<g>
			<path fill="#FFDD00" d="M409.465,502.275c-1.27,0-2.464-0.492-3.365-1.388c-0.319-0.316-0.592-0.678-0.812-1.075l-0.087-0.157
				l6.865-6.165l0.147,0.104c0.216,0.153,0.422,0.32,0.616,0.511c0.907,0.899,1.409,2.098,1.414,3.373
				c0.005,1.276-0.487,2.479-1.386,3.385C411.953,501.774,410.748,502.275,409.465,502.275L409.465,502.275z"/>
			<path d="M412.082,493.779c0.206,0.146,0.403,0.306,0.588,0.487c1.786,1.771,1.797,4.652,0.026,6.438
				c-0.89,0.896-2.061,1.346-3.231,1.346c-1.159,0-2.318-0.44-3.206-1.322c-0.312-0.31-0.571-0.657-0.774-1.024L412.082,493.779
				 M412.049,493.201l-0.27,0.241l-6.597,5.924l-0.268,0.241l0.174,0.314c0.23,0.416,0.517,0.796,0.852,1.127
				c0.943,0.937,2.194,1.453,3.524,1.453c1.344,0,2.605-0.525,3.553-1.479c0.941-0.949,1.457-2.208,1.452-3.544
				c-0.005-1.337-0.531-2.592-1.481-3.533c-0.19-0.187-0.401-0.361-0.645-0.535L412.049,493.201L412.049,493.201z"/>
		</g>
		<g>
			<path fill="#FFDD00" d="M408.107,515.132c-1.346,0-2.62-0.514-3.587-1.445c-0.998-0.96-1.562-2.251-1.588-3.636
				c-0.026-1.385,0.488-2.696,1.448-3.693c0.986-1.025,2.312-1.59,3.735-1.59c1.348,0,2.625,0.515,3.596,1.45
				c0.27,0.261,0.518,0.561,0.735,0.89l0.064,0.097l-2.909,7.711l-0.111,0.03C409.04,515.069,408.574,515.132,408.107,515.132
				L408.107,515.132z"/>
			<path d="M408.115,504.993c1.237,0,2.477,0.461,3.439,1.388c0.271,0.262,0.503,0.549,0.704,0.852
				c-1.013,2.691-1.979,5.248-2.828,7.495c-0.433,0.118-0.878,0.178-1.323,0.178c-1.235,0-2.47-0.457-3.431-1.382
				c-1.973-1.898-2.032-5.038-0.133-7.009C405.516,505.502,406.814,504.993,408.115,504.993 M408.115,504.541
				c-1.485,0-2.87,0.59-3.898,1.66c-1.002,1.04-1.539,2.408-1.512,3.854s0.616,2.793,1.658,3.795
				c1.009,0.973,2.339,1.508,3.744,1.508c0.487,0,0.973-0.064,1.443-0.193l0.222-0.061l0.082-0.216l0.37-0.98
				c0.755-1.999,1.589-4.208,2.458-6.516l0.082-0.216l-0.127-0.193c-0.227-0.343-0.485-0.655-0.767-0.927
				C410.854,505.079,409.521,504.541,408.115,504.541L408.115,504.541z"/>
		</g>
		<g>
			<path fill="#F7941E" d="M398.971,507.682c-0.605,0-1.193-0.12-1.747-0.356l-0.325-0.139l6.203-5.615l0.106,0.337
				c0.493,1.57,0.083,3.274-1.071,4.447C401.295,507.211,400.171,507.682,398.971,507.682L398.971,507.682z"/>
			<path d="M402.992,501.976c0.452,1.438,0.113,3.073-1.017,4.222c-0.825,0.838-1.914,1.258-3.004,1.258
				c-0.565,0-1.13-0.112-1.658-0.338L402.992,501.976 M403.212,501.166l-0.524,0.475l-5.679,5.142l-0.524,0.474l0.65,0.277
				c0.583,0.249,1.2,0.375,1.836,0.375c1.261,0,2.442-0.495,3.327-1.394c1.213-1.232,1.645-3.023,1.126-4.675L403.212,501.166
				L403.212,501.166z"/>
		</g>
	</g>
	<g>
		<path stroke="#000000" stroke-width="0.4524" stroke-miterlimit="10" d="M173.077,349.331c0,0,2.79-3.619,7.768-5.656
			c0,0,2.789,4.978,4.75,7.39c0,0-0.529-5.699,0.679-8.671c0.979-2.413,4.298-6.259,9.651-6.259c6.034,0,11.085,2.639,12.744,11.839
			c0,0,2.64-2.564,3.921-7.013c0,0,2.715,4.146,6.713,4.524c0,0-0.68,3.544-7.843,15.458c0,0,3.016,7.843,3.016,12.744
			s-1.81,7.54-1.81,7.54l-1.936,4.701h-22.346c0,0-3.997-3.494-3.394-12.015c0.526-7.45,1.206-10.181,1.206-10.181
			S177.073,354.986,173.077,349.331z"/>
		
			<ellipse transform="matrix(0.9747 -0.2234 0.2234 0.9747 -71.2639 52.1635)" fill="#FFFFFF" stroke="#000000" stroke-width="0.4524" stroke-miterlimit="10" cx="194.944" cy="341.087" rx="2.951" ry="3.839"/>
		<g>
			<g>
				<path fill="#A7A9AC" stroke="#000000" stroke-width="0.4524" stroke-miterlimit="10" d="M206.462,345.111
					c0,0-2.08-0.742-2.846-2.643c0,0-1.433,2.563-2.79,2.563s-1.835-0.88-2.338-1.433c-0.325-0.357-0.755-0.755-1.81-0.755
					c-1.056,0-3.093,0.379-2.488,3.997c0.603,3.62,1.433,5.505,1.056,9.729c-0.377,4.223-2.413,7.616-2.413,13.725
					c0,6.107,3.694,10.481,7.616,10.481c3.921,0,7.692-3.317,7.692-9.804c0-6.485-2.565-10.405-3.545-15.458
					c-0.764-3.937-0.887-6.172-0.903-6.971c-1.269,0.827-2.678,0.862-2.678,0.862s-0.151,2.262-0.566,3.017
					s-1.245,1.396-2.413-0.152c-1.168-1.545-1.207-6.295-1.207-6.295c-0.226,0-0.716,0.565-0.716,0.565s-0.15-1.094,0.527-1.47
					c0.679-0.378,1.093,0.149,1.093,0.149c-0.339,0.114-0.452,0.491-0.452,0.491s1.66,2.94,4.034,2.94
					C203.692,348.652,206.462,345.111,206.462,345.111z"/>
			</g>
		</g>
		<path fill="#FFFFFF" d="M202.846,339.973l-1.566,1.867c0,0-0.756,0.755-1.458,0.252c-0.704-0.502-1.106-1.257-1.358-2.464
			c-0.251-1.206-0.197-2.07,0.516-2.287c0.714-0.217,2.123,0.066,2.652,0.377C202.16,338.029,203.601,338.968,202.846,339.973z"/>
		<path fill="#FF0000" stroke="#000000" stroke-width="0.4524" stroke-miterlimit="10" d="M206.357,344.907
			c0,0,1.257-1.056,1.257-3.519c0-2.464-0.754-4.073-1.106-4.223c-0.352-0.151-0.754-0.303-1.659,0.502s-1.508,1.609-1.508,3.167
			C203.34,342.394,204.647,344.856,206.357,344.907z"/>
		<path fill="none" stroke="#A7A9AC" stroke-width="0.4524" stroke-miterlimit="10" d="M186.622,352.688
			c0,0,1.622,2.018,2.631,2.895"/>
		<path fill="none" stroke="#A7A9AC" stroke-width="0.4524" stroke-miterlimit="10" d="M208.919,349.759
			c0,0,0.662,6.707,2.028,10.27"/>
		<path fill="#F2D2BE" stroke="#000000" stroke-width="0.4524" stroke-miterlimit="10" d="M204.899,385.929
			c0,0,2.654-4.175,6.611-4.175c3.958,0,4.965,3.48,4.965,4.175H204.899z"/>
		<path fill="#F2D2BE" stroke="#000000" stroke-width="0.4524" stroke-miterlimit="10" d="M188.726,385.929
			c0,0,1.183-4.193,5.066-3.435c3.845,0.75,5.283,2.74,5.283,3.435H188.726z"/>
		<path fill="none" stroke="#000000" stroke-width="0.4524" stroke-miterlimit="10" d="M195.195,335.99c0,0,0.406-5.008,3.181-9.202
			"/>
		<path fill="none" stroke="#000000" stroke-width="0.4524" stroke-miterlimit="10" d="M193.165,336.735
			c0,0-1.489-2.369-0.473-10.15"/>
		<path fill="none" stroke="#000000" stroke-width="0.4524" stroke-miterlimit="10" d="M191.406,337.072c0,0-2.25-1.497-2.572-9.337
			"/>
		<path fill="#F2D2BE" stroke="#000000" stroke-width="0.4524" stroke-linejoin="round" stroke-miterlimit="10" d="M212.693,340.604
			c0,0,1.577-2.99-0.326-5.545s-2.012-2.12-1.794-2.828c0.217-0.706,2.004-1.888,3.316-0.325c1.158,1.379,1.141,1.903,1.141,1.903
			s1.929-4.951,3.48-5.764c0,0,2.393-1.467,2.61,0.599c0.216,2.065-1.903,4.512-1.903,4.512s2.229-2.648,3.153-3.425
			c1.018-0.854,3.044-1.087,3.208,0.217c0.163,1.306-0.817,2.557-3.425,5.927c0,0,1.875-1.059,3.097-0.979
			c1.223,0.08,1.664,0.265,1.85,1.197c0,1.087-0.652,2.064-1.521,2.555c-0.87,0.489-1.898,0.554-2.448,0.815
			c-0.549,0.262-1.521,0.707-2.065,1.739c-0.542,1.033-1.667,4.062-1.667,4.062S215.411,345.606,212.693,340.604z"/>
		<path fill="none" stroke="#000000" stroke-width="0.4524" stroke-linejoin="round" stroke-miterlimit="10" d="M215.048,333.602
			c0,0,0.233,1.726,0.204,2.427"/>
		<path fill="none" stroke="#000000" stroke-width="0.4524" stroke-linejoin="round" stroke-miterlimit="10" d="M215.135,334.509
			c0,0,3.391-0.468,2.515,4.004"/>
		<path fill="#F2D2BE" stroke="#000000" stroke-width="0.4524" stroke-linejoin="round" stroke-miterlimit="10" d="M180.605,343.471
			c0,0-2.202-3.306-1.388-5.366c0.813-2.061,2.106-3.641,1.197-4.551c-0.91-0.91-2.588-1.485-3.258,0.574
			c-0.67,2.062-1.005,2.636-1.725,3.258c0,0-0.315-3.766-1.197-5.317c-1.097-1.931-3.784-2.729-4.264-0.766s0.958,3.928,0.958,3.928
			s1.135,1.8,0.527,2.251c-0.786,0.586-1.438-0.287-1.438-0.287s-2.491-2.299-3.977-2.347c-1.484-0.048-3.306,1.341-2.155,2.586
			c1.15,1.246,5.461,3.258,5.461,3.258s-3.66-0.069-4.79,0.287c-0.604,0.191-0.765,0.454-1.246,1.534
			c-0.707,1.586,1.198,2.824,4.408,2.634c0,0,2.012-0.336,3.065,1.149s1.868,2.442,2.203,2.827
			C172.989,349.123,177.444,345.626,180.605,343.471z"/>
		<path fill="#F2D2BE" stroke="#000000" stroke-width="0.4524" stroke-linejoin="round" stroke-miterlimit="10" d="M175.432,337.386
			c0,0-2.712,2.127-0.004,5.541"/>
		<ellipse transform="matrix(0.9602 -0.2793 0.2793 0.9602 -86.9764 69.7336)" cx="201.18" cy="340.034" rx="0.795" ry="1.569"/>
		<ellipse transform="matrix(0.9601 -0.2797 0.2797 0.9601 -87.6268 68.4072)" cx="195.847" cy="341.198" rx="0.925" ry="1.826"/>
	</g>
	<g>
		<path stroke="#000000" stroke-width="0.4524" stroke-miterlimit="10" d="M420.389,523.629c0,0-2.79-3.619-7.768-5.656
			c0,0-2.789,4.978-4.75,7.39c0,0,0.529-5.699-0.679-8.671c-0.979-2.413-4.298-6.259-9.651-6.259
			c-6.034,0-11.085,2.639-12.744,11.839c0,0-2.64-2.564-3.921-7.013c0,0-2.715,4.146-6.713,4.524c0,0,0.68,3.544,7.843,15.458
			c0,0-3.016,7.843-3.016,12.744s1.81,7.54,1.81,7.54l1.936,4.701h22.346c0,0,3.997-3.494,3.394-12.015
			c-0.526-7.45-1.206-10.181-1.206-10.181S416.393,529.284,420.389,523.629z"/>
		
			<ellipse transform="matrix(-0.9747 -0.2234 0.2234 -0.9747 671.8495 1106.7661)" fill="#FFFFFF" stroke="#000000" stroke-width="0.4524" stroke-miterlimit="10" cx="398.521" cy="515.385" rx="2.951" ry="3.839"/>
		<g>
			<g>
				<path fill="#A7A9AC" stroke="#000000" stroke-width="0.4524" stroke-miterlimit="10" d="M387.003,519.409
					c0,0,2.08-0.742,2.846-2.643c0,0,1.433,2.563,2.79,2.563s1.835-0.88,2.338-1.433c0.325-0.357,0.755-0.755,1.81-0.755
					c1.056,0,3.093,0.379,2.488,3.997c-0.603,3.62-1.433,5.505-1.056,9.729c0.377,4.223,2.413,7.616,2.413,13.725
					c0,6.107-3.694,10.481-7.616,10.481c-3.921,0-7.692-3.317-7.692-9.804c0-6.485,2.565-10.405,3.545-15.458
					c0.764-3.937,0.887-6.172,0.903-6.971c1.269,0.827,2.678,0.862,2.678,0.862s0.151,2.262,0.566,3.017s1.245,1.396,2.413-0.152
					c1.168-1.545,1.207-6.295,1.207-6.295c0.226,0,0.716,0.565,0.716,0.565s0.15-1.094-0.527-1.47
					c-0.679-0.378-1.093,0.149-1.093,0.149c0.339,0.114,0.452,0.491,0.452,0.491s-1.66,2.94-4.034,2.94
					C389.773,522.95,387.003,519.409,387.003,519.409z"/>
			</g>
		</g>
		<path fill="#FFFFFF" d="M390.619,514.271l1.566,1.867c0,0,0.756,0.755,1.458,0.252c0.704-0.502,1.106-1.257,1.358-2.464
			c0.251-1.206,0.197-2.07-0.516-2.287c-0.714-0.217-2.123,0.066-2.652,0.377C391.306,512.327,389.864,513.266,390.619,514.271z"/>
		<path fill="#FF0000" stroke="#000000" stroke-width="0.4524" stroke-miterlimit="10" d="M387.108,519.205
			c0,0-1.257-1.056-1.257-3.519c0-2.464,0.754-4.073,1.106-4.223c0.352-0.151,0.754-0.303,1.659,0.502s1.508,1.609,1.508,3.167
			C390.125,516.691,388.818,519.154,387.108,519.205z"/>
		<path fill="none" stroke="#A7A9AC" stroke-width="0.4524" stroke-miterlimit="10" d="M406.844,526.986
			c0,0-1.622,2.018-2.631,2.895"/>
		<path fill="none" stroke="#A7A9AC" stroke-width="0.4524" stroke-miterlimit="10" d="M384.546,524.057
			c0,0-0.662,6.707-2.028,10.27"/>
		<path fill="#F2D2BE" stroke="#000000" stroke-width="0.4524" stroke-miterlimit="10" d="M388.566,560.227
			c0,0-2.654-4.175-6.611-4.175c-3.958,0-4.965,3.48-4.965,4.175H388.566z"/>
		<path fill="#F2D2BE" stroke="#000000" stroke-width="0.4524" stroke-miterlimit="10" d="M404.739,560.227
			c0,0-1.183-4.193-5.066-3.435c-3.845,0.75-5.283,2.74-5.283,3.435H404.739z"/>
		<path fill="none" stroke="#000000" stroke-width="0.4524" stroke-miterlimit="10" d="M398.271,510.288
			c0,0-0.406-5.008-3.181-9.202"/>
		<path fill="none" stroke="#000000" stroke-width="0.4524" stroke-miterlimit="10" d="M400.301,511.033
			c0,0,1.489-2.369,0.473-10.15"/>
		<path fill="none" stroke="#000000" stroke-width="0.4524" stroke-miterlimit="10" d="M402.06,511.37c0,0,2.25-1.497,2.572-9.337"
			/>
		<path fill="#F2D2BE" stroke="#000000" stroke-width="0.4524" stroke-linejoin="round" stroke-miterlimit="10" d="M380.772,514.902
			c0,0-1.577-2.99,0.326-5.545s2.012-2.12,1.794-2.828c-0.217-0.706-2.004-1.888-3.316-0.325c-1.158,1.379-1.141,1.903-1.141,1.903
			s-1.929-4.951-3.48-5.764c0,0-2.393-1.467-2.61,0.599c-0.216,2.065,1.903,4.512,1.903,4.512s-2.229-2.648-3.153-3.425
			c-1.018-0.854-3.044-1.087-3.208,0.217c-0.163,1.306,0.817,2.557,3.425,5.927c0,0-1.875-1.059-3.097-0.979
			c-1.223,0.08-1.664,0.265-1.85,1.197c0,1.087,0.652,2.064,1.521,2.555c0.87,0.489,1.898,0.554,2.448,0.815
			c0.549,0.262,1.521,0.707,2.065,1.739c0.542,1.033,1.667,4.062,1.667,4.062S378.055,519.904,380.772,514.902z"/>
		<path fill="none" stroke="#000000" stroke-width="0.4524" stroke-linejoin="round" stroke-miterlimit="10" d="M378.417,507.899
			c0,0-0.233,1.726-0.204,2.427"/>
		<path fill="none" stroke="#000000" stroke-width="0.4524" stroke-linejoin="round" stroke-miterlimit="10" d="M378.33,508.807
			c0,0-3.391-0.468-2.515,4.004"/>
		<path fill="#F2D2BE" stroke="#000000" stroke-width="0.4524" stroke-linejoin="round" stroke-miterlimit="10" d="M412.86,517.769
			c0,0,2.202-3.306,1.388-5.366c-0.813-2.061-2.106-3.641-1.197-4.551c0.91-0.91,2.588-1.485,3.258,0.574
			c0.67,2.062,1.005,2.636,1.725,3.258c0,0,0.315-3.766,1.197-5.317c1.097-1.931,3.784-2.729,4.264-0.766s-0.958,3.928-0.958,3.928
			s-1.135,1.8-0.527,2.251c0.786,0.586,1.438-0.287,1.438-0.287s2.491-2.299,3.977-2.347c1.484-0.048,3.306,1.341,2.155,2.586
			c-1.15,1.246-5.461,3.258-5.461,3.258s3.66-0.069,4.79,0.287c0.604,0.191,0.765,0.454,1.246,1.534
			c0.707,1.586-1.198,2.824-4.408,2.634c0,0-2.012-0.336-3.065,1.149s-1.868,2.442-2.203,2.827
			C420.477,523.421,416.021,519.924,412.86,517.769z"/>
		<path fill="#F2D2BE" stroke="#000000" stroke-width="0.4524" stroke-linejoin="round" stroke-miterlimit="10" d="M418.033,511.684
			c0,0,2.712,2.127,0.004,5.541"/>
		
			<ellipse transform="matrix(-0.9602 -0.2793 0.2793 -0.9602 625.2811 1117.7695)" cx="392.285" cy="514.332" rx="0.795" ry="1.569"/>
		<ellipse transform="matrix(-0.9601 -0.2797 0.2797 -0.9601 635.16 1121.6404)" cx="397.619" cy="515.496" rx="0.925" ry="1.826"/>
	</g>
	<g>
		<path stroke="#000000" stroke-width="0.4524" stroke-miterlimit="10" d="M640.021,371.726c0,0-2.79-3.619-7.768-5.656
			c0,0-2.789,4.978-4.75,7.39c0,0,0.529-5.699-0.679-8.671c-0.979-2.413-4.298-6.259-9.651-6.259
			c-6.034,0-11.085,2.639-12.744,11.839c0,0-2.64-2.564-3.921-7.013c0,0-2.715,4.146-6.713,4.524c0,0,0.68,3.544,7.843,15.458
			c0,0-3.016,7.843-3.016,12.744s1.81,7.54,1.81,7.54l1.936,4.701h22.346c0,0,3.997-3.494,3.394-12.015
			c-0.526-7.45-1.206-10.181-1.206-10.181S636.025,377.381,640.021,371.726z"/>
		
			<ellipse transform="matrix(-0.9747 -0.2234 0.2234 -0.9747 1139.4968 855.8577)" fill="#FFFFFF" stroke="#000000" stroke-width="0.4524" stroke-miterlimit="10" cx="618.154" cy="363.481" rx="2.951" ry="3.839"/>
		<g>
			<g>
				<path fill="#A7A9AC" stroke="#000000" stroke-width="0.4524" stroke-miterlimit="10" d="M606.636,367.506
					c0,0,2.08-0.742,2.846-2.643c0,0,1.433,2.563,2.79,2.563s1.835-0.88,2.338-1.433c0.325-0.357,0.755-0.755,1.81-0.755
					c1.056,0,3.093,0.379,2.488,3.997c-0.603,3.62-1.433,5.505-1.056,9.729c0.377,4.223,2.413,7.616,2.413,13.725
					c0,6.107-3.694,10.481-7.616,10.481c-3.921,0-7.692-3.317-7.692-9.804c0-6.485,2.565-10.405,3.545-15.458
					c0.764-3.937,0.887-6.172,0.903-6.971c1.269,0.827,2.678,0.862,2.678,0.862s0.151,2.262,0.566,3.017s1.245,1.396,2.413-0.152
					c1.168-1.545,1.207-6.295,1.207-6.295c0.226,0,0.716,0.565,0.716,0.565s0.15-1.094-0.527-1.47
					c-0.679-0.378-1.093,0.149-1.093,0.149c0.339,0.114,0.452,0.491,0.452,0.491s-1.66,2.94-4.034,2.94
					C609.406,371.047,606.636,367.506,606.636,367.506z"/>
			</g>
		</g>
		<path fill="#FFFFFF" d="M610.252,362.367l1.566,1.867c0,0,0.756,0.755,1.458,0.252c0.704-0.502,1.106-1.257,1.358-2.464
			c0.251-1.206,0.197-2.07-0.516-2.287c-0.714-0.217-2.123,0.066-2.652,0.377C610.938,360.424,609.497,361.362,610.252,362.367z"/>
		<path fill="#FF0000" stroke="#000000" stroke-width="0.4524" stroke-miterlimit="10" d="M606.741,367.302
			c0,0-1.257-1.056-1.257-3.519c0-2.464,0.754-4.073,1.106-4.223c0.352-0.151,0.754-0.303,1.659,0.502s1.508,1.609,1.508,3.167
			C609.758,364.788,608.451,367.251,606.741,367.302z"/>
		<path fill="none" stroke="#A7A9AC" stroke-width="0.4524" stroke-miterlimit="10" d="M626.477,375.083
			c0,0-1.622,2.018-2.631,2.895"/>
		<path fill="none" stroke="#A7A9AC" stroke-width="0.4524" stroke-miterlimit="10" d="M604.179,372.153
			c0,0-0.662,6.707-2.028,10.27"/>
		<path fill="#F2D2BE" stroke="#000000" stroke-width="0.4524" stroke-miterlimit="10" d="M608.199,408.323
			c0,0-2.654-4.175-6.611-4.175c-3.958,0-4.965,3.48-4.965,4.175H608.199z"/>
		<path fill="#F2D2BE" stroke="#000000" stroke-width="0.4524" stroke-miterlimit="10" d="M624.372,408.323
			c0,0-1.183-4.193-5.066-3.435c-3.845,0.75-5.283,2.74-5.283,3.435H624.372z"/>
		<path fill="none" stroke="#000000" stroke-width="0.4524" stroke-miterlimit="10" d="M617.903,358.385
			c0,0-0.406-5.008-3.181-9.202"/>
		<path fill="none" stroke="#000000" stroke-width="0.4524" stroke-miterlimit="10" d="M619.934,359.13c0,0,1.489-2.369,0.473-10.15
			"/>
		<path fill="none" stroke="#000000" stroke-width="0.4524" stroke-miterlimit="10" d="M621.692,359.467c0,0,2.25-1.497,2.572-9.337
			"/>
		<path fill="#F2D2BE" stroke="#000000" stroke-width="0.4524" stroke-linejoin="round" stroke-miterlimit="10" d="M600.405,362.999
			c0,0-1.577-2.99,0.326-5.545s2.012-2.12,1.794-2.828c-0.217-0.706-2.004-1.888-3.316-0.325c-1.158,1.379-1.141,1.903-1.141,1.903
			s-1.929-4.951-3.48-5.764c0,0-2.393-1.467-2.61,0.599c-0.216,2.065,1.903,4.512,1.903,4.512s-2.229-2.648-3.153-3.425
			c-1.018-0.854-3.044-1.087-3.208,0.217c-0.163,1.306,0.817,2.557,3.425,5.927c0,0-1.875-1.059-3.097-0.979
			c-1.223,0.08-1.664,0.265-1.85,1.197c0,1.087,0.652,2.064,1.521,2.555c0.87,0.489,1.898,0.554,2.448,0.815
			c0.549,0.262,1.521,0.707,2.065,1.739c0.542,1.033,1.667,4.062,1.667,4.062S597.688,368.001,600.405,362.999z"/>
		<path fill="none" stroke="#000000" stroke-width="0.4524" stroke-linejoin="round" stroke-miterlimit="10" d="M598.05,355.996
			c0,0-0.233,1.726-0.204,2.427"/>
		<path fill="none" stroke="#000000" stroke-width="0.4524" stroke-linejoin="round" stroke-miterlimit="10" d="M597.963,356.903
			c0,0-3.391-0.468-2.515,4.004"/>
		<path fill="#F2D2BE" stroke="#000000" stroke-width="0.4524" stroke-linejoin="round" stroke-miterlimit="10" d="M632.493,365.865
			c0,0,2.202-3.306,1.388-5.366c-0.813-2.061-2.106-3.641-1.197-4.551c0.91-0.91,2.588-1.485,3.258,0.574
			c0.67,2.062,1.005,2.636,1.725,3.258c0,0,0.315-3.766,1.197-5.317c1.097-1.931,3.784-2.729,4.264-0.766s-0.958,3.928-0.958,3.928
			s-1.135,1.8-0.527,2.251c0.786,0.586,1.438-0.287,1.438-0.287s2.491-2.299,3.977-2.347c1.484-0.048,3.306,1.341,2.155,2.586
			c-1.15,1.246-5.461,3.258-5.461,3.258s3.66-0.069,4.79,0.287c0.604,0.191,0.765,0.454,1.246,1.534
			c0.707,1.586-1.198,2.824-4.408,2.634c0,0-2.012-0.336-3.065,1.149s-1.868,2.442-2.203,2.827
			C640.109,371.518,635.654,368.021,632.493,365.865z"/>
		<path fill="#F2D2BE" stroke="#000000" stroke-width="0.4524" stroke-linejoin="round" stroke-miterlimit="10" d="M637.666,359.78
			c0,0,2.712,2.127,0.004,5.541"/>
		
			<ellipse transform="matrix(-0.9602 -0.2793 0.2793 -0.9602 1098.2363 881.3621)" cx="611.918" cy="362.428" rx="0.795" ry="1.569"/>
		
			<ellipse transform="matrix(-0.9601 -0.2797 0.2797 -0.9601 1108.1501 885.3375)" cx="617.251" cy="363.593" rx="0.925" ry="1.826"/>
	</g>
</g>
</svg>
