<?xml version="1.0" encoding="utf-8"?>
<!-- Generator: Adobe Illustrator 15.0.0, SVG Export Plug-In . SVG Version: 6.00 Build 0)  -->
<!DOCTYPE svg PUBLIC "-//W3C//DTD SVG 1.1//EN" "http://www.w3.org/Graphics/SVG/1.1/DTD/svg11.dtd">
<svg version="1.1" xmlns="http://www.w3.org/2000/svg" xmlns:xlink="http://www.w3.org/1999/xlink" x="0px" y="0px"
	 width="841.89px" height="595.28px" viewBox="0 0 841.89 595.28" enable-background="new 0 0 841.89 595.28" xml:space="preserve">
<g id="achtergrond">
	
		<line fill="none" stroke="#000000" stroke-width="0.452" stroke-miterlimit="10" x1="417.358" y1="79.586" x2="572.334" y2="286.947"/>
	<defs>
		<filter id="Adobe_OpacityMaskFilter" filterUnits="userSpaceOnUse" x="-0.092" y="190.133" width="841.982" height="405.147">
			<feColorMatrix  type="matrix" values="1 0 0 0 0  0 1 0 0 0  0 0 1 0 0  0 0 0 1 0"/>
		</filter>
	</defs>
	<mask maskUnits="userSpaceOnUse" x="-0.092" y="190.133" width="841.982" height="405.147" id="SVGID_1_">
		<g filter="url(#Adobe_OpacityMaskFilter)">
			<linearGradient id="SVGID_2_" gradientUnits="userSpaceOnUse" x1="421.6836" y1="595.2803" x2="421.6836" y2="158.8823">
				<stop  offset="0" style="stop-color:#FFFFFF"/>
				<stop  offset="0.3482" style="stop-color:#F9F9F9"/>
				<stop  offset="0.4908" style="stop-color:#F5F5F5"/>
				<stop  offset="0.5573" style="stop-color:#F1F1F1"/>
				<stop  offset="0.6227" style="stop-color:#E5E5E5"/>
				<stop  offset="0.6876" style="stop-color:#D1D1D1"/>
				<stop  offset="0.7523" style="stop-color:#B6B6B6"/>
				<stop  offset="0.8169" style="stop-color:#929292"/>
				<stop  offset="0.8814" style="stop-color:#666666"/>
				<stop  offset="0.9445" style="stop-color:#333333"/>
				<stop  offset="1" style="stop-color:#000000"/>
			</linearGradient>
			<rect x="0.601" y="158.882" fill="url(#SVGID_2_)" width="842.167" height="436.398"/>
		</g>
	</mask>
	
		<linearGradient id="SVGID_3_" gradientUnits="userSpaceOnUse" x1="210.5552" y1="402.1807" x2="615.7021" y2="402.1807" gradientTransform="matrix(0 1 -1 0 823.0791 -20.4219)">
		<stop  offset="0" style="stop-color:#99D647"/>
		<stop  offset="1" style="stop-color:#5FBB46"/>
	</linearGradient>
	<path mask="url(#SVGID_1_)" fill="url(#SVGID_3_)" d="M0.093,595.28l-0.186-405.147c0,0,66.044,17.044,196.064,14.615
		c174.621-3.263,259.965,17.792,417.609,35.489c119.678,13.435,228.309-9.859,228.309-9.859V595.28H0.093z"/>
	<defs>
		<filter id="Adobe_OpacityMaskFilter_1_" filterUnits="userSpaceOnUse" x="0" y="244.939" width="841.705" height="350.341">
			<feColorMatrix  type="matrix" values="1 0 0 0 0  0 1 0 0 0  0 0 1 0 0  0 0 0 1 0"/>
		</filter>
	</defs>
	<mask maskUnits="userSpaceOnUse" x="0" y="244.939" width="841.705" height="350.341" id="SVGID_4_">
		<g filter="url(#Adobe_OpacityMaskFilter_1_)">
			
				<linearGradient id="SVGID_5_" gradientUnits="userSpaceOnUse" x1="421.7305" y1="560.0938" x2="421.7304" y2="207.3237" gradientTransform="matrix(-1 0 0 1 841.8906 0)">
				<stop  offset="0" style="stop-color:#FFFFFF"/>
				<stop  offset="0.3482" style="stop-color:#F9F9F9"/>
				<stop  offset="0.4908" style="stop-color:#F5F5F5"/>
				<stop  offset="0.5573" style="stop-color:#F1F1F1"/>
				<stop  offset="0.6227" style="stop-color:#E5E5E5"/>
				<stop  offset="0.6876" style="stop-color:#D1D1D1"/>
				<stop  offset="0.7523" style="stop-color:#B6B6B6"/>
				<stop  offset="0.8169" style="stop-color:#929292"/>
				<stop  offset="0.8814" style="stop-color:#666666"/>
				<stop  offset="0.9445" style="stop-color:#333333"/>
				<stop  offset="1" style="stop-color:#000000"/>
			</linearGradient>
			<rect x="-0.878" y="207.324" fill="url(#SVGID_5_)" width="842.075" height="352.769"/>
		</g>
	</mask>
	
		<linearGradient id="SVGID_6_" gradientUnits="userSpaceOnUse" x1="265.3613" y1="402.041" x2="615.7021" y2="402.041" gradientTransform="matrix(0 1 1 0 18.8115 -20.4219)">
		<stop  offset="0" style="stop-color:#99D647"/>
		<stop  offset="1" style="stop-color:#5FBB46"/>
	</linearGradient>
	<path mask="url(#SVGID_4_)" fill="url(#SVGID_6_)" d="M841.705,595.28V277.279c0,0-323.776-57.377-612.95-19.281
		C109.628,273.692,0,265.118,0,265.118V595.28H841.705z"/>
	<ellipse fill="#5FBB46" cx="417.67" cy="326.834" rx="147.435" ry="20.862"/>
	<path fill="none" stroke="#CB3D17" stroke-miterlimit="10" d="M463.428,335.224c-14.404,0.665-29.784,1.024-45.758,1.024
		c-81.426,0-147.435-9.342-147.435-20.862c0-11.522,66.009-20.864,147.435-20.864c16.516,0,32.397,0.384,47.223,1.093"/>
	<path fill="none" stroke="#CB3D17" stroke-miterlimit="10" d="M471.59,327.335c-16.7,0.93-34.889,1.439-53.92,1.439
		c-81.426,0-147.435-9.342-147.435-20.862c0-11.522,66.009-20.864,147.435-20.864c16.239,0,31.865,0.372,46.477,1.058"/>
	<path fill="#FFDD00" stroke="#000000" stroke-width="0.452" stroke-miterlimit="10" d="M527.423,341.879
		c0,0,11.25-2.329,24.879-8.449s-24.879-93.483-24.879-93.483l-25.756-29.878l-15.334,28.878L527.423,341.879z"/>
	<path fill="#FFDD00" stroke="#000000" stroke-width="0.452" stroke-miterlimit="10" d="M464.709,194.666
		c0,0,3.291,37.889-4.209,69.251s-14.84,80.053,2.464,83.85c88.336,19.382,44.571,7.868,45.554-2.06s-32.949-126.107-32.949-126.107
		L464.709,194.666z"/>
	<linearGradient id="SVGID_7_" gradientUnits="userSpaceOnUse" x1="420.853" y1="154.4688" x2="420.853" y2="1.421085e-13">
		<stop  offset="0" style="stop-color:#FFFFFF"/>
		<stop  offset="1" style="stop-color:#5FBBCF"/>
	</linearGradient>
	<rect opacity="0.3" fill="url(#SVGID_7_)" width="841.705" height="154.469"/>
	<path fill="none" stroke="#000000" stroke-width="0.452" stroke-miterlimit="10" d="M420.945,305.97"/>
	<circle fill="#FFDD00" stroke="#000000" stroke-width="0.452" stroke-miterlimit="10" cx="417.635" cy="35.637" r="3.218"/>
	<path fill="#FFDD00" d="M549.08,196.723l-76.33-52.395c0,0-33.416-26.289-54.958-65.918
		c12.713,43.634,50.224,132.099,68.966,139.61C486.758,218.02,528.91,209.415,549.08,196.723z"/>
	<g>
		<path opacity="0.9" fill="#FF0000" stroke="#000000" stroke-width="0.452" stroke-miterlimit="10" d="M512.422,223.467
			c13.505,36.584,28.434,72.609,39.88,109.963c10.403-4.991,12.803-9.044,12.803-9.044l-34.043-96.714
			c-1.178-3.21-2.349-6.423-3.509-9.641C524.278,208.956,507.375,209.798,512.422,223.467z M463.263,182.127
			c12.839,55.193,31.95,108.534,45.255,163.581c7.146-1.185,13.414-2.481,18.905-3.829c-10.779-38.693-24.913-76.239-37.537-114.308
			C484.901,212.539,468.06,182.127,463.263,182.127z"/>
		<g>
			<path fill="#FF0000" stroke="#000000" stroke-width="0.452" stroke-miterlimit="10" d="M544.479,198.991
				c0,0-1.545,17.417,4.507,16.048c7.43-1.682,0.095-18.316,0.095-18.316l0,0L544.479,198.991z"/>
			<g>
				<path fill="#FF0000" stroke="#000000" stroke-width="0.452" stroke-miterlimit="10" d="M417.589,78.588
					c0.042,0.023,0.084,0.044,0.123,0.06c25.584,51.211,56.855,77.968,115.835,125.191c-5.421,2.231-11.063,4.312-16.909,6.23
					C462.459,156.513,437.021,125.579,417.589,78.588z"/>
				<path fill="#FF0000" stroke="#000000" stroke-width="0.452" stroke-miterlimit="10" d="M417.792,78.673
					c0.008,0.002,0.016,0.004,0.023,0.006c0.004,0.001,0.008,0.001,0.012,0.002c34.988,60.144,73.354,78.12,130.652,117.181
					c0.204,0.289,0.399,0.572,0.601,0.86c-1.511,0.77-3.046,1.526-4.602,2.269C485.202,156.94,449.254,135.232,417.792,78.673z"/>
				<path fill="#FF0000" stroke="#000000" stroke-width="0.452" stroke-miterlimit="10" d="M417.469,78.507
					c14.671,44.792,34.759,78.314,81.039,136.817c-6.384,1.621-12.958,3.057-19.699,4.298
					c-36.076-62.321-50.921-97.633-61.45-141.212C417.394,78.444,417.431,78.477,417.469,78.507z"/>
			</g>
			<path fill="#FF0000" stroke="#000000" stroke-width="0.452" stroke-miterlimit="10" d="M478.809,219.622
				c0,0,0.807,16.189,11.271,16.189c9.176,0,8.5-20.451,8.5-20.451l-9.477,2.186L478.809,219.622z"/>
			<path fill="#FFDD00" stroke="#000000" stroke-width="0.452" stroke-miterlimit="10" d="M498.508,215.324
				c0,0,0.778,16.182,11.242,16.182c9.872,0,6.905-21.437,6.905-21.437l-6.921,2.062L498.508,215.324z"/>
			<path fill="#FFDD00" stroke="#000000" stroke-width="0.452" stroke-miterlimit="10" d="M533.547,203.838
				c0,0-0.61,18.092,9.349,15.51c7.346-1.904,1.589-20.357,1.589-20.357l0,0L533.547,203.838z"/>
			<path fill="#FF0000" stroke="#000000" stroke-width="0.452" stroke-miterlimit="10" d="M516.638,210.069
				c0,0,0.027,15.769,10.492,15.769c10.463,0,6.485-22.044,6.485-22.044l-6.816,2.702L516.638,210.069z"/>
		</g>
	</g>
	<line fill="none" stroke="#000000" stroke-width="2" stroke-miterlimit="10" x1="417.635" y1="38.855" x2="417.635" y2="326.833"/>
	
		<line fill="none" stroke="#000000" stroke-width="0.452" stroke-miterlimit="10" x1="417.358" y1="79.586" x2="277.201" y2="279.263"/>
	
		<line fill="none" stroke="#000000" stroke-width="0.452" stroke-miterlimit="10" x1="417.358" y1="79.586" x2="307.667" y2="349.484"/>
	<g>
		<g>
			<g>
				<g>
					<path fill="none" stroke="#059F14" stroke-width="0.4455" stroke-miterlimit="10" d="M262.554,283.631
						c0,0,0.261-7.615-0.203-11.395l1.748,12.127c0,0,0.493-5.724,0.658-7.197l0.426,6.759c0,0,0.515-4.604,1.658-8.204
						c0,0-0.141,3.899,0.027,5.037c0,0,1.873-3.52,1.847-7.251c0,0,0.383,5.822,0.053,8.768c0,0,0.538-3.482,1.454-5.057
						c0,0-0.867,6.428-0.825,7.365c0,0,1.075-6.964,2.866-9.747c0,0-0.371,3.314-0.431,5.171l1.332-2.647
						c0,0-0.188,0.352-0.454,4.051c0,0,2.684-5.479,2.826-8.073c0,0-0.388,6.108-1.01,9.021"/>
				</g>
				<g>
					<path fill="none" stroke="#059F14" stroke-width="0.4455" stroke-miterlimit="10" d="M276.171,285.156
						c0,0,0.261-7.615-0.203-11.395l1.748,12.127c0,0,0.493-5.724,0.658-7.197l0.426,6.759c0,0,0.515-4.604,1.658-8.204
						c0,0-0.141,3.899,0.027,5.037c0,0,1.873-3.52,1.847-7.251c0,0,0.383,5.822,0.053,8.768c0,0,0.538-3.482,1.454-5.057
						c0,0-0.867,6.428-0.825,7.365c0,0,1.075-6.964,2.866-9.747c0,0-0.371,3.314-0.431,5.171l1.332-2.647
						c0,0-0.188,0.352-0.454,4.051c0,0,2.684-5.479,2.826-8.073c0,0-0.388,6.108-1.01,9.021"/>
				</g>
			</g>
		</g>
	</g>
	<g>
		<g>
			<g>
				<g>
					<path fill="none" stroke="#059F14" stroke-width="0.4455" stroke-miterlimit="10" d="M295.015,352.713
						c0,0,0.261-7.614-0.203-11.395l1.748,12.127c0,0,0.493-5.724,0.658-7.197l0.426,6.76c0,0,0.515-4.604,1.658-8.204
						c0,0-0.141,3.899,0.027,5.037c0,0,1.873-3.52,1.847-7.251c0,0,0.383,5.822,0.053,8.769c0,0,0.538-3.482,1.454-5.058
						c0,0-0.867,6.429-0.825,7.365c0,0,1.075-6.964,2.866-9.747c0,0-0.371,3.314-0.431,5.172l1.332-2.647
						c0,0-0.188,0.353-0.454,4.052c0,0,2.684-5.479,2.826-8.073c0,0-0.388,6.108-1.01,9.021"/>
				</g>
				<g>
					<path fill="none" stroke="#059F14" stroke-width="0.4455" stroke-miterlimit="10" d="M308.632,354.237
						c0,0,0.261-7.614-0.203-11.395l1.748,12.127c0,0,0.493-5.724,0.658-7.197l0.426,6.76c0,0,0.515-4.604,1.658-8.204
						c0,0-0.141,3.899,0.027,5.037c0,0,1.873-3.52,1.847-7.251c0,0,0.383,5.822,0.053,8.769c0,0,0.538-3.482,1.454-5.058
						c0,0-0.867,6.429-0.825,7.365c0,0,1.075-6.964,2.866-9.747c0,0-0.371,3.314-0.431,5.172l1.332-2.647
						c0,0-0.188,0.353-0.454,4.052c0,0,2.684-5.479,2.826-8.073c0,0-0.388,6.108-1.01,9.021"/>
				</g>
			</g>
		</g>
	</g>
	<path fill="#FF0000" stroke="#000000" stroke-width="0.452" stroke-miterlimit="10" d="M472.877,219.622
		c0,0,1.11,56.352-14.943,55.971c0,0-2.503,13.066-3.236,19.357c0,0,25.403,12.781,21.52-63.445L472.877,219.622z"/>
	<line fill="none" stroke="#9C4F17" stroke-width="2" stroke-miterlimit="10" x1="270.235" y1="326.834" x2="270.235" y2="297.78"/>
	<line fill="none" stroke="#9C4F17" stroke-width="2" stroke-miterlimit="10" x1="286.923" y1="336.193" x2="286.923" y2="307.14"/>
	
		<line fill="none" stroke="#9C4F17" stroke-width="2" stroke-miterlimit="10" x1="311.333" y1="312.308" x2="311.333" y2="283.253"/>
	
		<line fill="none" stroke="#9C4F17" stroke-width="2" stroke-miterlimit="10" x1="383.667" y1="306.892" x2="383.667" y2="277.837"/>
	
		<line fill="none" stroke="#9C4F17" stroke-width="2" stroke-miterlimit="10" x1="334.337" y1="344.135" x2="334.337" y2="315.081"/>
	
		<line fill="none" stroke="#9C4F17" stroke-width="2" stroke-miterlimit="10" x1="398.333" y1="347.696" x2="398.333" y2="318.643"/>
	<path fill="#FF0000" stroke="#000000" stroke-width="0.452" stroke-miterlimit="10" d="M452.344,318.643
		c0,0,32.795,10.501,28.226-72.098l4.055,13.748c0,0,19.067,76.851-6.243,90.912c-13.528-2.434-19.887-1.721-23.684-12.268
		C452.112,330.363,452.344,318.643,452.344,318.643z"/>
	
		<line fill="none" stroke="#000000" stroke-width="0.452" stroke-miterlimit="10" x1="534.357" y1="219.622" x2="626.334" y2="305.97"/>
	<g>
		<g>
			<g>
				<g>
					<path fill="none" stroke="#059F14" stroke-width="0.4875" stroke-miterlimit="10" d="M609.611,314.043
						c0,0-1.218-8.253-2.522-12.234l4.489,12.721c0,0-0.566-6.262-0.668-7.881l1.856,7.198c0,0-0.314-5.06,0.31-9.161
						c0,0,0.615,4.228,1.042,5.42c0,0,1.5-4.156,0.723-8.171c0,0,1.618,6.196,1.819,9.435c0,0-0.063-3.856,0.699-5.731
						c0,0,0.267,7.094,0.505,8.094c0,0-0.13-7.711,1.422-11.059c0,0,0.228,3.643,0.528,5.655l1.038-3.112
						c0,0-0.149,0.416,0.277,4.453c0,0,2.063-6.427,1.712-9.248c0,0,0.767,6.655,0.618,9.915"/>
				</g>
				<g>
					<path fill="none" stroke="#059F14" stroke-width="0.4875" stroke-miterlimit="10" d="M625.958,313.023
						c0,0-1.218-8.253-2.522-12.234l4.489,12.722c0,0-0.566-6.262-0.668-7.881l1.856,7.197c0,0-0.314-5.059,0.31-9.161
						c0,0,0.615,4.228,1.042,5.421c0,0,1.5-4.157,0.723-8.172c0,0,1.618,6.197,1.819,9.435c0,0-0.063-3.855,0.699-5.731
						c0,0,0.267,7.094,0.505,8.095c0,0-0.13-7.712,1.422-11.059c0,0,0.228,3.643,0.528,5.655l1.038-3.112
						c0,0-0.15,0.416,0.277,4.452c0,0,2.063-6.426,1.712-9.248c0,0,0.767,6.655,0.618,9.915"/>
				</g>
			</g>
		</g>
	</g>
	
		<line fill="none" stroke="#9C4F17" stroke-width="3" stroke-miterlimit="10" x1="407.104" y1="209.296" x2="431.666" y2="351.205"/>
	
		<line fill="none" stroke="#9C4F17" stroke-width="3" stroke-miterlimit="10" x1="426.999" y1="209.296" x2="454.697" y2="351.205"/>
	
		<line fill="none" stroke="#9C4F17" stroke-width="3" stroke-miterlimit="10" x1="409.396" y1="222.535" x2="429.572" y2="222.535"/>
	
		<line fill="none" stroke="#9C4F17" stroke-width="3" stroke-miterlimit="10" x1="413.247" y1="238.502" x2="433.424" y2="238.502"/>
	
		<line fill="none" stroke="#9C4F17" stroke-width="3" stroke-miterlimit="10" x1="414.869" y1="252.693" x2="435.046" y2="252.693"/>
	
		<line fill="none" stroke="#9C4F17" stroke-width="3" stroke-miterlimit="10" x1="417.792" y1="266.998" x2="437.969" y2="266.998"/>
	<line fill="none" stroke="#9C4F17" stroke-width="3" stroke-miterlimit="10" x1="419.483" y1="280.25" x2="439.66" y2="280.25"/>
	
		<line fill="none" stroke="#9C4F17" stroke-width="3" stroke-miterlimit="10" x1="421.578" y1="292.364" x2="441.755" y2="292.364"/>
	
		<line fill="none" stroke="#9C4F17" stroke-width="3" stroke-miterlimit="10" x1="424.335" y1="303.717" x2="444.512" y2="303.717"/>
	<line fill="none" stroke="#9C4F17" stroke-width="3" stroke-miterlimit="10" x1="426.88" y1="316.624" x2="447.057" y2="316.624"/>
	
		<line fill="none" stroke="#9C4F17" stroke-width="3" stroke-miterlimit="10" x1="429.571" y1="331.757" x2="449.748" y2="331.757"/>
	
		<line fill="none" stroke="#9C4F17" stroke-width="3" stroke-miterlimit="10" x1="431.665" y1="344.135" x2="451.842" y2="344.135"/>
	<g>
		<g>
			<path fill="#FF0000" d="M454.011,366.509c-3.975,0-7.362-2.974-7.882-6.917c-0.277-2.107,0.282-4.196,1.575-5.882
				c1.294-1.687,3.167-2.769,5.273-3.046c0.346-0.046,0.697-0.068,1.045-0.068c3.975,0,7.363,2.974,7.883,6.918
				c0.572,4.35-2.5,8.354-6.85,8.927C454.709,366.486,454.358,366.509,454.011,366.509L454.011,366.509z"/>
			<path d="M454.022,353.593c2.45,0,4.583,1.817,4.911,4.312c0.357,2.715-1.555,5.206-4.27,5.563
				c-0.22,0.029-0.438,0.043-0.653,0.043c-2.45,0-4.582-1.816-4.91-4.312c-0.357-2.715,1.554-5.207,4.269-5.564
				C453.589,353.606,453.807,353.593,454.022,353.593 M454.022,347.598c-0.478,0-0.961,0.032-1.436,0.095
				c-2.901,0.382-5.479,1.871-7.261,4.193c-1.78,2.321-2.551,5.196-2.169,8.097c0.715,5.43,5.381,9.524,10.854,9.524
				c0.478,0,0.961-0.032,1.436-0.095c2.9-0.382,5.479-1.87,7.26-4.191c1.782-2.321,2.553-5.197,2.171-8.098
				C464.162,351.692,459.496,347.598,454.022,347.598L454.022,347.598z"/>
		</g>
		<polyline fill="none" stroke="#000000" stroke-linejoin="round" stroke-miterlimit="10" points="417.729,357.295 411.159,370.454 
			403.713,356.174 		"/>
		<polygon fill="#1E82A4" stroke="#000000" stroke-width="0.452" stroke-miterlimit="10" points="440.64,357.979 457.037,330.845 
			392.229,339.168 403.712,357.462 		"/>
		<polyline fill="none" stroke="#000000" stroke-miterlimit="10" points="454.017,358.553 397.459,356.546 383.623,341.753 
			369.858,340.558 		"/>
		<g>
			<g>
				<g>
					<path fill="#1E47A4" d="M390.369,339.089c0.07,0.515,0.549,0.878,1.063,0.809l65.726-8.944
						c0.515-0.069,0.878-0.548,0.808-1.062l-0.06-0.439c-0.07-0.515-0.549-0.878-1.063-0.809l-65.726,8.946
						c-0.515,0.069-0.878,0.548-0.808,1.062L390.369,339.089z"/>
					<path fill="none" stroke="#000000" stroke-width="0.452" stroke-miterlimit="10" d="M390.369,339.089
						c0.07,0.515,0.549,0.878,1.063,0.809l65.726-8.944c0.515-0.069,0.878-0.548,0.808-1.062l-0.06-0.439
						c-0.07-0.515-0.549-0.878-1.063-0.809l-65.726,8.946c-0.515,0.069-0.878,0.548-0.808,1.062L390.369,339.089z"/>
				</g>
			</g>
		</g>
	</g>
</g>
<g id="mutsjes">
</g>
<g id="molltjes">
</g>
</svg>
