<?xml version="1.0" encoding="utf-8"?>
<!-- Generator: Adobe Illustrator 15.0.0, SVG Export Plug-In . SVG Version: 6.00 Build 0)  -->
<!DOCTYPE svg PUBLIC "-//W3C//DTD SVG 1.1//EN" "http://www.w3.org/Graphics/SVG/1.1/DTD/svg11.dtd">
<svg version="1.1" xmlns="http://www.w3.org/2000/svg" xmlns:xlink="http://www.w3.org/1999/xlink" x="0px" y="0px"
	 width="841.89px" height="595.28px" viewBox="0 0 841.89 595.28" enable-background="new 0 0 841.89 595.28" xml:space="preserve">
<g id="achtergrond">
	
		<line fill="none" stroke="#000000" stroke-width="0.452" stroke-miterlimit="10" x1="417.358" y1="79.586" x2="572.334" y2="286.947"/>
	<defs>
		<filter id="Adobe_OpacityMaskFilter" filterUnits="userSpaceOnUse" x="-0.092" y="190.133" width="841.982" height="405.147">
			<feColorMatrix  type="matrix" values="1 0 0 0 0  0 1 0 0 0  0 0 1 0 0  0 0 0 1 0"/>
		</filter>
	</defs>
	<mask maskUnits="userSpaceOnUse" x="-0.092" y="190.133" width="841.982" height="405.147" id="SVGID_1_">
		<g filter="url(#Adobe_OpacityMaskFilter)">
			<linearGradient id="SVGID_2_" gradientUnits="userSpaceOnUse" x1="421.6836" y1="595.2803" x2="421.6836" y2="158.8823">
				<stop  offset="0" style="stop-color:#FFFFFF"/>
				<stop  offset="0.3482" style="stop-color:#F9F9F9"/>
				<stop  offset="0.4908" style="stop-color:#F5F5F5"/>
				<stop  offset="0.5573" style="stop-color:#F1F1F1"/>
				<stop  offset="0.6227" style="stop-color:#E5E5E5"/>
				<stop  offset="0.6876" style="stop-color:#D1D1D1"/>
				<stop  offset="0.7523" style="stop-color:#B6B6B6"/>
				<stop  offset="0.8169" style="stop-color:#929292"/>
				<stop  offset="0.8814" style="stop-color:#666666"/>
				<stop  offset="0.9445" style="stop-color:#333333"/>
				<stop  offset="1" style="stop-color:#000000"/>
			</linearGradient>
			<rect x="0.601" y="158.882" fill="url(#SVGID_2_)" width="842.167" height="436.398"/>
		</g>
	</mask>
	
		<linearGradient id="SVGID_3_" gradientUnits="userSpaceOnUse" x1="210.5552" y1="402.1807" x2="615.7021" y2="402.1807" gradientTransform="matrix(0 1 -1 0 823.0791 -20.4219)">
		<stop  offset="0" style="stop-color:#99D647"/>
		<stop  offset="1" style="stop-color:#5FBB46"/>
	</linearGradient>
	<path mask="url(#SVGID_1_)" fill="url(#SVGID_3_)" d="M0.093,595.28l-0.186-405.147c0,0,66.044,17.044,196.064,14.615
		c174.621-3.263,259.965,17.792,417.609,35.489c119.678,13.435,228.309-9.859,228.309-9.859V595.28H0.093z"/>
	<defs>
		<filter id="Adobe_OpacityMaskFilter_1_" filterUnits="userSpaceOnUse" x="0" y="244.939" width="841.705" height="350.341">
			<feColorMatrix  type="matrix" values="1 0 0 0 0  0 1 0 0 0  0 0 1 0 0  0 0 0 1 0"/>
		</filter>
	</defs>
	<mask maskUnits="userSpaceOnUse" x="0" y="244.939" width="841.705" height="350.341" id="SVGID_4_">
		<g filter="url(#Adobe_OpacityMaskFilter_1_)">
			
				<linearGradient id="SVGID_5_" gradientUnits="userSpaceOnUse" x1="421.7305" y1="560.0938" x2="421.7304" y2="207.3237" gradientTransform="matrix(-1 0 0 1 841.8906 0)">
				<stop  offset="0" style="stop-color:#FFFFFF"/>
				<stop  offset="0.3482" style="stop-color:#F9F9F9"/>
				<stop  offset="0.4908" style="stop-color:#F5F5F5"/>
				<stop  offset="0.5573" style="stop-color:#F1F1F1"/>
				<stop  offset="0.6227" style="stop-color:#E5E5E5"/>
				<stop  offset="0.6876" style="stop-color:#D1D1D1"/>
				<stop  offset="0.7523" style="stop-color:#B6B6B6"/>
				<stop  offset="0.8169" style="stop-color:#929292"/>
				<stop  offset="0.8814" style="stop-color:#666666"/>
				<stop  offset="0.9445" style="stop-color:#333333"/>
				<stop  offset="1" style="stop-color:#000000"/>
			</linearGradient>
			<rect x="-0.878" y="207.324" fill="url(#SVGID_5_)" width="842.075" height="352.769"/>
		</g>
	</mask>
	
		<linearGradient id="SVGID_6_" gradientUnits="userSpaceOnUse" x1="265.3613" y1="402.041" x2="615.7021" y2="402.041" gradientTransform="matrix(0 1 1 0 18.8115 -20.4219)">
		<stop  offset="0" style="stop-color:#99D647"/>
		<stop  offset="1" style="stop-color:#5FBB46"/>
	</linearGradient>
	<path mask="url(#SVGID_4_)" fill="url(#SVGID_6_)" d="M841.705,595.28V277.279c0,0-323.776-57.377-612.95-19.281
		C109.628,273.692,0,265.118,0,265.118V595.28H841.705z"/>
	<ellipse fill="#5FBB46" cx="417.67" cy="326.834" rx="147.435" ry="20.862"/>
	<path fill="none" stroke="#CB3D17" stroke-miterlimit="10" d="M463.428,335.224c-14.404,0.665-29.784,1.024-45.758,1.024
		c-81.426,0-147.435-9.342-147.435-20.862c0-11.522,66.009-20.864,147.435-20.864c16.516,0,32.397,0.384,47.223,1.093"/>
	<path fill="none" stroke="#CB3D17" stroke-miterlimit="10" d="M471.59,327.335c-16.7,0.93-34.889,1.439-53.92,1.439
		c-81.426,0-147.435-9.342-147.435-20.862c0-11.522,66.009-20.864,147.435-20.864c16.239,0,31.865,0.372,46.477,1.058"/>
	<path fill="#FFDD00" stroke="#000000" stroke-width="0.452" stroke-miterlimit="10" d="M527.423,341.879
		c0,0,11.25-2.329,24.879-8.449s-24.879-93.483-24.879-93.483l-25.756-29.878l-15.334,28.878L527.423,341.879z"/>
	<path fill="#FFDD00" stroke="#000000" stroke-width="0.452" stroke-miterlimit="10" d="M464.709,194.666
		c0,0,3.291,37.889-4.209,69.251s-14.84,80.053,2.464,83.85c88.336,19.382,44.571,7.868,45.554-2.06s-32.949-126.107-32.949-126.107
		L464.709,194.666z"/>
	<linearGradient id="SVGID_7_" gradientUnits="userSpaceOnUse" x1="420.853" y1="154.4688" x2="420.853" y2="1.421085e-13">
		<stop  offset="0" style="stop-color:#FFFFFF"/>
		<stop  offset="1" style="stop-color:#5FBBCF"/>
	</linearGradient>
	<rect opacity="0.3" fill="url(#SVGID_7_)" width="841.705" height="154.469"/>
	<path fill="none" stroke="#000000" stroke-width="0.452" stroke-miterlimit="10" d="M420.945,305.97"/>
	<circle fill="#FFDD00" stroke="#000000" stroke-width="0.452" stroke-miterlimit="10" cx="417.635" cy="35.637" r="3.218"/>
	<path fill="#FFDD00" d="M549.08,196.723l-76.33-52.395c0,0-33.416-26.289-54.958-65.918
		c12.713,43.634,50.224,132.099,68.966,139.61C486.758,218.02,528.91,209.415,549.08,196.723z"/>
	<g>
		<path opacity="0.9" fill="#FF0000" stroke="#000000" stroke-width="0.452" stroke-miterlimit="10" d="M512.422,223.467
			c13.505,36.584,28.434,72.609,39.88,109.963c10.403-4.991,12.803-9.044,12.803-9.044l-34.043-96.714
			c-1.178-3.21-2.349-6.423-3.509-9.641C524.278,208.956,507.375,209.798,512.422,223.467z M463.263,182.127
			c12.839,55.193,31.95,108.534,45.255,163.581c7.146-1.185,13.414-2.481,18.905-3.829c-10.779-38.693-24.913-76.239-37.537-114.308
			C484.901,212.539,468.06,182.127,463.263,182.127z"/>
		<g>
			<path fill="#FF0000" stroke="#000000" stroke-width="0.452" stroke-miterlimit="10" d="M544.479,198.991
				c0,0-1.545,17.417,4.507,16.048c7.43-1.682,0.095-18.316,0.095-18.316l0,0L544.479,198.991z"/>
			<g>
				<path fill="#FF0000" stroke="#000000" stroke-width="0.452" stroke-miterlimit="10" d="M417.589,78.588
					c0.042,0.023,0.084,0.044,0.123,0.06c25.584,51.211,56.855,77.968,115.835,125.191c-5.421,2.231-11.063,4.312-16.909,6.23
					C462.459,156.513,437.021,125.579,417.589,78.588z"/>
				<path fill="#FF0000" stroke="#000000" stroke-width="0.452" stroke-miterlimit="10" d="M417.792,78.673
					c0.008,0.002,0.016,0.004,0.023,0.006c0.004,0.001,0.008,0.001,0.012,0.002c34.988,60.144,73.354,78.12,130.652,117.181
					c0.204,0.289,0.399,0.572,0.601,0.86c-1.511,0.77-3.046,1.526-4.602,2.269C485.202,156.94,449.254,135.232,417.792,78.673z"/>
				<path fill="#FF0000" stroke="#000000" stroke-width="0.452" stroke-miterlimit="10" d="M417.469,78.507
					c14.671,44.792,34.759,78.314,81.039,136.817c-6.384,1.621-12.958,3.057-19.699,4.298
					c-36.076-62.321-50.921-97.633-61.45-141.212C417.394,78.444,417.431,78.477,417.469,78.507z"/>
			</g>
			<path fill="#FF0000" stroke="#000000" stroke-width="0.452" stroke-miterlimit="10" d="M478.809,219.622
				c0,0,0.807,16.189,11.271,16.189c9.176,0,8.5-20.451,8.5-20.451l-9.477,2.186L478.809,219.622z"/>
			<path fill="#FFDD00" stroke="#000000" stroke-width="0.452" stroke-miterlimit="10" d="M498.508,215.324
				c0,0,0.778,16.182,11.242,16.182c9.872,0,6.905-21.437,6.905-21.437l-6.921,2.062L498.508,215.324z"/>
			<path fill="#FFDD00" stroke="#000000" stroke-width="0.452" stroke-miterlimit="10" d="M533.547,203.838
				c0,0-0.61,18.092,9.349,15.51c7.346-1.904,1.589-20.357,1.589-20.357l0,0L533.547,203.838z"/>
			<path fill="#FF0000" stroke="#000000" stroke-width="0.452" stroke-miterlimit="10" d="M516.638,210.069
				c0,0,0.027,15.769,10.492,15.769c10.463,0,6.485-22.044,6.485-22.044l-6.816,2.702L516.638,210.069z"/>
		</g>
	</g>
	<line fill="none" stroke="#000000" stroke-width="2" stroke-miterlimit="10" x1="417.635" y1="38.855" x2="417.635" y2="326.833"/>
	
		<line fill="none" stroke="#000000" stroke-width="0.452" stroke-miterlimit="10" x1="417.358" y1="79.586" x2="277.201" y2="279.263"/>
	
		<line fill="none" stroke="#000000" stroke-width="0.452" stroke-miterlimit="10" x1="417.358" y1="79.586" x2="307.667" y2="349.484"/>
	<g>
		<g>
			<g>
				<g>
					<path fill="none" stroke="#059F14" stroke-width="0.4455" stroke-miterlimit="10" d="M262.554,283.631
						c0,0,0.261-7.615-0.203-11.395l1.748,12.127c0,0,0.493-5.724,0.658-7.197l0.426,6.759c0,0,0.515-4.604,1.658-8.204
						c0,0-0.141,3.899,0.027,5.037c0,0,1.873-3.52,1.847-7.251c0,0,0.383,5.822,0.053,8.768c0,0,0.538-3.482,1.454-5.057
						c0,0-0.867,6.428-0.825,7.365c0,0,1.075-6.964,2.866-9.747c0,0-0.371,3.314-0.431,5.171l1.332-2.647
						c0,0-0.188,0.352-0.454,4.051c0,0,2.684-5.479,2.826-8.073c0,0-0.388,6.108-1.01,9.021"/>
				</g>
				<g>
					<path fill="none" stroke="#059F14" stroke-width="0.4455" stroke-miterlimit="10" d="M276.171,285.156
						c0,0,0.261-7.615-0.203-11.395l1.748,12.127c0,0,0.493-5.724,0.658-7.197l0.426,6.759c0,0,0.515-4.604,1.658-8.204
						c0,0-0.141,3.899,0.027,5.037c0,0,1.873-3.52,1.847-7.251c0,0,0.383,5.822,0.053,8.768c0,0,0.538-3.482,1.454-5.057
						c0,0-0.867,6.428-0.825,7.365c0,0,1.075-6.964,2.866-9.747c0,0-0.371,3.314-0.431,5.171l1.332-2.647
						c0,0-0.188,0.352-0.454,4.051c0,0,2.684-5.479,2.826-8.073c0,0-0.388,6.108-1.01,9.021"/>
				</g>
			</g>
		</g>
	</g>
	<g>
		<g>
			<g>
				<g>
					<path fill="none" stroke="#059F14" stroke-width="0.4455" stroke-miterlimit="10" d="M295.015,352.713
						c0,0,0.261-7.614-0.203-11.395l1.748,12.127c0,0,0.493-5.724,0.658-7.197l0.426,6.76c0,0,0.515-4.604,1.658-8.204
						c0,0-0.141,3.899,0.027,5.037c0,0,1.873-3.52,1.847-7.251c0,0,0.383,5.822,0.053,8.769c0,0,0.538-3.482,1.454-5.058
						c0,0-0.867,6.429-0.825,7.365c0,0,1.075-6.964,2.866-9.747c0,0-0.371,3.314-0.431,5.172l1.332-2.647
						c0,0-0.188,0.353-0.454,4.052c0,0,2.684-5.479,2.826-8.073c0,0-0.388,6.108-1.01,9.021"/>
				</g>
				<g>
					<path fill="none" stroke="#059F14" stroke-width="0.4455" stroke-miterlimit="10" d="M308.632,354.237
						c0,0,0.261-7.614-0.203-11.395l1.748,12.127c0,0,0.493-5.724,0.658-7.197l0.426,6.76c0,0,0.515-4.604,1.658-8.204
						c0,0-0.141,3.899,0.027,5.037c0,0,1.873-3.52,1.847-7.251c0,0,0.383,5.822,0.053,8.769c0,0,0.538-3.482,1.454-5.058
						c0,0-0.867,6.429-0.825,7.365c0,0,1.075-6.964,2.866-9.747c0,0-0.371,3.314-0.431,5.172l1.332-2.647
						c0,0-0.188,0.353-0.454,4.052c0,0,2.684-5.479,2.826-8.073c0,0-0.388,6.108-1.01,9.021"/>
				</g>
			</g>
		</g>
	</g>
	<path fill="#FF0000" stroke="#000000" stroke-width="0.452" stroke-miterlimit="10" d="M472.877,219.622
		c0,0,1.11,56.352-14.943,55.971c0,0-2.503,13.066-3.236,19.357c0,0,25.403,12.781,21.52-63.445L472.877,219.622z"/>
	<line fill="none" stroke="#9C4F17" stroke-width="2" stroke-miterlimit="10" x1="270.235" y1="326.834" x2="270.235" y2="297.78"/>
	<line fill="none" stroke="#9C4F17" stroke-width="2" stroke-miterlimit="10" x1="286.923" y1="336.193" x2="286.923" y2="307.14"/>
	
		<line fill="none" stroke="#9C4F17" stroke-width="2" stroke-miterlimit="10" x1="311.333" y1="312.308" x2="311.333" y2="283.253"/>
	
		<line fill="none" stroke="#9C4F17" stroke-width="2" stroke-miterlimit="10" x1="383.667" y1="306.892" x2="383.667" y2="277.837"/>
	
		<line fill="none" stroke="#9C4F17" stroke-width="2" stroke-miterlimit="10" x1="334.337" y1="344.135" x2="334.337" y2="315.081"/>
	
		<line fill="none" stroke="#9C4F17" stroke-width="2" stroke-miterlimit="10" x1="398.333" y1="347.696" x2="398.333" y2="318.643"/>
	<path fill="#FF0000" stroke="#000000" stroke-width="0.452" stroke-miterlimit="10" d="M452.344,318.643
		c0,0,32.795,10.501,28.226-72.098l4.055,13.748c0,0,19.067,76.851-6.243,90.912c-13.528-2.434-19.887-1.721-23.684-12.268
		C452.112,330.363,452.344,318.643,452.344,318.643z"/>
	
		<line fill="none" stroke="#000000" stroke-width="0.452" stroke-miterlimit="10" x1="534.357" y1="219.622" x2="626.334" y2="305.97"/>
	<g>
		<g>
			<g>
				<g>
					<path fill="none" stroke="#059F14" stroke-width="0.4875" stroke-miterlimit="10" d="M609.611,314.043
						c0,0-1.218-8.253-2.522-12.234l4.489,12.721c0,0-0.566-6.262-0.668-7.881l1.856,7.198c0,0-0.314-5.06,0.31-9.161
						c0,0,0.615,4.228,1.042,5.42c0,0,1.5-4.156,0.723-8.171c0,0,1.618,6.196,1.819,9.435c0,0-0.063-3.856,0.699-5.731
						c0,0,0.267,7.094,0.505,8.094c0,0-0.13-7.711,1.422-11.059c0,0,0.228,3.643,0.528,5.655l1.038-3.112
						c0,0-0.149,0.416,0.277,4.453c0,0,2.063-6.427,1.712-9.248c0,0,0.767,6.655,0.618,9.915"/>
				</g>
				<g>
					<path fill="none" stroke="#059F14" stroke-width="0.4875" stroke-miterlimit="10" d="M625.958,313.023
						c0,0-1.218-8.253-2.522-12.234l4.489,12.722c0,0-0.566-6.262-0.668-7.881l1.856,7.197c0,0-0.314-5.059,0.31-9.161
						c0,0,0.615,4.228,1.042,5.421c0,0,1.5-4.157,0.723-8.172c0,0,1.618,6.197,1.819,9.435c0,0-0.063-3.855,0.699-5.731
						c0,0,0.267,7.094,0.505,8.095c0,0-0.13-7.712,1.422-11.059c0,0,0.228,3.643,0.528,5.655l1.038-3.112
						c0,0-0.15,0.416,0.277,4.452c0,0,2.063-6.426,1.712-9.248c0,0,0.767,6.655,0.618,9.915"/>
				</g>
			</g>
		</g>
	</g>
	
		<line fill="none" stroke="#9C4F17" stroke-width="3" stroke-miterlimit="10" x1="407.104" y1="209.296" x2="431.666" y2="351.205"/>
	
		<line fill="none" stroke="#9C4F17" stroke-width="3" stroke-miterlimit="10" x1="426.999" y1="209.296" x2="454.697" y2="351.205"/>
	
		<line fill="none" stroke="#9C4F17" stroke-width="3" stroke-miterlimit="10" x1="409.396" y1="222.535" x2="429.572" y2="222.535"/>
	
		<line fill="none" stroke="#9C4F17" stroke-width="3" stroke-miterlimit="10" x1="413.247" y1="238.502" x2="433.424" y2="238.502"/>
	
		<line fill="none" stroke="#9C4F17" stroke-width="3" stroke-miterlimit="10" x1="414.869" y1="252.693" x2="435.046" y2="252.693"/>
	
		<line fill="none" stroke="#9C4F17" stroke-width="3" stroke-miterlimit="10" x1="417.792" y1="266.998" x2="437.969" y2="266.998"/>
	<line fill="none" stroke="#9C4F17" stroke-width="3" stroke-miterlimit="10" x1="419.483" y1="280.25" x2="439.66" y2="280.25"/>
	
		<line fill="none" stroke="#9C4F17" stroke-width="3" stroke-miterlimit="10" x1="421.578" y1="292.364" x2="441.755" y2="292.364"/>
	
		<line fill="none" stroke="#9C4F17" stroke-width="3" stroke-miterlimit="10" x1="424.335" y1="303.717" x2="444.512" y2="303.717"/>
	<line fill="none" stroke="#9C4F17" stroke-width="3" stroke-miterlimit="10" x1="426.88" y1="316.624" x2="447.057" y2="316.624"/>
	
		<line fill="none" stroke="#9C4F17" stroke-width="3" stroke-miterlimit="10" x1="429.571" y1="331.757" x2="449.748" y2="331.757"/>
	
		<line fill="none" stroke="#9C4F17" stroke-width="3" stroke-miterlimit="10" x1="431.665" y1="344.135" x2="451.842" y2="344.135"/>
	<g>
		<g>
			<path fill="#FF0000" d="M454.011,366.509c-3.975,0-7.362-2.974-7.882-6.917c-0.277-2.107,0.282-4.196,1.575-5.882
				c1.294-1.687,3.167-2.769,5.273-3.046c0.346-0.046,0.697-0.068,1.045-0.068c3.975,0,7.363,2.974,7.883,6.918
				c0.572,4.35-2.5,8.354-6.85,8.927C454.709,366.486,454.358,366.509,454.011,366.509L454.011,366.509z"/>
			<path d="M454.022,353.593c2.45,0,4.583,1.817,4.911,4.312c0.357,2.715-1.555,5.206-4.27,5.563
				c-0.22,0.029-0.438,0.043-0.653,0.043c-2.45,0-4.582-1.816-4.91-4.312c-0.357-2.715,1.554-5.207,4.269-5.564
				C453.589,353.606,453.807,353.593,454.022,353.593 M454.022,347.598c-0.478,0-0.961,0.032-1.436,0.095
				c-2.901,0.382-5.479,1.871-7.261,4.193c-1.78,2.321-2.551,5.196-2.169,8.097c0.715,5.43,5.381,9.524,10.854,9.524
				c0.478,0,0.961-0.032,1.436-0.095c2.9-0.382,5.479-1.87,7.26-4.191c1.782-2.321,2.553-5.197,2.171-8.098
				C464.162,351.692,459.496,347.598,454.022,347.598L454.022,347.598z"/>
		</g>
		<polyline fill="none" stroke="#000000" stroke-linejoin="round" stroke-miterlimit="10" points="417.729,357.295 411.159,370.454 
			403.713,356.174 		"/>
		<polygon fill="#1E82A4" stroke="#000000" stroke-width="0.452" stroke-miterlimit="10" points="440.64,357.979 457.037,330.845 
			392.229,339.168 403.712,357.462 		"/>
		<polyline fill="none" stroke="#000000" stroke-miterlimit="10" points="454.017,358.553 397.459,356.546 383.623,341.753 
			369.858,340.558 		"/>
		<g>
			<g>
				<g>
					<path fill="#1E47A4" d="M390.369,339.089c0.07,0.515,0.549,0.878,1.063,0.809l65.726-8.944
						c0.515-0.069,0.878-0.548,0.808-1.062l-0.06-0.439c-0.07-0.515-0.549-0.878-1.063-0.809l-65.726,8.946
						c-0.515,0.069-0.878,0.548-0.808,1.062L390.369,339.089z"/>
					<path fill="none" stroke="#000000" stroke-width="0.452" stroke-miterlimit="10" d="M390.369,339.089
						c0.07,0.515,0.549,0.878,1.063,0.809l65.726-8.944c0.515-0.069,0.878-0.548,0.808-1.062l-0.06-0.439
						c-0.07-0.515-0.549-0.878-1.063-0.809l-65.726,8.946c-0.515,0.069-0.878,0.548-0.808,1.062L390.369,339.089z"/>
				</g>
			</g>
		</g>
	</g>
</g>
<g id="mutsjes">
	<g>
		<path fill="#F7941E" stroke="#000000" stroke-width="0.4524" stroke-miterlimit="10" d="M129.939,406.471
			c-0.658-0.773-1.339-1.534-2.074-2.269c-0.427-0.424-0.87-0.84-1.36-1.237c-0.497-0.395-1.01-0.785-1.747-1.094l-0.747,2.281
			c0.36,0.066,0.848,0.287,1.306,0.543c0.464,0.26,0.93,0.562,1.389,0.885c0.919,0.645,1.815,1.361,2.694,2.103
			c0.424,0.358,0.844,0.724,1.26,1.095h0.041C130.45,408.006,130.196,407.237,129.939,406.471z"/>
		<path fill="#5FBB46" stroke="#000000" stroke-width="0.4524" stroke-miterlimit="10" d="M130.791,407.499
			c-0.002-0.405,0.002-0.812,0.014-1.219c-0.17-0.841-0.343-1.681-0.523-2.52c-0.342-1.587-0.702-3.173-1.111-4.757
			c-0.206-0.793-0.424-1.586-0.676-2.383c-0.126-0.4-0.26-0.799-0.416-1.207c-0.161-0.41-0.32-0.814-0.608-1.287l-1.975,1.366
			c0.165,0.195,0.36,0.522,0.531,0.845c0.177,0.33,0.343,0.68,0.507,1.033c0.325,0.712,0.629,1.447,0.925,2.189
			c0.588,1.487,1.136,3.002,1.667,4.524c0.276,0.793,0.547,1.587,0.814,2.386c0.104,0.121,0.209,0.242,0.312,0.365
			C130.434,407.055,130.61,407.277,130.791,407.499z"/>
		<path fill="#5FBBCF" stroke="#000000" stroke-width="0.4524" stroke-miterlimit="10" d="M131.682,408.612
			c0.08-0.854,0.186-1.702,0.325-2.542c0.509-3.055,1.438-6.05,3.03-8.527l-2.102-1.16c-0.729,1.531-1.225,3.131-1.558,4.736
			c-0.333,1.606-0.505,3.223-0.566,4.832c-0.003,0.109-0.003,0.219-0.007,0.329c0.11,0.544,0.217,1.089,0.323,1.634
			C131.314,408.146,131.499,408.379,131.682,408.612z"/>
		<path fill="#FFDD00" stroke="#000000" stroke-width="0.4524" stroke-miterlimit="10" d="M127.952,445.303l2.285-36.92
			c0,0,0.059-3.656,1.892,0.229c1.832,3.886,14.679,32.671,14.679,32.671s-6.087-3.998-10.79-3.41
			C131.315,438.461,128.019,442.936,127.952,445.303z"/>
		<g>
			<path fill="#F7941E" d="M130.699,425.324c-0.447-0.004-0.896-0.072-1.335-0.203l-0.173-0.051l0.607-9.206l0.178-0.028
				c0.252-0.041,0.505-0.066,0.769-0.066c1.307,0.011,2.502,0.518,3.397,1.426c0.895,0.91,1.382,2.113,1.371,3.391
				c-0.02,2.613-2.163,4.739-4.775,4.739L130.699,425.324z"/>
			<path d="M130.745,415.996c0.01,0,0.019,0,0.029,0c2.514,0.02,4.535,2.074,4.514,4.588c-0.02,2.501-2.053,4.515-4.55,4.515
				c-0.012,0-0.024,0-0.036,0c-0.442-0.004-0.868-0.073-1.272-0.194l0.583-8.846C130.251,416.021,130.493,415.996,130.745,415.996
				 M130.745,415.543c-0.253,0-0.517,0.023-0.805,0.069l-0.356,0.058l-0.024,0.359l-0.583,8.846l-0.023,0.36l0.346,0.103
				c0.459,0.138,0.93,0.209,1.398,0.213c2.777,0,5.021-2.227,5.042-4.964c0.011-1.336-0.499-2.597-1.437-3.55
				c-0.937-0.952-2.189-1.482-3.526-1.494h-0.001H130.745L130.745,415.543z"/>
		</g>
		<g>
			<path fill="#FF0000" d="M138.471,435.586c-2.837,0-5.163-2.31-5.184-5.148c-0.01-1.385,0.52-2.689,1.492-3.676
				s2.271-1.535,3.655-1.545c0.001,0,0.001,0,0.002,0c0.403,0,0.774,0.041,1.147,0.124l0.112,0.024l3.305,7.55l-0.058,0.099
				c-0.937,1.597-2.595,2.559-4.436,2.572H138.471z"/>
			<path d="M138.477,425.443c0.364,0,0.717,0.043,1.059,0.118c1.155,2.633,2.252,5.137,3.213,7.339
				c-0.855,1.458-2.429,2.445-4.242,2.459c-0.012,0-0.023,0-0.035,0c-2.721,0-4.938-2.197-4.958-4.923
				c-0.02-2.738,2.185-4.974,4.923-4.993C138.449,425.443,138.463,425.443,138.477,425.443 M138.477,424.99h-0.002h-0.043
				c-1.444,0.011-2.799,0.583-3.814,1.612s-1.568,2.392-1.558,3.837c0.022,2.963,2.45,5.373,5.411,5.373
				c1.96-0.016,3.691-1.018,4.667-2.684l0.117-0.199l-0.092-0.211c-0.961-2.201-2.058-4.706-3.213-7.339l-0.093-0.211l-0.225-0.05
				C139.243,425.033,138.854,424.99,138.477,424.99L138.477,424.99z"/>
		</g>
	</g>
</g>
<g id="molltjes">
	<path fill="#5FBB46" stroke="#000000" stroke-width="0.6903" stroke-miterlimit="10" d="M169.026,477.628
		c0,0,2.399-12.535,3.626-30.062c0,0-6.728,26.52-5.428,29.949L169.026,477.628z"/>
	<g>
		<g>
			<path stroke="#000000" stroke-width="0.4524" stroke-miterlimit="10" d="M115.321,449.746c0,0,2.79-3.62,7.767-5.656
				c0,0,2.79,4.979,4.751,7.39c0,0-0.529-5.698,0.679-8.671c0.979-2.413,4.298-6.259,9.651-6.259
				c6.035,0,11.085,2.639,12.744,11.839c0,0,2.64-2.563,3.921-7.013c0,0,2.715,4.147,6.712,4.523c0,0-0.679,3.545-7.843,15.459
				c0,0,3.017,7.844,3.017,12.744c0,4.901-1.811,7.54-1.811,7.54l-1.935,4.701h-22.347c0,0-3.996-3.494-3.393-12.016
				c0.527-7.449,1.206-10.18,1.206-10.18S119.317,455.401,115.321,449.746z"/>
			
				<ellipse transform="matrix(0.9747 -0.2235 0.2235 0.9747 -95.2028 41.8285)" fill="#FFFFFF" stroke="#000000" stroke-width="0.4524" stroke-miterlimit="10" cx="137.188" cy="441.501" rx="2.952" ry="3.84"/>
			<g>
				<g>
					<path fill="#A7A9AC" stroke="#000000" stroke-width="0.4524" stroke-miterlimit="10" d="M148.706,445.526
						c0,0-2.079-0.742-2.846-2.643c0,0-1.432,2.563-2.789,2.563s-1.835-0.88-2.338-1.433c-0.325-0.356-0.754-0.754-1.811-0.754
						c-1.055,0-3.092,0.377-2.488,3.997c0.604,3.619,1.434,5.505,1.057,9.728c-0.378,4.223-2.414,7.616-2.414,13.724
						c0,6.108,3.695,10.482,7.617,10.482c3.921,0,7.691-3.318,7.691-9.804s-2.564-10.405-3.545-15.458
						c-0.764-3.937-0.885-6.172-0.902-6.972c-1.269,0.829-2.679,0.863-2.679,0.863s-0.151,2.262-0.565,3.016
						c-0.414,0.755-1.244,1.396-2.413-0.15c-1.17-1.545-1.207-6.296-1.207-6.296c-0.227,0-0.716,0.565-0.716,0.565
						s-0.151-1.094,0.527-1.471s1.094,0.151,1.094,0.151c-0.34,0.113-0.453,0.489-0.453,0.489s1.659,2.942,4.034,2.942
						C145.937,449.068,148.706,445.526,148.706,445.526z"/>
				</g>
			</g>
			<path fill="#FFFFFF" d="M145.091,440.388l-1.566,1.868c0,0-0.756,0.754-1.459,0.251s-1.106-1.258-1.357-2.464
				c-0.252-1.206-0.197-2.07,0.516-2.286s2.123,0.065,2.652,0.377C144.403,438.444,145.845,439.383,145.091,440.388z"/>
			<path fill="#FF0000" stroke="#000000" stroke-width="0.4524" stroke-miterlimit="10" d="M148.601,445.321
				c0,0,1.257-1.055,1.257-3.518c0-2.464-0.754-4.072-1.105-4.224c-0.353-0.15-0.754-0.301-1.659,0.503
				c-0.904,0.804-1.508,1.609-1.508,3.166C145.585,442.809,146.892,445.271,148.601,445.321z"/>
			<path fill="none" stroke="#A7A9AC" stroke-width="0.4524" stroke-miterlimit="10" d="M128.866,453.104
				c0,0,1.622,2.017,2.631,2.894"/>
			<path fill="none" stroke="#A7A9AC" stroke-width="0.4524" stroke-miterlimit="10" d="M151.163,450.174
				c0,0,0.662,6.708,2.029,10.269"/>
			<path fill="#F2D2BE" stroke="#000000" stroke-width="0.4524" stroke-miterlimit="10" d="M147.143,486.344
				c0,0,2.655-4.175,6.612-4.175s4.964,3.48,4.964,4.175H147.143z"/>
			<path fill="#F2D2BE" stroke="#000000" stroke-width="0.4524" stroke-miterlimit="10" d="M130.972,486.344
				c0,0,1.182-4.193,5.066-3.435c3.844,0.751,5.281,2.74,5.281,3.435H130.972z"/>
			<path fill="none" stroke="#000000" stroke-width="0.4524" stroke-miterlimit="10" d="M137.438,436.405
				c0,0,0.406-5.007,3.181-9.202"/>
			<path fill="none" stroke="#000000" stroke-width="0.4524" stroke-miterlimit="10" d="M135.409,437.149
				c0,0-1.488-2.368-0.474-10.149"/>
			<path fill="none" stroke="#000000" stroke-width="0.4524" stroke-miterlimit="10" d="M133.649,437.487
				c0,0-2.248-1.496-2.57-9.337"/>
			<path fill="#F2D2BE" stroke="#000000" stroke-width="0.4524" stroke-linejoin="round" stroke-miterlimit="10" d="M154.938,441.02
				c0,0,1.577-2.99-0.327-5.545c-1.902-2.556-2.012-2.121-1.794-2.828c0.218-0.706,2.005-1.889,3.317-0.325
				c1.158,1.379,1.142,1.903,1.142,1.903s1.927-4.951,3.479-5.764c0,0,2.391-1.468,2.609,0.599c0.218,2.065-1.903,4.513-1.903,4.513
				s2.229-2.649,3.153-3.425c1.018-0.855,3.045-1.088,3.208,0.217c0.163,1.306-0.815,2.555-3.425,5.926c0,0,1.876-1.058,3.098-0.979
				c1.224,0.079,1.664,0.263,1.85,1.195c0,1.088-0.653,2.065-1.522,2.556c-0.87,0.489-1.897,0.555-2.446,0.815
				s-1.522,0.706-2.066,1.74c-0.544,1.032-1.667,4.062-1.667,4.062S157.655,446.022,154.938,441.02z"/>
			<path fill="none" stroke="#000000" stroke-width="0.4524" stroke-linejoin="round" stroke-miterlimit="10" d="M157.292,434.017
				c0,0,0.234,1.726,0.205,2.427"/>
			<path fill="none" stroke="#000000" stroke-width="0.4524" stroke-linejoin="round" stroke-miterlimit="10" d="M157.38,434.923
				c0,0,3.391-0.467,2.514,4.006"/>
			<path fill="#F2D2BE" stroke="#000000" stroke-width="0.4524" stroke-linejoin="round" stroke-miterlimit="10" d="
				M122.851,443.885c0,0-2.203-3.305-1.39-5.364c0.814-2.062,2.108-3.642,1.198-4.552s-2.588-1.485-3.258,0.574
				c-0.67,2.062-1.006,2.636-1.725,3.259c0,0-0.316-3.767-1.197-5.318c-1.098-1.93-3.785-2.729-4.264-0.766
				c-0.479,1.964,0.958,3.929,0.958,3.929s1.134,1.8,0.526,2.251c-0.785,0.584-1.438-0.287-1.438-0.287s-2.49-2.3-3.975-2.348
				c-1.485-0.048-3.307,1.342-2.156,2.586c1.15,1.246,5.461,3.259,5.461,3.259s-3.66-0.069-4.79,0.286
				c-0.604,0.191-0.765,0.454-1.245,1.534c-0.708,1.585,1.197,2.825,4.406,2.634c0,0,2.012-0.335,3.066,1.149
				c1.054,1.484,1.868,2.443,2.203,2.827C115.233,449.538,119.688,446.041,122.851,443.885z"/>
			<path fill="#F2D2BE" stroke="#000000" stroke-width="0.4524" stroke-linejoin="round" stroke-miterlimit="10" d="
				M117.677,437.802c0,0-2.713,2.126-0.005,5.539"/>
			
				<ellipse transform="matrix(0.9602 -0.2793 0.2793 0.9602 -117.3255 57.5975)" fill="#231F20" stroke="#000000" stroke-miterlimit="10" cx="143.425" cy="440.449" rx="0.795" ry="1.568"/>
			
				<ellipse transform="matrix(0.9601 -0.2797 0.2797 0.9601 -118.0226 56.2598)" fill="#231F20" stroke="#000000" stroke-miterlimit="10" cx="138.091" cy="441.614" rx="0.925" ry="1.825"/>
		</g>
		<g>
			<path fill="#B1BB46" stroke="#000000" stroke-width="0.542" stroke-miterlimit="10" d="M161.994,489.003
				c0,0,7.591-18.703,15.319-31.377c0,0-11.636,28.842-12.387,32.269L161.994,489.003z"/>
			<path fill="#5FBB46" stroke="#000000" stroke-width="0.542" stroke-miterlimit="10" d="M163.711,485.919
				c0,0,1.848-13.004,6.57-23.321c0,0-4.784,19.981-5.045,22.65L163.711,485.919z"/>
			<g>
				<g>
					<path fill="#752E14" stroke="#000000" stroke-width="0.542" stroke-miterlimit="10" d="M108.561,487.538
						c0.183-2.925,2.011-2.65,3.564-2.925c0.634-0.112,1.238,0.172,1.729,0.547c-0.22-0.564-0.344-1.418,0.647-1.827
						c1.023-0.42,1.925-0.167,2.424,0.054l0.576-0.698c-0.216-0.329-0.35-0.778-0.35-1.273c0-1.011,0.552-1.828,1.233-1.828
						c0.283,0,0.7,0.063,1.093,0.209c-0.006-0.563-0.022-1.244-0.316-1.671c-0.643-0.937,0.397-2.676,1.168-3.205
						c0.648-0.445,2.227-0.086,3.092,0.598l1.629-1.971c-0.083-0.246-0.13-0.521-0.13-0.814c0-1.011,0.552-1.828,1.232-1.828
						c0.682,0,2.148,0.361,2.148,1.371c0,0.015-0.003,0.031-0.004,0.047c0.178-0.146,0.382-0.229,0.598-0.229
						c0.66,0,2.052,0.341,2.14,1.278h0.044c-0.083-0.418-0.083-0.8,0.021-1.018c0.295-0.616,1.272-0.761,2.182-0.322
						c0.654,0.313,1.094,0.841,1.182,1.34h1.476c0.002-0.004,0.005-0.009,0.006-0.013c0.295-0.615,1.271-0.76,2.182-0.322
						c0.197,0.095,0.374,0.209,0.528,0.335h12.251c0.538-0.521,1.249-0.899,1.65-0.861c0.413,0.04,0.748,0.378,0.927,0.861h4.339
						l1.465,1.893c0.363-0.236,0.861-0.376,1.548-0.333c2.924,0.183,2.65,2.011,2.924,3.563c0.079,0.445-0.037,0.876-0.244,1.264
						c1.823,0.516,1.653,2.058,1.89,3.398c0,0.003,0,0.006,0.001,0.01l0.576,0.744c0.148-0.026,0.313-0.038,0.502-0.026
						c1.854,0.117,1.681,1.275,1.854,2.262c0.027,0.15,0.015,0.299-0.019,0.441c0.564,0.044,1.251,0.091,1.707-0.165
						c0.989-0.557,2.63,0.634,3.087,1.448c0.458,0.814-0.328,2.834-1.318,3.391c-0.16,0.09-0.376,0.056-0.623-0.067h-8.93
						c-0.278,0.927-1.488,1.92-2.089,1.92c-0.683,0-1.235-0.818-1.235-1.827c0-0.032,0.003-0.062,0.005-0.093h-8.99
						c-0.021,0.406-0.165,0.777-0.531,0.981c-0.882,0.492-2.709-0.17-3.041-0.765c-0.038-0.068-0.063-0.141-0.082-0.217h-5.705
						c-0.218,0.784-0.894,1.879-2.143,1.759c-1.019-0.099-2.149-0.981-2.722-1.759h-13.523c-0.847,1.021-2.403,1.743-2.968,1.518
						c-0.431-0.173-0.638-0.763-0.595-1.518h-8.143l0.978-1.185C111.162,490.045,108.388,490.308,108.561,487.538z"/>
					<path fill="#CB3D17" stroke="#000000" stroke-width="0.542" stroke-miterlimit="10" d="M158.838,478.321
						c0,0.899,0.805,2.073,1.739,2.073s1.692-0.73,1.692-1.632c0-0.899-0.727-1.174-1.662-1.174
						C159.673,477.589,158.838,477.42,158.838,478.321z"/>
					<path fill="#CB3D17" stroke="#000000" stroke-width="0.542" stroke-miterlimit="10" d="M109.406,491.06
						c0,0.606,0.479,1.396,1.034,1.396c0.558,0,1.009-0.492,1.009-1.099c0-0.605-0.432-0.79-0.989-0.79
						C109.901,490.566,109.406,490.453,109.406,491.06z"/>
					<path fill="#CB3D17" stroke="#000000" stroke-width="0.542" stroke-miterlimit="10" d="M150.854,477.132
						c-0.606,0.665-0.803,2.074-0.111,2.704c0.69,0.629,1.742,0.599,2.35-0.066c0.605-0.666,0.253-1.357-0.438-1.986
						C151.963,477.152,151.461,476.467,150.854,477.132z"/>
					<path fill="#CB3D17" stroke="#000000" stroke-width="0.542" stroke-miterlimit="10" d="M152.615,483.493
						c-0.296,0.325-0.393,1.012-0.055,1.319s0.851,0.294,1.146-0.031s0.124-0.663-0.213-0.97
						C153.156,483.504,152.911,483.169,152.615,483.493z"/>
					<path fill="#CB3D17" stroke="#000000" stroke-width="0.542" stroke-miterlimit="10" d="M147.968,476.691
						c-0.152-0.413-0.718-0.816-1.146-0.658c-0.428,0.156-0.652,0.618-0.502,1.031c0.152,0.412,0.531,0.416,0.959,0.259
						C147.708,477.166,148.119,477.104,147.968,476.691z"/>
					<path fill="#CB3D17" stroke="#000000" stroke-width="0.542" stroke-miterlimit="10" d="M144.201,474.906
						c0.021-0.439-0.342-1.03-0.797-1.053c-0.456-0.023-0.843,0.314-0.865,0.753c-0.022,0.44,0.326,0.591,0.781,0.613
						C143.776,475.243,144.179,475.346,144.201,474.906z"/>
					<path fill="#CB3D17" stroke="#000000" stroke-width="0.542" stroke-miterlimit="10" d="M164.665,481.725
						c-0.282-0.323-1.041-0.402-1.496-0.005c-0.454,0.397-0.595,0.98-0.312,1.304c0.282,0.323,0.722,0.112,1.177-0.284
						C164.489,482.341,164.947,482.047,164.665,481.725z"/>
					<path fill="#9C4F17" stroke="#000000" stroke-width="0.542" stroke-miterlimit="10" d="M159.657,483.661
						c-0.123-1.108-1.175-2.453-2.213-2.34c-1.039,0.114-1.782,1.105-1.659,2.214c0.121,1.109,0.967,1.356,2.005,1.242
						S159.777,484.771,159.657,483.661z"/>
					<path fill="#9C4F17" stroke="#000000" stroke-width="0.542" stroke-miterlimit="10" d="M164.483,487.109
						c-0.429-0.455-1.354-0.702-1.78-0.3c-0.427,0.4-0.425,1.096,0.004,1.551c0.43,0.455,0.892,0.28,1.317-0.12
						C164.451,487.839,164.913,487.565,164.483,487.109z"/>
					<path fill="#9C4F17" stroke="#000000" stroke-width="0.542" stroke-miterlimit="10" d="M164.753,494.016
						c0.011-0.626-0.479-1.448-1.065-1.458c-0.585-0.01-1.069,0.489-1.079,1.114c-0.012,0.626,0.44,0.823,1.026,0.833
						S164.742,494.642,164.753,494.016z"/>
					<path fill="#9C4F17" stroke="#000000" stroke-width="0.542" stroke-miterlimit="10" d="M129.677,489.704
						c-0.56-0.17-2.215,0.184-2.486,1.077c-0.272,0.894,1.062,1.53,1.622,1.701C129.374,492.652,132.908,490.688,129.677,489.704z"
						/>
					<path fill="#9C4F17" stroke="#000000" stroke-width="0.542" stroke-miterlimit="10" d="M134.248,489.475
						c1.086-0.362,2.583-2.021-0.646-3.003c-0.561-0.171-2.216,0.182-2.487,1.075c-0.272,0.893,1.077,1.485,1.623,1.7
						C133.465,489.535,133.524,489.716,134.248,489.475z"/>
					<path fill="#9C4F17" stroke="#000000" stroke-width="0.542" stroke-miterlimit="10" d="M123.612,485.375
						c-1.137-0.146-3.205,0.701-0.721,2.986c0.432,0.397,2.077,0.796,2.708,0.108c0.633-0.688-0.326-1.805-0.725-2.235
						C124.345,485.659,124.369,485.472,123.612,485.375z"/>
					<path fill="#9C4F17" stroke="#000000" stroke-width="0.542" stroke-miterlimit="10" d="M116.062,486.455
						c-0.407,0.019-1.218,0.468-0.453,1.172c0.133,0.122,0.71,0.167,0.984-0.131c0.275-0.299-0.006-0.659-0.124-0.797
						C116.312,486.518,116.333,486.444,116.062,486.455z"/>
					<path fill="#9C4F17" stroke="#000000" stroke-width="0.542" stroke-miterlimit="10" d="M124.504,475.481
						c-0.319,0.363-0.521,1.307,0.854,1.011c0.239-0.051,0.766-0.53,0.682-0.927c-0.086-0.396-0.698-0.342-0.94-0.311
						C124.776,475.296,124.717,475.239,124.504,475.481z"/>
					<path fill="#9C4F17" stroke="#000000" stroke-width="0.542" stroke-miterlimit="10" d="M145.864,480.651
						c-0.232,0.344-0.345,1.27,0.715,1.041c0.184-0.039,0.573-0.488,0.488-0.886c-0.086-0.396-0.562-0.372-0.749-0.352
						C146.069,480.481,146.02,480.422,145.864,480.651z"/>
					<path fill="#9C4F17" stroke="#000000" stroke-width="0.542" stroke-miterlimit="10" d="M147.674,482.474
						c-0.436-0.264-1.412-0.289-0.791,1.089c0.108,0.24,0.706,0.698,1.076,0.531c0.369-0.168,0.169-0.796,0.08-1.043
						C147.921,482.722,147.963,482.647,147.674,482.474z"/>
					<path fill="#9C4F17" stroke="#000000" stroke-width="0.542" stroke-miterlimit="10" d="M155.631,474.546
						c-0.56-0.207-1.914-0.063-1.292,1.315c0.107,0.24,0.858,0.628,1.402,0.383c0.545-0.246,0.376-0.889,0.297-1.14
						C155.932,474.77,156.002,474.684,155.631,474.546z"/>
					<path fill="#9C4F17" stroke="#000000" stroke-width="0.542" stroke-miterlimit="10" d="M157.382,477.682
						c-0.41-0.151-1.404-0.045-0.948,0.966c0.08,0.175,0.63,0.461,1.029,0.28c0.4-0.18,0.276-0.652,0.218-0.836
						C157.602,477.848,157.654,477.783,157.382,477.682z"/>
					<path fill="#CB3D17" stroke="#000000" stroke-width="0.542" stroke-miterlimit="10" d="M141.55,479.293
						c-0.491-0.498-1.53-0.752-1.996-0.291c-0.468,0.46-0.448,1.236,0.043,1.734s1.003,0.291,1.469-0.169
						C141.533,480.107,142.04,479.791,141.55,479.293z"/>
					<path fill="#CB3D17" stroke="#000000" stroke-width="0.542" stroke-miterlimit="10" d="M121.658,482.955
						c-0.435,0.138-0.865,0.739-0.709,1.229c0.155,0.491,0.634,0.775,1.067,0.639c0.435-0.138,0.444-0.562,0.289-1.052
						S122.092,482.817,121.658,482.955z"/>
				</g>
				<path fill="#5FBB46" stroke="#000000" stroke-width="0.542" stroke-miterlimit="10" d="M123.733,491.812
					c0,0-1.918-8.759-6.992-18.907c0,0,5.092,15.63,5.444,18.288L123.733,491.812z"/>
				<path fill="#5FBB46" stroke="#000000" stroke-width="0.542" stroke-miterlimit="10" d="M122.714,493.089
					c0,0-6.386-11.477-14.494-19.414c0,0,11.629,16.937,12.829,19.335L122.714,493.089z"/>
				<path fill="#B1BB46" stroke="#000000" stroke-width="0.542" stroke-miterlimit="10" d="M123.744,492.195
					c0,0-15.972-31.908-23.7-44.582c0,0,20.015,42.047,20.766,45.474L123.744,492.195z"/>
				<path fill="#9C4F17" stroke="#000000" stroke-width="0.542" stroke-miterlimit="10" d="M123.1,494.647
					c1.869-0.622,4.442-3.474-1.11-5.162c-0.963-0.294-3.809,0.312-4.276,1.848c-0.466,1.537,1.854,2.553,2.791,2.925
					C121.754,494.752,121.856,495.062,123.1,494.647z"/>
			</g>
		</g>
	</g>
</g>
</svg>
