<?xml version="1.0" encoding="utf-8"?>
<!-- Generator: Adobe Illustrator 15.0.0, SVG Export Plug-In . SVG Version: 6.00 Build 0)  -->
<!DOCTYPE svg PUBLIC "-//W3C//DTD SVG 1.1//EN" "http://www.w3.org/Graphics/SVG/1.1/DTD/svg11.dtd">
<svg version="1.1" xmlns="http://www.w3.org/2000/svg" xmlns:xlink="http://www.w3.org/1999/xlink" x="0px" y="0px"
	 width="841.89px" height="595.28px" viewBox="0 0 841.89 595.28" enable-background="new 0 0 841.89 595.28" xml:space="preserve">
<g id="achtergrond">
	
		<line fill="none" stroke="#000000" stroke-width="0.452" stroke-miterlimit="10" x1="417.358" y1="79.586" x2="572.334" y2="286.947"/>
	<defs>
		<filter id="Adobe_OpacityMaskFilter" filterUnits="userSpaceOnUse" x="-0.092" y="190.133" width="841.982" height="405.147">
			<feColorMatrix  type="matrix" values="1 0 0 0 0  0 1 0 0 0  0 0 1 0 0  0 0 0 1 0"/>
		</filter>
	</defs>
	<mask maskUnits="userSpaceOnUse" x="-0.092" y="190.133" width="841.982" height="405.147" id="SVGID_1_">
		<g filter="url(#Adobe_OpacityMaskFilter)">
			<linearGradient id="SVGID_2_" gradientUnits="userSpaceOnUse" x1="421.6836" y1="595.2803" x2="421.6836" y2="158.8823">
				<stop  offset="0" style="stop-color:#FFFFFF"/>
				<stop  offset="0.3482" style="stop-color:#F9F9F9"/>
				<stop  offset="0.4908" style="stop-color:#F5F5F5"/>
				<stop  offset="0.5573" style="stop-color:#F1F1F1"/>
				<stop  offset="0.6227" style="stop-color:#E5E5E5"/>
				<stop  offset="0.6876" style="stop-color:#D1D1D1"/>
				<stop  offset="0.7523" style="stop-color:#B6B6B6"/>
				<stop  offset="0.8169" style="stop-color:#929292"/>
				<stop  offset="0.8814" style="stop-color:#666666"/>
				<stop  offset="0.9445" style="stop-color:#333333"/>
				<stop  offset="1" style="stop-color:#000000"/>
			</linearGradient>
			<rect x="0.601" y="158.882" fill="url(#SVGID_2_)" width="842.167" height="436.398"/>
		</g>
	</mask>
	
		<linearGradient id="SVGID_3_" gradientUnits="userSpaceOnUse" x1="210.5552" y1="402.1807" x2="615.7021" y2="402.1807" gradientTransform="matrix(0 1 -1 0 823.0791 -20.4219)">
		<stop  offset="0" style="stop-color:#99D647"/>
		<stop  offset="1" style="stop-color:#5FBB46"/>
	</linearGradient>
	<path mask="url(#SVGID_1_)" fill="url(#SVGID_3_)" d="M0.093,595.28l-0.186-405.147c0,0,66.044,17.044,196.064,14.615
		c174.621-3.263,259.965,17.792,417.609,35.489c119.678,13.435,228.309-9.859,228.309-9.859V595.28H0.093z"/>
	<defs>
		<filter id="Adobe_OpacityMaskFilter_1_" filterUnits="userSpaceOnUse" x="0" y="244.939" width="841.705" height="350.341">
			<feColorMatrix  type="matrix" values="1 0 0 0 0  0 1 0 0 0  0 0 1 0 0  0 0 0 1 0"/>
		</filter>
	</defs>
	<mask maskUnits="userSpaceOnUse" x="0" y="244.939" width="841.705" height="350.341" id="SVGID_4_">
		<g filter="url(#Adobe_OpacityMaskFilter_1_)">
			
				<linearGradient id="SVGID_5_" gradientUnits="userSpaceOnUse" x1="421.7305" y1="560.0938" x2="421.7304" y2="207.3237" gradientTransform="matrix(-1 0 0 1 841.8906 0)">
				<stop  offset="0" style="stop-color:#FFFFFF"/>
				<stop  offset="0.3482" style="stop-color:#F9F9F9"/>
				<stop  offset="0.4908" style="stop-color:#F5F5F5"/>
				<stop  offset="0.5573" style="stop-color:#F1F1F1"/>
				<stop  offset="0.6227" style="stop-color:#E5E5E5"/>
				<stop  offset="0.6876" style="stop-color:#D1D1D1"/>
				<stop  offset="0.7523" style="stop-color:#B6B6B6"/>
				<stop  offset="0.8169" style="stop-color:#929292"/>
				<stop  offset="0.8814" style="stop-color:#666666"/>
				<stop  offset="0.9445" style="stop-color:#333333"/>
				<stop  offset="1" style="stop-color:#000000"/>
			</linearGradient>
			<rect x="-0.878" y="207.324" fill="url(#SVGID_5_)" width="842.075" height="352.769"/>
		</g>
	</mask>
	
		<linearGradient id="SVGID_6_" gradientUnits="userSpaceOnUse" x1="265.3613" y1="402.041" x2="615.7021" y2="402.041" gradientTransform="matrix(0 1 1 0 18.8115 -20.4219)">
		<stop  offset="0" style="stop-color:#99D647"/>
		<stop  offset="1" style="stop-color:#5FBB46"/>
	</linearGradient>
	<path mask="url(#SVGID_4_)" fill="url(#SVGID_6_)" d="M841.705,595.28V277.279c0,0-323.776-57.377-612.95-19.281
		C109.628,273.692,0,265.118,0,265.118V595.28H841.705z"/>
	<ellipse fill="#5FBB46" cx="417.67" cy="326.834" rx="147.435" ry="20.862"/>
	<path fill="none" stroke="#CB3D17" stroke-miterlimit="10" d="M463.428,335.224c-14.404,0.665-29.784,1.024-45.758,1.024
		c-81.426,0-147.435-9.342-147.435-20.862c0-11.522,66.009-20.864,147.435-20.864c16.516,0,32.397,0.384,47.223,1.093"/>
	<path fill="none" stroke="#CB3D17" stroke-miterlimit="10" d="M471.59,327.335c-16.7,0.93-34.889,1.439-53.92,1.439
		c-81.426,0-147.435-9.342-147.435-20.862c0-11.522,66.009-20.864,147.435-20.864c16.239,0,31.865,0.372,46.477,1.058"/>
	<path fill="#FFDD00" stroke="#000000" stroke-width="0.452" stroke-miterlimit="10" d="M527.423,341.879
		c0,0,11.25-2.329,24.879-8.449s-24.879-93.483-24.879-93.483l-25.756-29.878l-15.334,28.878L527.423,341.879z"/>
	<path fill="#FFDD00" stroke="#000000" stroke-width="0.452" stroke-miterlimit="10" d="M464.709,194.666
		c0,0,3.291,37.889-4.209,69.251s-14.84,80.053,2.464,83.85c88.336,19.382,44.571,7.868,45.554-2.06s-32.949-126.107-32.949-126.107
		L464.709,194.666z"/>
	<linearGradient id="SVGID_7_" gradientUnits="userSpaceOnUse" x1="420.853" y1="154.4688" x2="420.853" y2="1.421085e-13">
		<stop  offset="0" style="stop-color:#FFFFFF"/>
		<stop  offset="1" style="stop-color:#5FBBCF"/>
	</linearGradient>
	<rect opacity="0.3" fill="url(#SVGID_7_)" width="841.705" height="154.469"/>
	<path fill="none" stroke="#000000" stroke-width="0.452" stroke-miterlimit="10" d="M420.945,305.97"/>
	<circle fill="#FFDD00" stroke="#000000" stroke-width="0.452" stroke-miterlimit="10" cx="417.635" cy="35.637" r="3.218"/>
	<path fill="#FFDD00" d="M549.08,196.723l-76.33-52.395c0,0-33.416-26.289-54.958-65.918
		c12.713,43.634,50.224,132.099,68.966,139.61C486.758,218.02,528.91,209.415,549.08,196.723z"/>
	<g>
		<path opacity="0.9" fill="#FF0000" stroke="#000000" stroke-width="0.452" stroke-miterlimit="10" d="M512.422,223.467
			c13.505,36.584,28.434,72.609,39.88,109.963c10.403-4.991,12.803-9.044,12.803-9.044l-34.043-96.714
			c-1.178-3.21-2.349-6.423-3.509-9.641C524.278,208.956,507.375,209.798,512.422,223.467z M463.263,182.127
			c12.839,55.193,31.95,108.534,45.255,163.581c7.146-1.185,13.414-2.481,18.905-3.829c-10.779-38.693-24.913-76.239-37.537-114.308
			C484.901,212.539,468.06,182.127,463.263,182.127z"/>
		<g>
			<path fill="#FF0000" stroke="#000000" stroke-width="0.452" stroke-miterlimit="10" d="M544.479,198.991
				c0,0-1.545,17.417,4.507,16.048c7.43-1.682,0.095-18.316,0.095-18.316l0,0L544.479,198.991z"/>
			<g>
				<path fill="#FF0000" stroke="#000000" stroke-width="0.452" stroke-miterlimit="10" d="M417.589,78.588
					c0.042,0.023,0.084,0.044,0.123,0.06c25.584,51.211,56.855,77.968,115.835,125.191c-5.421,2.231-11.063,4.312-16.909,6.23
					C462.459,156.513,437.021,125.579,417.589,78.588z"/>
				<path fill="#FF0000" stroke="#000000" stroke-width="0.452" stroke-miterlimit="10" d="M417.792,78.673
					c0.008,0.002,0.016,0.004,0.023,0.006c0.004,0.001,0.008,0.001,0.012,0.002c34.988,60.144,73.354,78.12,130.652,117.181
					c0.204,0.289,0.399,0.572,0.601,0.86c-1.511,0.77-3.046,1.526-4.602,2.269C485.202,156.94,449.254,135.232,417.792,78.673z"/>
				<path fill="#FF0000" stroke="#000000" stroke-width="0.452" stroke-miterlimit="10" d="M417.469,78.507
					c14.671,44.792,34.759,78.314,81.039,136.817c-6.384,1.621-12.958,3.057-19.699,4.298
					c-36.076-62.321-50.921-97.633-61.45-141.212C417.394,78.444,417.431,78.477,417.469,78.507z"/>
			</g>
			<path fill="#FF0000" stroke="#000000" stroke-width="0.452" stroke-miterlimit="10" d="M478.809,219.622
				c0,0,0.807,16.189,11.271,16.189c9.176,0,8.5-20.451,8.5-20.451l-9.477,2.186L478.809,219.622z"/>
			<path fill="#FFDD00" stroke="#000000" stroke-width="0.452" stroke-miterlimit="10" d="M498.508,215.324
				c0,0,0.778,16.182,11.242,16.182c9.872,0,6.905-21.437,6.905-21.437l-6.921,2.062L498.508,215.324z"/>
			<path fill="#FFDD00" stroke="#000000" stroke-width="0.452" stroke-miterlimit="10" d="M533.547,203.838
				c0,0-0.61,18.092,9.349,15.51c7.346-1.904,1.589-20.357,1.589-20.357l0,0L533.547,203.838z"/>
			<path fill="#FF0000" stroke="#000000" stroke-width="0.452" stroke-miterlimit="10" d="M516.638,210.069
				c0,0,0.027,15.769,10.492,15.769c10.463,0,6.485-22.044,6.485-22.044l-6.816,2.702L516.638,210.069z"/>
		</g>
	</g>
	<line fill="none" stroke="#000000" stroke-width="2" stroke-miterlimit="10" x1="417.635" y1="38.855" x2="417.635" y2="326.833"/>
	
		<line fill="none" stroke="#000000" stroke-width="0.452" stroke-miterlimit="10" x1="417.358" y1="79.586" x2="277.201" y2="279.263"/>
	
		<line fill="none" stroke="#000000" stroke-width="0.452" stroke-miterlimit="10" x1="417.358" y1="79.586" x2="307.667" y2="349.484"/>
	<g>
		<g>
			<g>
				<g>
					<path fill="none" stroke="#059F14" stroke-width="0.4455" stroke-miterlimit="10" d="M262.554,283.631
						c0,0,0.261-7.615-0.203-11.395l1.748,12.127c0,0,0.493-5.724,0.658-7.197l0.426,6.759c0,0,0.515-4.604,1.658-8.204
						c0,0-0.141,3.899,0.027,5.037c0,0,1.873-3.52,1.847-7.251c0,0,0.383,5.822,0.053,8.768c0,0,0.538-3.482,1.454-5.057
						c0,0-0.867,6.428-0.825,7.365c0,0,1.075-6.964,2.866-9.747c0,0-0.371,3.314-0.431,5.171l1.332-2.647
						c0,0-0.188,0.352-0.454,4.051c0,0,2.684-5.479,2.826-8.073c0,0-0.388,6.108-1.01,9.021"/>
				</g>
				<g>
					<path fill="none" stroke="#059F14" stroke-width="0.4455" stroke-miterlimit="10" d="M276.171,285.156
						c0,0,0.261-7.615-0.203-11.395l1.748,12.127c0,0,0.493-5.724,0.658-7.197l0.426,6.759c0,0,0.515-4.604,1.658-8.204
						c0,0-0.141,3.899,0.027,5.037c0,0,1.873-3.52,1.847-7.251c0,0,0.383,5.822,0.053,8.768c0,0,0.538-3.482,1.454-5.057
						c0,0-0.867,6.428-0.825,7.365c0,0,1.075-6.964,2.866-9.747c0,0-0.371,3.314-0.431,5.171l1.332-2.647
						c0,0-0.188,0.352-0.454,4.051c0,0,2.684-5.479,2.826-8.073c0,0-0.388,6.108-1.01,9.021"/>
				</g>
			</g>
		</g>
	</g>
	<g>
		<g>
			<g>
				<g>
					<path fill="none" stroke="#059F14" stroke-width="0.4455" stroke-miterlimit="10" d="M295.015,352.713
						c0,0,0.261-7.614-0.203-11.395l1.748,12.127c0,0,0.493-5.724,0.658-7.197l0.426,6.76c0,0,0.515-4.604,1.658-8.204
						c0,0-0.141,3.899,0.027,5.037c0,0,1.873-3.52,1.847-7.251c0,0,0.383,5.822,0.053,8.769c0,0,0.538-3.482,1.454-5.058
						c0,0-0.867,6.429-0.825,7.365c0,0,1.075-6.964,2.866-9.747c0,0-0.371,3.314-0.431,5.172l1.332-2.647
						c0,0-0.188,0.353-0.454,4.052c0,0,2.684-5.479,2.826-8.073c0,0-0.388,6.108-1.01,9.021"/>
				</g>
				<g>
					<path fill="none" stroke="#059F14" stroke-width="0.4455" stroke-miterlimit="10" d="M308.632,354.237
						c0,0,0.261-7.614-0.203-11.395l1.748,12.127c0,0,0.493-5.724,0.658-7.197l0.426,6.76c0,0,0.515-4.604,1.658-8.204
						c0,0-0.141,3.899,0.027,5.037c0,0,1.873-3.52,1.847-7.251c0,0,0.383,5.822,0.053,8.769c0,0,0.538-3.482,1.454-5.058
						c0,0-0.867,6.429-0.825,7.365c0,0,1.075-6.964,2.866-9.747c0,0-0.371,3.314-0.431,5.172l1.332-2.647
						c0,0-0.188,0.353-0.454,4.052c0,0,2.684-5.479,2.826-8.073c0,0-0.388,6.108-1.01,9.021"/>
				</g>
			</g>
		</g>
	</g>
	<path fill="#FF0000" stroke="#000000" stroke-width="0.452" stroke-miterlimit="10" d="M472.877,219.622
		c0,0,1.11,56.352-14.943,55.971c0,0-2.503,13.066-3.236,19.357c0,0,25.403,12.781,21.52-63.445L472.877,219.622z"/>
	<line fill="none" stroke="#9C4F17" stroke-width="2" stroke-miterlimit="10" x1="270.235" y1="326.834" x2="270.235" y2="297.78"/>
	<line fill="none" stroke="#9C4F17" stroke-width="2" stroke-miterlimit="10" x1="286.923" y1="336.193" x2="286.923" y2="307.14"/>
	
		<line fill="none" stroke="#9C4F17" stroke-width="2" stroke-miterlimit="10" x1="311.333" y1="312.308" x2="311.333" y2="283.253"/>
	
		<line fill="none" stroke="#9C4F17" stroke-width="2" stroke-miterlimit="10" x1="383.667" y1="306.892" x2="383.667" y2="277.837"/>
	
		<line fill="none" stroke="#9C4F17" stroke-width="2" stroke-miterlimit="10" x1="334.337" y1="344.135" x2="334.337" y2="315.081"/>
	
		<line fill="none" stroke="#9C4F17" stroke-width="2" stroke-miterlimit="10" x1="398.333" y1="347.696" x2="398.333" y2="318.643"/>
	<path fill="#FF0000" stroke="#000000" stroke-width="0.452" stroke-miterlimit="10" d="M452.344,318.643
		c0,0,32.795,10.501,28.226-72.098l4.055,13.748c0,0,19.067,76.851-6.243,90.912c-13.528-2.434-19.887-1.721-23.684-12.268
		C452.112,330.363,452.344,318.643,452.344,318.643z"/>
	
		<line fill="none" stroke="#000000" stroke-width="0.452" stroke-miterlimit="10" x1="534.357" y1="219.622" x2="626.334" y2="305.97"/>
	<g>
		<g>
			<g>
				<g>
					<path fill="none" stroke="#059F14" stroke-width="0.4875" stroke-miterlimit="10" d="M609.611,314.043
						c0,0-1.218-8.253-2.522-12.234l4.489,12.721c0,0-0.566-6.262-0.668-7.881l1.856,7.198c0,0-0.314-5.06,0.31-9.161
						c0,0,0.615,4.228,1.042,5.42c0,0,1.5-4.156,0.723-8.171c0,0,1.618,6.196,1.819,9.435c0,0-0.063-3.856,0.699-5.731
						c0,0,0.267,7.094,0.505,8.094c0,0-0.13-7.711,1.422-11.059c0,0,0.228,3.643,0.528,5.655l1.038-3.112
						c0,0-0.149,0.416,0.277,4.453c0,0,2.063-6.427,1.712-9.248c0,0,0.767,6.655,0.618,9.915"/>
				</g>
				<g>
					<path fill="none" stroke="#059F14" stroke-width="0.4875" stroke-miterlimit="10" d="M625.958,313.023
						c0,0-1.218-8.253-2.522-12.234l4.489,12.722c0,0-0.566-6.262-0.668-7.881l1.856,7.197c0,0-0.314-5.059,0.31-9.161
						c0,0,0.615,4.228,1.042,5.421c0,0,1.5-4.157,0.723-8.172c0,0,1.618,6.197,1.819,9.435c0,0-0.063-3.855,0.699-5.731
						c0,0,0.267,7.094,0.505,8.095c0,0-0.13-7.712,1.422-11.059c0,0,0.228,3.643,0.528,5.655l1.038-3.112
						c0,0-0.15,0.416,0.277,4.452c0,0,2.063-6.426,1.712-9.248c0,0,0.767,6.655,0.618,9.915"/>
				</g>
			</g>
		</g>
	</g>
	
		<line fill="none" stroke="#9C4F17" stroke-width="3" stroke-miterlimit="10" x1="407.104" y1="209.296" x2="431.666" y2="351.205"/>
	
		<line fill="none" stroke="#9C4F17" stroke-width="3" stroke-miterlimit="10" x1="426.999" y1="209.296" x2="454.697" y2="351.205"/>
	
		<line fill="none" stroke="#9C4F17" stroke-width="3" stroke-miterlimit="10" x1="409.396" y1="222.535" x2="429.572" y2="222.535"/>
	
		<line fill="none" stroke="#9C4F17" stroke-width="3" stroke-miterlimit="10" x1="413.247" y1="238.502" x2="433.424" y2="238.502"/>
	
		<line fill="none" stroke="#9C4F17" stroke-width="3" stroke-miterlimit="10" x1="414.869" y1="252.693" x2="435.046" y2="252.693"/>
	
		<line fill="none" stroke="#9C4F17" stroke-width="3" stroke-miterlimit="10" x1="417.792" y1="266.998" x2="437.969" y2="266.998"/>
	<line fill="none" stroke="#9C4F17" stroke-width="3" stroke-miterlimit="10" x1="419.483" y1="280.25" x2="439.66" y2="280.25"/>
	
		<line fill="none" stroke="#9C4F17" stroke-width="3" stroke-miterlimit="10" x1="421.578" y1="292.364" x2="441.755" y2="292.364"/>
	
		<line fill="none" stroke="#9C4F17" stroke-width="3" stroke-miterlimit="10" x1="424.335" y1="303.717" x2="444.512" y2="303.717"/>
	<line fill="none" stroke="#9C4F17" stroke-width="3" stroke-miterlimit="10" x1="426.88" y1="316.624" x2="447.057" y2="316.624"/>
	
		<line fill="none" stroke="#9C4F17" stroke-width="3" stroke-miterlimit="10" x1="429.571" y1="331.757" x2="449.748" y2="331.757"/>
	
		<line fill="none" stroke="#9C4F17" stroke-width="3" stroke-miterlimit="10" x1="431.665" y1="344.135" x2="451.842" y2="344.135"/>
	<g>
		<g>
			<path fill="#FF0000" d="M454.011,366.509c-3.975,0-7.362-2.974-7.882-6.917c-0.277-2.107,0.282-4.196,1.575-5.882
				c1.294-1.687,3.167-2.769,5.273-3.046c0.346-0.046,0.697-0.068,1.045-0.068c3.975,0,7.363,2.974,7.883,6.918
				c0.572,4.35-2.5,8.354-6.85,8.927C454.709,366.486,454.358,366.509,454.011,366.509L454.011,366.509z"/>
			<path d="M454.022,353.593c2.45,0,4.583,1.817,4.911,4.312c0.357,2.715-1.555,5.206-4.27,5.563
				c-0.22,0.029-0.438,0.043-0.653,0.043c-2.45,0-4.582-1.816-4.91-4.312c-0.357-2.715,1.554-5.207,4.269-5.564
				C453.589,353.606,453.807,353.593,454.022,353.593 M454.022,347.598c-0.478,0-0.961,0.032-1.436,0.095
				c-2.901,0.382-5.479,1.871-7.261,4.193c-1.78,2.321-2.551,5.196-2.169,8.097c0.715,5.43,5.381,9.524,10.854,9.524
				c0.478,0,0.961-0.032,1.436-0.095c2.9-0.382,5.479-1.87,7.26-4.191c1.782-2.321,2.553-5.197,2.171-8.098
				C464.162,351.692,459.496,347.598,454.022,347.598L454.022,347.598z"/>
		</g>
		<polyline fill="none" stroke="#000000" stroke-linejoin="round" stroke-miterlimit="10" points="417.729,357.295 411.159,370.454 
			403.713,356.174 		"/>
		<polygon fill="#1E82A4" stroke="#000000" stroke-width="0.452" stroke-miterlimit="10" points="440.64,357.979 457.037,330.845 
			392.229,339.168 403.712,357.462 		"/>
		<polyline fill="none" stroke="#000000" stroke-miterlimit="10" points="454.017,358.553 397.459,356.546 383.623,341.753 
			369.858,340.558 		"/>
		<g>
			<g>
				<g>
					<path fill="#1E47A4" d="M390.369,339.089c0.07,0.515,0.549,0.878,1.063,0.809l65.726-8.944
						c0.515-0.069,0.878-0.548,0.808-1.062l-0.06-0.439c-0.07-0.515-0.549-0.878-1.063-0.809l-65.726,8.946
						c-0.515,0.069-0.878,0.548-0.808,1.062L390.369,339.089z"/>
					<path fill="none" stroke="#000000" stroke-width="0.452" stroke-miterlimit="10" d="M390.369,339.089
						c0.07,0.515,0.549,0.878,1.063,0.809l65.726-8.944c0.515-0.069,0.878-0.548,0.808-1.062l-0.06-0.439
						c-0.07-0.515-0.549-0.878-1.063-0.809l-65.726,8.946c-0.515,0.069-0.878,0.548-0.808,1.062L390.369,339.089z"/>
				</g>
			</g>
		</g>
	</g>
</g>
<g id="mutsjes">
	<g>
		<path fill="#F7941E" stroke="#000000" stroke-width="0.4524" stroke-miterlimit="10" d="M227.407,408.181
			c-0.658-0.773-1.339-1.533-2.074-2.268c-0.427-0.424-0.87-0.84-1.36-1.238c-0.497-0.394-1.01-0.784-1.747-1.093l-0.747,2.281
			c0.36,0.067,0.848,0.287,1.306,0.544c0.464,0.26,0.93,0.562,1.389,0.884c0.919,0.644,1.815,1.361,2.694,2.103
			c0.424,0.359,0.844,0.725,1.26,1.094h0.041C227.918,409.718,227.664,408.948,227.407,408.181z"/>
		<path fill="#5FBB46" stroke="#000000" stroke-width="0.4524" stroke-miterlimit="10" d="M228.259,409.21
			c-0.002-0.406,0.002-0.812,0.014-1.219c-0.17-0.841-0.343-1.68-0.523-2.52c-0.342-1.588-0.702-3.172-1.111-4.758
			c-0.206-0.792-0.424-1.584-0.676-2.383c-0.126-0.398-0.26-0.799-0.416-1.206c-0.161-0.411-0.32-0.813-0.608-1.288l-1.975,1.367
			c0.165,0.195,0.36,0.521,0.531,0.846c0.177,0.328,0.343,0.678,0.507,1.033c0.325,0.711,0.629,1.446,0.925,2.189
			c0.588,1.486,1.136,3.002,1.667,4.523c0.276,0.793,0.547,1.588,0.814,2.385c0.104,0.122,0.209,0.243,0.312,0.366
			C227.901,408.767,228.078,408.989,228.259,409.21z"/>
		<path fill="#5FBBCF" stroke="#000000" stroke-width="0.4524" stroke-miterlimit="10" d="M229.149,410.323
			c0.08-0.854,0.186-1.702,0.325-2.541c0.509-3.057,1.438-6.051,3.03-8.527l-2.102-1.162c-0.729,1.533-1.225,3.132-1.558,4.737
			c-0.333,1.606-0.505,3.224-0.566,4.831c-0.003,0.109-0.003,0.221-0.007,0.33c0.11,0.545,0.217,1.089,0.323,1.634
			C228.782,409.856,228.967,410.089,229.149,410.323z"/>
		<path fill="#FFDD00" stroke="#000000" stroke-width="0.4524" stroke-miterlimit="10" d="M225.42,447.014l2.285-36.919
			c0,0,0.059-3.657,1.892,0.229c1.832,3.886,14.679,32.672,14.679,32.672s-6.087-3.999-10.79-3.411
			C228.783,440.173,225.486,444.646,225.42,447.014z"/>
		<g>
			<path fill="#F7941E" d="M228.167,427.036c-0.447-0.004-0.896-0.072-1.335-0.203l-0.173-0.053l0.607-9.205l0.178-0.028
				c0.252-0.04,0.505-0.066,0.769-0.066c1.307,0.011,2.502,0.517,3.397,1.427c0.895,0.909,1.382,2.113,1.371,3.389
				c-0.02,2.613-2.163,4.74-4.775,4.74C228.205,427.036,228.167,427.036,228.167,427.036z"/>
			<path d="M228.212,417.707c0.01,0,0.019,0,0.029,0c2.514,0.021,4.535,2.073,4.514,4.587c-0.02,2.502-2.053,4.516-4.55,4.516
				c-0.012,0-0.024,0-0.036,0c-0.442-0.004-0.868-0.073-1.272-0.193l0.583-8.846C227.719,417.731,227.961,417.707,228.212,417.707
				 M228.212,417.255c-0.253,0-0.517,0.021-0.805,0.068l-0.356,0.057l-0.024,0.36l-0.583,8.846l-0.023,0.36l0.346,0.104
				c0.459,0.137,0.93,0.208,1.398,0.213c2.777,0,5.021-2.228,5.042-4.965c0.011-1.336-0.499-2.597-1.437-3.55
				c-0.937-0.952-2.189-1.483-3.526-1.493h-0.001H228.212L228.212,417.255z"/>
		</g>
		<g>
			<path fill="#FF0000" d="M235.938,437.297c-2.837-0.001-5.163-2.31-5.184-5.147c-0.01-1.385,0.52-2.691,1.492-3.678
				s2.271-1.534,3.655-1.544c0.001,0,0.001,0,0.002,0c0.403,0,0.774,0.042,1.147,0.124l0.112,0.024l3.305,7.55l-0.058,0.1
				c-0.937,1.596-2.595,2.557-4.436,2.57L235.938,437.297z"/>
			<path d="M235.944,427.153c0.364,0,0.717,0.044,1.059,0.119c1.155,2.633,2.252,5.137,3.213,7.338
				c-0.855,1.459-2.429,2.446-4.242,2.46c-0.012,0-0.023,0-0.035,0c-2.721,0-4.938-2.196-4.958-4.923
				c-0.02-2.738,2.185-4.975,4.923-4.994C235.917,427.153,235.931,427.153,235.944,427.153 M235.944,426.701h-0.002h-0.043
				c-1.444,0.011-2.799,0.583-3.814,1.612s-1.568,2.393-1.558,3.838c0.022,2.961,2.45,5.371,5.411,5.371
				c1.96-0.014,3.691-1.018,4.667-2.683l0.117-0.198l-0.092-0.212c-0.961-2.202-2.058-4.706-3.213-7.339l-0.093-0.211l-0.225-0.049
				C236.71,426.745,236.322,426.701,235.944,426.701L235.944,426.701z"/>
		</g>
	</g>
	<g>
		<path fill="#F7941E" stroke="#000000" stroke-width="0.4524" stroke-miterlimit="10" d="M590.119,341.297
			c-0.251-0.984-0.525-1.967-0.861-2.949c-0.196-0.568-0.411-1.139-0.675-1.711c-0.272-0.574-0.561-1.148-1.085-1.752l-1.678,1.719
			c0.293,0.217,0.635,0.629,0.932,1.062c0.302,0.438,0.586,0.914,0.857,1.406c0.539,0.982,1.028,2.021,1.491,3.076
			c0.221,0.508,0.436,1.021,0.646,1.537l0.037,0.018C589.9,342.9,590.011,342.1,590.119,341.297z"/>
		<path fill="#FFDD00" stroke="#000000" stroke-width="0.4524" stroke-miterlimit="10" d="M590.429,342.596
			c0.177-0.363,0.359-0.727,0.55-1.088c0.219-0.828,0.434-1.658,0.643-2.492c0.393-1.574,0.768-3.156,1.1-4.758
			c0.165-0.805,0.319-1.611,0.445-2.438c0.063-0.414,0.12-0.832,0.159-1.266c0.036-0.439,0.071-0.871,0.021-1.426l-2.375,0.357
			c0.062,0.248,0.093,0.627,0.104,0.992c0.013,0.373,0.01,0.76-0.001,1.15c-0.021,0.781-0.073,1.576-0.136,2.373
			c-0.127,1.594-0.304,3.195-0.499,4.797c-0.102,0.832-0.21,1.666-0.32,2.498c0.039,0.156,0.079,0.311,0.117,0.465
			C590.305,342.041,590.365,342.318,590.429,342.596z"/>
		<path fill="#5FBBCF" stroke="#000000" stroke-width="0.4524" stroke-miterlimit="10" d="M590.737,343.988
			c0.447-0.73,0.918-1.445,1.412-2.137c1.806-2.52,3.96-4.797,6.481-6.318l-1.374-1.967c-1.331,1.053-2.479,2.27-3.487,3.562
			c-1.007,1.297-1.875,2.672-2.639,4.088c-0.052,0.096-0.101,0.193-0.152,0.291c-0.142,0.537-0.285,1.072-0.43,1.609
			C590.613,343.406,590.676,343.697,590.737,343.988z"/>
		<path fill="#FF0000" stroke="#000000" stroke-width="0.4524" stroke-miterlimit="10" d="M571.207,375.272l18.336-32.128
			c0,0,1.664-3.256,1.595,1.041c-0.069,4.294-1.233,35.796-1.233,35.796s-3.701-6.273-8.182-7.82
			C577.244,370.614,572.311,373.175,571.207,375.272z"/>
		<g>
			<path fill="#FFDD00" d="M584.622,359.062c-0.746,0-1.467-0.171-2.139-0.509c-0.401-0.201-0.773-0.46-1.107-0.769l-0.132-0.122
				l4.604-7.997l0.172,0.054c0.253,0.077,0.502,0.172,0.745,0.293c1.142,0.572,1.992,1.555,2.395,2.766
				c0.401,1.211,0.309,2.506-0.264,3.647C588.081,358.051,586.442,359.062,584.622,359.062
				C584.623,359.062,584.623,359.062,584.622,359.062z"/>
			<path d="M585.954,349.935c0.241,0.074,0.479,0.164,0.711,0.279c2.248,1.127,3.156,3.861,2.029,6.109
				c-0.799,1.591-2.404,2.513-4.072,2.513c-0.686,0-1.382-0.156-2.037-0.485c-0.394-0.197-0.747-0.447-1.055-0.732L585.954,349.935
				 M585.742,349.396l-0.181,0.312l-4.424,7.684l-0.18,0.312l0.265,0.245c0.349,0.323,0.739,0.595,1.159,0.805
				c0.705,0.354,1.459,0.533,2.24,0.533c1.906,0,3.622-1.059,4.477-2.762c0.6-1.196,0.697-2.552,0.275-3.821
				c-0.42-1.268-1.311-2.297-2.506-2.896c-0.24-0.119-0.496-0.22-0.781-0.308L585.742,349.396L585.742,349.396z"/>
		</g>
		<g>
			<path fill="#FFDD00" d="M587.209,371.722c-0.78,0-1.534-0.173-2.241-0.515c-1.248-0.602-2.186-1.653-2.642-2.961
				s-0.376-2.714,0.226-3.961c0.859-1.781,2.692-2.934,4.672-2.934c0.783,0,1.541,0.175,2.252,0.518
				c0.336,0.163,0.664,0.37,0.975,0.617l0.092,0.07l-0.363,8.235l-0.096,0.063C589.225,371.422,588.231,371.722,587.209,371.722
				L587.209,371.722z"/>
			<path d="M587.224,361.578c0.723,0,1.458,0.159,2.153,0.495c0.339,0.164,0.649,0.365,0.934,0.59
				c-0.124,2.873-0.246,5.604-0.353,8.004c-0.812,0.536-1.771,0.829-2.749,0.829c-0.72,0-1.451-0.158-2.144-0.493
				c-2.466-1.189-3.5-4.154-2.31-6.619C583.61,362.611,585.38,361.578,587.224,361.578 M587.224,361.126
				c-2.066,0-3.979,1.202-4.875,3.062c-0.629,1.301-0.713,2.769-0.236,4.133c0.477,1.365,1.455,2.463,2.756,3.09
				c0.738,0.357,1.526,0.537,2.341,0.537c1.066,0,2.103-0.312,2.999-0.902l0.191-0.127l0.011-0.23l0.06-1.344
				c0.092-2.057,0.191-4.312,0.293-6.661l0.01-0.231l-0.182-0.143c-0.324-0.257-0.666-0.473-1.017-0.643
				C588.832,361.308,588.041,361.126,587.224,361.126L587.224,361.126z"/>
		</g>
		<g>
			<path fill="#F7941E" d="M576.438,367.45c-0.129,0-0.257-0.005-0.385-0.017l-0.352-0.031l4.146-7.268l0.206,0.287
				c0.957,1.34,1.098,3.087,0.367,4.561C579.665,366.504,578.14,367.45,576.438,367.45L576.438,367.45z"/>
			<path d="M579.869,360.554c0.877,1.227,1.064,2.885,0.349,4.328c-0.736,1.483-2.229,2.343-3.779,2.343
				c-0.121,0-0.244-0.006-0.365-0.017L579.869,360.554 M579.826,359.716l-0.351,0.614l-3.795,6.654l-0.351,0.613l0.704,0.061
				c0.135,0.012,0.27,0.018,0.404,0.018c1.787,0,3.391-0.993,4.185-2.593c0.769-1.549,0.62-3.386-0.386-4.792L579.826,359.716
				L579.826,359.716z"/>
		</g>
	</g>
</g>
<g id="molltjes">
	<g>
		<path stroke="#000000" stroke-width="0.4524" stroke-miterlimit="10" d="M602.401,384.464c0,0-2.79-3.619-7.768-5.656
			c0,0-2.789,4.978-4.75,7.39c0,0,0.529-5.699-0.679-8.671c-0.979-2.413-4.298-6.259-9.651-6.259
			c-6.034,0-11.085,2.639-12.744,11.839c0,0-2.64-2.564-3.921-7.013c0,0-2.715,4.146-6.713,4.524c0,0,0.68,3.544,7.843,15.458
			c0,0-3.016,7.843-3.016,12.744s1.81,7.54,1.81,7.54l1.936,4.701h22.346c0,0,3.997-3.494,3.394-12.015
			c-0.526-7.45-1.206-10.181-1.206-10.181S598.405,390.119,602.401,384.464z"/>
		
			<ellipse transform="matrix(-0.9747 -0.2234 0.2234 -0.9747 1062.3617 872.6091)" fill="#FFFFFF" stroke="#000000" stroke-width="0.4524" stroke-miterlimit="10" cx="580.534" cy="376.22" rx="2.951" ry="3.839"/>
		<g>
			<g>
				<path fill="#A7A9AC" stroke="#000000" stroke-width="0.4524" stroke-miterlimit="10" d="M569.016,380.244
					c0,0,2.08-0.742,2.846-2.643c0,0,1.433,2.563,2.79,2.563s1.835-0.88,2.338-1.433c0.325-0.357,0.755-0.755,1.81-0.755
					c1.056,0,3.093,0.379,2.488,3.997c-0.603,3.62-1.433,5.505-1.056,9.729c0.377,4.223,2.413,7.616,2.413,13.725
					c0,6.107-3.694,10.481-7.616,10.481c-3.921,0-7.692-3.317-7.692-9.804c0-6.485,2.565-10.405,3.545-15.458
					c0.764-3.937,0.887-6.172,0.903-6.971c1.269,0.827,2.678,0.862,2.678,0.862s0.151,2.262,0.566,3.017s1.245,1.396,2.413-0.152
					c1.168-1.545,1.207-6.295,1.207-6.295c0.226,0,0.716,0.565,0.716,0.565s0.15-1.094-0.527-1.47
					c-0.679-0.378-1.093,0.149-1.093,0.149c0.339,0.114,0.452,0.491,0.452,0.491s-1.66,2.94-4.034,2.94
					C571.786,383.785,569.016,380.244,569.016,380.244z"/>
			</g>
		</g>
		<path fill="#FFFFFF" d="M572.632,375.105l1.566,1.867c0,0,0.756,0.755,1.458,0.252c0.704-0.502,1.106-1.257,1.358-2.464
			c0.251-1.206,0.197-2.07-0.516-2.287c-0.714-0.217-2.123,0.066-2.652,0.377C573.318,373.162,571.877,374.101,572.632,375.105z"/>
		<path fill="#FF0000" stroke="#000000" stroke-width="0.4524" stroke-miterlimit="10" d="M569.121,380.04
			c0,0-1.257-1.056-1.257-3.519c0-2.464,0.754-4.073,1.106-4.223c0.352-0.151,0.754-0.303,1.659,0.502s1.508,1.609,1.508,3.167
			C572.138,377.526,570.831,379.989,569.121,380.04z"/>
		<path fill="none" stroke="#A7A9AC" stroke-width="0.4524" stroke-miterlimit="10" d="M588.856,387.821
			c0,0-1.622,2.018-2.631,2.895"/>
		<path fill="none" stroke="#A7A9AC" stroke-width="0.4524" stroke-miterlimit="10" d="M566.559,384.892
			c0,0-0.662,6.707-2.028,10.27"/>
		<path fill="#F2D2BE" stroke="#000000" stroke-width="0.4524" stroke-miterlimit="10" d="M570.579,421.062
			c0,0-2.654-4.175-6.611-4.175c-3.958,0-4.965,3.48-4.965,4.175H570.579z"/>
		<path fill="#F2D2BE" stroke="#000000" stroke-width="0.4524" stroke-miterlimit="10" d="M586.752,421.062
			c0,0-1.183-4.193-5.066-3.435c-3.845,0.75-5.283,2.74-5.283,3.435H586.752z"/>
		<path fill="none" stroke="#000000" stroke-width="0.4524" stroke-miterlimit="10" d="M580.283,371.123
			c0,0-0.406-5.008-3.181-9.202"/>
		<path fill="none" stroke="#000000" stroke-width="0.4524" stroke-miterlimit="10" d="M582.313,371.868
			c0,0,1.489-2.369,0.473-10.15"/>
		<path fill="none" stroke="#000000" stroke-width="0.4524" stroke-miterlimit="10" d="M584.072,372.205c0,0,2.25-1.497,2.572-9.337
			"/>
		<path fill="#F2D2BE" stroke="#000000" stroke-width="0.4524" stroke-linejoin="round" stroke-miterlimit="10" d="M562.785,375.737
			c0,0-1.577-2.99,0.326-5.545s2.012-2.12,1.794-2.828c-0.217-0.706-2.004-1.888-3.316-0.325c-1.158,1.379-1.141,1.903-1.141,1.903
			s-1.929-4.951-3.48-5.764c0,0-2.393-1.467-2.61,0.599c-0.216,2.065,1.903,4.512,1.903,4.512s-2.229-2.648-3.153-3.425
			c-1.018-0.854-3.044-1.087-3.208,0.217c-0.163,1.306,0.817,2.557,3.425,5.927c0,0-1.875-1.059-3.097-0.979
			c-1.223,0.08-1.664,0.265-1.85,1.197c0,1.087,0.652,2.064,1.521,2.555c0.87,0.489,1.898,0.554,2.448,0.815
			c0.549,0.262,1.521,0.707,2.065,1.739c0.542,1.033,1.667,4.062,1.667,4.062S560.067,380.739,562.785,375.737z"/>
		<path fill="none" stroke="#000000" stroke-width="0.4524" stroke-linejoin="round" stroke-miterlimit="10" d="M560.43,368.734
			c0,0-0.233,1.726-0.204,2.427"/>
		<path fill="none" stroke="#000000" stroke-width="0.4524" stroke-linejoin="round" stroke-miterlimit="10" d="M560.343,369.642
			c0,0-3.391-0.468-2.515,4.004"/>
		<path fill="#F2D2BE" stroke="#000000" stroke-width="0.4524" stroke-linejoin="round" stroke-miterlimit="10" d="M594.873,378.604
			c0,0,2.202-3.306,1.388-5.366c-0.813-2.061-2.106-3.641-1.197-4.551c0.91-0.91,2.588-1.485,3.258,0.574
			c0.67,2.062,1.005,2.636,1.725,3.258c0,0,0.315-3.766,1.197-5.317c1.097-1.931,3.784-2.729,4.264-0.766s-0.958,3.928-0.958,3.928
			s-1.135,1.8-0.527,2.251c0.786,0.586,1.438-0.287,1.438-0.287s2.491-2.299,3.977-2.347c1.484-0.048,3.306,1.341,2.155,2.586
			c-1.15,1.246-5.461,3.258-5.461,3.258s3.66-0.069,4.79,0.287c0.604,0.191,0.765,0.454,1.246,1.534
			c0.707,1.586-1.198,2.824-4.408,2.634c0,0-2.012-0.336-3.065,1.149s-1.868,2.442-2.203,2.827
			C602.489,384.256,598.034,380.759,594.873,378.604z"/>
		<path fill="#F2D2BE" stroke="#000000" stroke-width="0.4524" stroke-linejoin="round" stroke-miterlimit="10" d="M600.046,372.519
			c0,0,2.712,2.127,0.004,5.541"/>
		
			<ellipse transform="matrix(-0.9602 -0.2793 0.2793 -0.9602 1020.9353 895.8228)" cx="574.298" cy="375.167" rx="0.795" ry="1.569"/>
		
			<ellipse transform="matrix(-0.9601 -0.2797 0.2797 -0.9601 1030.8484 899.7819)" cx="579.631" cy="376.331" rx="0.925" ry="1.826"/>
	</g>
	<g>
		<g>
			<path stroke="#000000" stroke-width="0.4524" stroke-miterlimit="10" d="M225.909,466.806c0,0-0.337,1.354-0.72,4.747
				c9.447-0.208,18.904,0.291,28.355,0.338c-0.887-4.002-2.375-7.876-2.375-7.876c7.164-11.914,7.844-15.457,7.844-15.457
				c-3.998-0.378-6.712-4.525-6.712-4.525c-1.282,4.449-3.922,7.014-3.922,7.014c-1.658-9.2-6.709-11.84-12.743-11.84
				c-5.354,0-8.672,3.846-9.652,6.259c-1.207,2.973-0.679,8.672-0.679,8.672c-1.96-2.412-4.751-7.39-4.751-7.39
				c-4.977,2.036-7.767,5.656-7.767,5.656C216.785,458.058,225.909,466.806,225.909,466.806z"/>
			
				<ellipse transform="matrix(0.9748 -0.2232 0.2232 0.9748 -93.2083 63.5734)" fill="#FFFFFF" stroke="#000000" stroke-width="0.4524" stroke-miterlimit="10" cx="234.656" cy="444.158" rx="2.951" ry="3.84"/>
			<g>
				<g>
					<path fill="#A7A9AC" stroke="#000000" stroke-width="0.4524" stroke-miterlimit="10" d="M234.958,459.642
						c-0.337,3.775-1.995,6.893-2.345,11.873c5.044,0.045,10.089,0.204,15.134,0.303c-0.489-5.212-2.575-8.785-3.438-13.231
						c-0.764-3.936-0.887-6.171-0.904-6.97c-1.268,0.827-2.678,0.862-2.678,0.862s-0.15,2.262-0.566,3.017
						c-0.414,0.753-1.243,1.394-2.412-0.151c-1.169-1.546-1.207-6.297-1.207-6.297c-0.226,0-0.717,0.566-0.717,0.566
						s-0.15-1.094,0.529-1.471c0.678-0.377,1.093,0.151,1.093,0.151c-0.339,0.112-0.452,0.489-0.452,0.489s1.658,2.941,4.034,2.941
						c2.375,0,5.146-3.541,5.146-3.541s-2.08-0.742-2.846-2.643c0,0-1.434,2.563-2.79,2.563c-1.357,0-1.835-0.879-2.338-1.433
						c-0.324-0.357-0.754-0.754-1.81-0.754s-3.092,0.377-2.488,3.997C234.505,453.533,235.335,455.419,234.958,459.642z"/>
				</g>
			</g>
			<path fill="#FFFFFF" d="M242.559,443.046l-1.567,1.867c0,0-0.755,0.754-1.458,0.25c-0.704-0.502-1.107-1.256-1.357-2.463
				c-0.252-1.206-0.197-2.071,0.515-2.287c0.713-0.217,2.124,0.065,2.652,0.376C241.871,441.102,243.312,442.04,242.559,443.046z"/>
			<path fill="#FF0000" stroke="#000000" stroke-width="0.4524" stroke-miterlimit="10" d="M246.068,447.979
				c0,0,1.256-1.057,1.256-3.519c0-2.465-0.754-4.072-1.105-4.224s-0.754-0.302-1.66,0.502c-0.904,0.805-1.507,1.61-1.507,3.168
				S244.359,447.929,246.068,447.979z"/>
			<path fill="none" stroke="#A7A9AC" stroke-width="0.4524" stroke-miterlimit="10" d="M226.334,455.761
				c0,0,1.621,2.017,2.63,2.894"/>
			<path fill="none" stroke="#A7A9AC" stroke-width="0.4524" stroke-miterlimit="10" d="M248.629,452.83
				c0,0,0.664,6.709,2.029,10.269"/>
			<path fill="none" stroke="#000000" stroke-width="0.4524" stroke-miterlimit="10" d="M234.906,439.062
				c0,0,0.406-5.007,3.18-9.201"/>
			<path fill="none" stroke="#000000" stroke-width="0.4524" stroke-miterlimit="10" d="M232.877,439.806
				c0,0-1.49-2.368-0.475-10.148"/>
			<path fill="none" stroke="#000000" stroke-width="0.4524" stroke-miterlimit="10" d="M231.117,440.145
				c0,0-2.249-1.497-2.571-9.338"/>
			<path fill="#F2D2BE" stroke="#000000" stroke-width="0.4524" stroke-linejoin="round" stroke-miterlimit="10" d="
				M252.404,443.677c0,0,1.576-2.989-0.326-5.546c-1.902-2.555-2.012-2.119-1.794-2.826s2.005-1.89,3.316-0.326
				c1.158,1.379,1.142,1.902,1.142,1.902s1.928-4.95,3.48-5.763c0,0,2.391-1.469,2.608,0.598s-1.902,4.513-1.902,4.513
				s2.228-2.649,3.153-3.426c1.018-0.854,3.044-1.086,3.207,0.218c0.164,1.305-0.815,2.556-3.424,5.926c0,0,1.875-1.058,3.098-0.979
				c1.223,0.08,1.664,0.264,1.849,1.196c0,1.087-0.652,2.066-1.522,2.556c-0.869,0.489-1.896,0.555-2.446,0.815
				c-0.549,0.262-1.522,0.707-2.066,1.739c-0.544,1.033-1.667,4.062-1.667,4.062S255.122,448.679,252.404,443.677z"/>
			<path fill="none" stroke="#000000" stroke-width="0.4524" stroke-linejoin="round" stroke-miterlimit="10" d="M254.76,436.675
				c0,0,0.233,1.724,0.205,2.426"/>
			<path fill="none" stroke="#000000" stroke-width="0.4524" stroke-linejoin="round" stroke-miterlimit="10" d="M254.848,437.58
				c0,0,3.39-0.468,2.513,4.005"/>
			<path fill="#F2D2BE" stroke="#000000" stroke-width="0.4524" stroke-linejoin="round" stroke-miterlimit="10" d="
				M220.317,446.543c0,0-2.204-3.307-1.389-5.367c0.813-2.059,2.106-3.64,1.197-4.549c-0.91-0.911-2.587-1.485-3.259,0.573
				c-0.669,2.061-1.005,2.635-1.723,3.259c0,0-0.316-3.768-1.199-5.317c-1.097-1.931-3.783-2.732-4.262-0.767
				c-0.48,1.963,0.957,3.928,0.957,3.928s1.135,1.799,0.527,2.252c-0.786,0.583-1.438-0.288-1.438-0.288s-2.491-2.3-3.977-2.348
				c-1.484-0.048-3.305,1.342-2.155,2.587c1.149,1.246,5.461,3.258,5.461,3.258s-3.661-0.069-4.79,0.287
				c-0.604,0.19-0.766,0.454-1.245,1.533c-0.708,1.586,1.197,2.826,4.407,2.634c0,0,2.012-0.334,3.065,1.15
				c1.054,1.485,1.868,2.443,2.203,2.827C212.7,452.195,217.156,448.698,220.317,446.543z"/>
			<path fill="#F2D2BE" stroke="#000000" stroke-width="0.4524" stroke-linejoin="round" stroke-miterlimit="10" d="
				M215.145,440.459c0,0-2.713,2.126-0.006,5.54"/>
			<ellipse transform="matrix(0.9598 -0.2808 0.2808 0.9598 -114.733 85.4709)" cx="240.892" cy="443.106" rx="0.795" ry="1.568"/>
			<ellipse transform="matrix(0.9599 -0.2802 0.2802 0.9599 -115.0573 83.8085)" cx="235.558" cy="444.271" rx="0.925" ry="1.825"/>
		</g>
		<g>
			<g>
				<path fill="#752E14" stroke="#000000" stroke-width="0.5834" stroke-miterlimit="10" d="M269.907,483.837
					c-0.178-3.262-1.935-2.955-3.431-3.26c-0.611-0.125-1.191,0.19-1.666,0.609c0.214-0.63,0.333-1.582-0.621-2.037
					c-0.985-0.471-1.854-0.188-2.333,0.06l-0.555-0.78c0.208-0.365,0.336-0.866,0.336-1.42c0-1.126-0.531-2.039-1.188-2.039
					c-0.271,0-0.674,0.071-1.051,0.233c0.006-0.627,0.021-1.388,0.304-1.865c0.618-1.042-0.383-2.984-1.124-3.571
					c-0.624-0.496-2.143-0.097-2.976,0.666l-1.566-2.199c0.079-0.274,0.125-0.581,0.125-0.908c0-1.126-0.533-2.039-1.188-2.039
					c-0.656,0-2.067,0.405-2.067,1.529c0,0.018,0.003,0.036,0.004,0.053c-0.171-0.162-0.366-0.257-0.576-0.257
					c-0.635,0-1.975,0.38-2.06,1.428h-0.04c0.079-0.466,0.079-0.893-0.022-1.137c-0.283-0.686-1.223-0.847-2.101-0.36
					c-0.629,0.352-1.051,0.939-1.136,1.497h-1.421c-0.002-0.004-0.003-0.011-0.005-0.016c-0.284-0.686-1.224-0.848-2.1-0.358
					c-0.189,0.104-0.359,0.233-0.508,0.374h-11.79c-0.519-0.581-1.204-1.003-1.589-0.962c-0.397,0.045-0.721,0.42-0.893,0.962
					h-4.177l-1.409,2.109c-0.351-0.264-0.829-0.42-1.49-0.371c-2.814,0.204-2.551,2.242-2.814,3.976
					c-0.075,0.496,0.037,0.975,0.235,1.406c-1.753,0.577-1.591,2.297-1.817,3.793c-0.002,0.002-0.002,0.004-0.002,0.009l-0.555,0.83
					c-0.142-0.029-0.301-0.042-0.481-0.028c-1.786,0.131-1.618,1.422-1.786,2.521c-0.025,0.169-0.015,0.334,0.018,0.493
					c-0.543,0.05-1.204,0.104-1.642-0.185c-0.954-0.619-2.532,0.709-2.972,1.617c-0.44,0.906,0.314,3.16,1.269,3.78
					c0.156,0.102,0.362,0.062,0.601-0.074h8.594c0.267,1.033,1.433,2.14,2.012,2.14c0.654,0,1.187-0.913,1.187-2.037
					c0-0.034-0.002-0.069-0.002-0.103h8.649c0.022,0.452,0.159,0.867,0.512,1.094c0.849,0.549,2.608-0.189,2.927-0.853
					c0.037-0.076,0.062-0.158,0.079-0.241h5.491c0.21,0.875,0.859,2.095,2.062,1.961c0.981-0.11,2.068-1.094,2.619-1.961h13.015
					c0.816,1.138,2.314,1.942,2.857,1.692c0.416-0.194,0.613-0.853,0.573-1.692h7.837l-0.942-1.32
					C267.403,486.635,270.073,486.926,269.907,483.837z"/>
				<path fill="#CB3D17" stroke="#000000" stroke-width="0.5834" stroke-miterlimit="10" d="M221.519,473.559
					c0,1.005-0.774,2.312-1.674,2.312s-1.629-0.814-1.629-1.818c0-1.006,0.7-1.311,1.601-1.311
					C220.715,472.742,221.519,472.556,221.519,473.559z"/>
				<path fill="#CB3D17" stroke="#000000" stroke-width="0.5834" stroke-miterlimit="10" d="M231.606,490.368
					c0,0.611-0.65,1.408-1.408,1.408c-0.757,0-1.37-0.497-1.37-1.107c0-0.611,0.588-0.797,1.346-0.797
					S231.606,489.758,231.606,490.368z"/>
				<path fill="#CB3D17" stroke="#000000" stroke-width="0.5834" stroke-miterlimit="10" d="M253.759,489.831
					c0,0.611-0.366,1.408-0.792,1.408c-0.427,0-0.771-0.496-0.771-1.107c0-0.612,0.332-0.798,0.758-0.798
					C253.378,489.334,253.759,489.22,253.759,489.831z"/>
				<path fill="#CB3D17" stroke="#000000" stroke-width="0.5834" stroke-miterlimit="10" d="M269.093,487.764
					c0,0.678-0.46,1.557-0.996,1.557s-0.971-0.547-0.971-1.223c0-0.677,0.417-0.882,0.954-0.882
					C268.615,487.216,269.093,487.089,269.093,487.764z"/>
				<path fill="#CB3D17" stroke="#000000" stroke-width="0.5834" stroke-miterlimit="10" d="M229.203,472.233
					c0.584,0.742,0.772,2.312,0.106,3.015c-0.664,0.701-1.677,0.67-2.26-0.075c-0.585-0.742-0.244-1.513,0.42-2.216
					C228.135,472.256,228.618,471.49,229.203,472.233z"/>
				<path fill="#CB3D17" stroke="#000000" stroke-width="0.5834" stroke-miterlimit="10" d="M227.507,479.327
					c0.287,0.362,0.379,1.13,0.053,1.472c-0.324,0.343-0.818,0.325-1.104-0.035c-0.285-0.363-0.118-0.74,0.206-1.082
					S227.222,478.965,227.507,479.327z"/>
				<path fill="#CB3D17" stroke="#000000" stroke-width="0.5834" stroke-miterlimit="10" d="M231.98,471.741
					c0.146-0.46,0.689-0.91,1.101-0.735c0.413,0.175,0.63,0.689,0.484,1.151c-0.146,0.461-0.511,0.464-0.923,0.288
					C232.229,472.271,231.834,472.2,231.98,471.741z"/>
				<path fill="#CB3D17" stroke="#000000" stroke-width="0.5834" stroke-miterlimit="10" d="M235.605,469.75
					c-0.021-0.489,0.328-1.149,0.767-1.174c0.439-0.026,0.812,0.352,0.832,0.841c0.021,0.488-0.313,0.656-0.751,0.684
					C236.015,470.126,235.627,470.24,235.605,469.75z"/>
				<path fill="#CB3D17" stroke="#000000" stroke-width="0.5834" stroke-miterlimit="10" d="M215.91,477.353
					c0.271-0.359,1.001-0.448,1.439-0.003c0.438,0.442,0.572,1.095,0.299,1.455c-0.271,0.359-0.693,0.123-1.13-0.319
					C216.079,478.041,215.639,477.714,215.91,477.353z"/>
				<path fill="#CB3D17" stroke="#000000" stroke-width="0.5834" stroke-miterlimit="10" d="M222.347,482.69
					c0.753-0.886,2.352-1.336,3.066-0.519c0.716,0.818,0.687,2.2-0.067,3.085c-0.754,0.889-1.539,0.52-2.256-0.297
					C222.374,484.139,221.593,483.579,222.347,482.69z"/>
				<path fill="#9C4F17" stroke="#000000" stroke-width="0.5834" stroke-miterlimit="10" d="M220.731,479.512
					c0.116-1.234,1.129-2.735,2.128-2.608c1,0.128,1.716,1.233,1.598,2.471c-0.117,1.236-0.931,1.514-1.93,1.385
					C221.527,480.632,220.613,480.751,220.731,479.512z"/>
				<path fill="#9C4F17" stroke="#000000" stroke-width="0.5834" stroke-miterlimit="10" d="M216.085,483.359
					c0.413-0.507,1.303-0.783,1.714-0.334c0.41,0.446,0.408,1.22-0.004,1.729c-0.414,0.509-0.858,0.314-1.27-0.135
					C216.116,484.172,215.672,483.867,216.085,483.359z"/>
				<path fill="#9C4F17" stroke="#000000" stroke-width="0.5834" stroke-miterlimit="10" d="M215.825,491.063
					c-0.009-0.698,0.461-1.617,1.025-1.629c0.563-0.011,1.029,0.546,1.039,1.244c0.011,0.697-0.425,0.917-0.989,0.929
					C216.338,491.618,215.836,491.761,215.825,491.063z"/>
				<path fill="#9C4F17" stroke="#000000" stroke-width="0.5834" stroke-miterlimit="10" d="M202.674,487.351
					c-0.016-1.04,0.45-2.406,1.014-2.416c0.564-0.013,1.034,0.822,1.049,1.862c0.016,1.043-0.419,1.367-0.981,1.379
					C203.19,488.187,202.689,488.393,202.674,487.351z"/>
				<path fill="#9C4F17" stroke="#000000" stroke-width="0.5834" stroke-miterlimit="10" d="M238.574,484.184
					c-0.321-1.223-2.487-2.255,0.622-3.35c0.539-0.19,2.133,0.203,2.394,1.2c0.261,0.996-1.022,1.705-1.562,1.896
					C239.488,484.12,238.836,485.179,238.574,484.184z"/>
				<path fill="#9C4F17" stroke="#000000" stroke-width="0.5834" stroke-miterlimit="10" d="M249.229,488.561
					c0.539-0.19,2.132,0.203,2.394,1.2c0.261,0.997-1.023,1.707-1.562,1.896C249.519,491.847,246.119,489.657,249.229,488.561z"/>
				<path fill="#9C4F17" stroke="#000000" stroke-width="0.5834" stroke-miterlimit="10" d="M245.186,485.998
					c-1.047-0.405-2.488-2.254,0.621-3.351c0.539-0.19,2.133,0.205,2.394,1.199c0.262,0.997-1.038,1.657-1.562,1.897
					C245.939,486.063,245.881,486.267,245.186,485.998z"/>
				<path fill="#9C4F17" stroke="#000000" stroke-width="0.5834" stroke-miterlimit="10" d="M255.42,481.426
					c1.094-0.163,3.084,0.781,0.692,3.331c-0.414,0.441-1.997,0.888-2.604,0.12c-0.609-0.768,0.314-2.014,0.698-2.492
					C254.716,481.743,254.692,481.532,255.42,481.426z"/>
				<path fill="#9C4F17" stroke="#000000" stroke-width="0.5834" stroke-miterlimit="10" d="M253.003,474.888
					c0.899,0.043,2.691,1.196,1.001,3c-0.295,0.314-1.57,0.433-2.179-0.334c-0.607-0.767,0.013-1.691,0.274-2.042
					C252.447,475.043,252.402,474.857,253.003,474.888z"/>
				<path fill="#9C4F17" stroke="#000000" stroke-width="0.5834" stroke-miterlimit="10" d="M262.687,482.63
					c0.391,0.02,1.172,0.522,0.436,1.306c-0.127,0.138-0.684,0.188-0.947-0.144c-0.265-0.335,0.006-0.737,0.12-0.89
					C262.445,482.698,262.426,482.618,262.687,482.63z"/>
				<path fill="#9C4F17" stroke="#000000" stroke-width="0.5834" stroke-miterlimit="10" d="M242.159,471.276
					c0.393,0.019,1.172,0.521,0.436,1.305c-0.127,0.136-0.682,0.188-0.947-0.146c-0.264-0.333,0.007-0.734,0.119-0.887
					C241.919,471.343,241.898,471.263,242.159,471.276z"/>
				<path fill="#9C4F17" stroke="#000000" stroke-width="0.5834" stroke-miterlimit="10" d="M246.74,470.851
					c0.463-0.058,1.317,0.367,0.319,1.429c-0.172,0.185-0.841,0.358-1.105,0.025c-0.265-0.334,0.119-0.855,0.277-1.057
					C246.443,470.979,246.432,470.889,246.74,470.851z"/>
				<path fill="#9C4F17" stroke="#000000" stroke-width="0.5834" stroke-miterlimit="10" d="M254.561,470.391
					c0.31,0.406,0.504,1.458-0.819,1.129c-0.231-0.058-0.738-0.591-0.657-1.033c0.082-0.444,0.671-0.382,0.904-0.348
					C254.3,470.185,254.356,470.12,254.561,470.391z"/>
				<path fill="#9C4F17" stroke="#000000" stroke-width="0.5834" stroke-miterlimit="10" d="M234.004,476.156
					c0.225,0.387,0.333,1.417-0.688,1.162c-0.177-0.045-0.552-0.544-0.469-0.986c0.082-0.442,0.538-0.414,0.72-0.394
					C233.808,475.967,233.854,475.9,234.004,476.156z"/>
				<path fill="#9C4F17" stroke="#000000" stroke-width="0.5834" stroke-miterlimit="10" d="M232.263,478.189
					c0.419-0.294,1.359-0.322,0.761,1.214c-0.104,0.269-0.679,0.778-1.034,0.593c-0.357-0.187-0.164-0.887-0.079-1.162
					C232.024,478.466,231.984,478.384,232.263,478.189z"/>
				<path fill="#9C4F17" stroke="#000000" stroke-width="0.5834" stroke-miterlimit="10" d="M224.604,469.349
					c0.539-0.231,1.843-0.07,1.244,1.468c-0.104,0.266-0.827,0.7-1.35,0.426c-0.525-0.272-0.363-0.991-0.285-1.271
					C224.314,469.597,224.248,469.502,224.604,469.349z"/>
				<path fill="#9C4F17" stroke="#000000" stroke-width="0.5834" stroke-miterlimit="10" d="M222.92,472.847
					c0.395-0.171,1.351-0.052,0.911,1.076c-0.076,0.194-0.605,0.514-0.99,0.313c-0.383-0.201-0.264-0.728-0.208-0.933
					C222.707,473.03,222.657,472.959,222.92,472.847z"/>
				<path fill="#CB3D17" stroke="#000000" stroke-width="0.5834" stroke-miterlimit="10" d="M238.157,474.642
					c0.472-0.555,1.474-0.837,1.922-0.324c0.45,0.513,0.43,1.38-0.042,1.935c-0.473,0.556-0.965,0.324-1.415-0.188
					C238.174,475.551,237.685,475.198,238.157,474.642z"/>
				<path fill="#CB3D17" stroke="#000000" stroke-width="0.5834" stroke-miterlimit="10" d="M245.907,476.817
					c0.307-0.361,1.011-0.485,1.363-0.081c0.353,0.4,0.389,1.02,0.082,1.383c-0.31,0.36-0.677,0.157-1.029-0.245
					C245.971,477.471,245.599,477.179,245.907,476.817z"/>
				<path fill="#CB3D17" stroke="#000000" stroke-width="0.5834" stroke-miterlimit="10" d="M257.301,478.728
					c0.418,0.151,0.832,0.823,0.682,1.37c-0.149,0.547-0.608,0.865-1.026,0.711c-0.418-0.153-0.428-0.626-0.278-1.172
					C256.827,479.09,256.883,478.574,257.301,478.728z"/>
			</g>
			<path fill="#5FBB46" stroke="#000000" stroke-width="0.5834" stroke-miterlimit="10" d="M255.305,488.604
				c0,0,2.206-14.423,7.089-25.741c0,0-5.261,22.086-5.602,25.052L255.305,488.604z"/>
			<path fill="#5FBB46" stroke="#000000" stroke-width="0.5834" stroke-miterlimit="10" d="M256.286,490.029
				c0,0,6.145-12.799,13.949-21.653c0,0-11.193,18.89-12.348,21.563L256.286,490.029z"/>
			<path fill="#B1BB46" stroke="#000000" stroke-width="0.5834" stroke-miterlimit="10" d="M255.295,489.032
				c0,0,7.304-20.859,14.743-34.993c0,0-11.198,32.165-11.921,35.986L255.295,489.032z"/>
			<path fill="#9C4F17" stroke="#000000" stroke-width="0.5834" stroke-miterlimit="10" d="M256.359,490.922
				c-1.258-0.485-2.99-2.709,0.747-4.026c0.648-0.229,2.563,0.244,2.878,1.441c0.313,1.2-1.247,1.992-1.878,2.28
				C257.266,491.005,257.194,491.244,256.359,490.922z"/>
		</g>
	</g>
</g>
</svg>
