<?xml version="1.0" encoding="utf-8"?>
<!-- Generator: Adobe Illustrator 15.0.0, SVG Export Plug-In . SVG Version: 6.00 Build 0)  -->
<!DOCTYPE svg PUBLIC "-//W3C//DTD SVG 1.1//EN" "http://www.w3.org/Graphics/SVG/1.1/DTD/svg11.dtd">
<svg version="1.1" xmlns="http://www.w3.org/2000/svg" xmlns:xlink="http://www.w3.org/1999/xlink" x="0px" y="0px"
	 width="841.89px" height="595.28px" viewBox="0 0 841.89 595.28" enable-background="new 0 0 841.89 595.28" xml:space="preserve">
<g id="achtergrond">
	<defs>
		<filter id="Adobe_OpacityMaskFilter" filterUnits="userSpaceOnUse" x="-0.092" y="190.133" width="841.982" height="405.147">
			<feColorMatrix  type="matrix" values="1 0 0 0 0  0 1 0 0 0  0 0 1 0 0  0 0 0 1 0"/>
		</filter>
	</defs>
	<mask maskUnits="userSpaceOnUse" x="-0.092" y="190.133" width="841.982" height="405.147" id="SVGID_1_">
		<g filter="url(#Adobe_OpacityMaskFilter)">
			<linearGradient id="SVGID_2_" gradientUnits="userSpaceOnUse" x1="421.6836" y1="595.2803" x2="421.6836" y2="158.8823">
				<stop  offset="0" style="stop-color:#FFFFFF"/>
				<stop  offset="0.3482" style="stop-color:#F9F9F9"/>
				<stop  offset="0.4908" style="stop-color:#F5F5F5"/>
				<stop  offset="0.5573" style="stop-color:#F1F1F1"/>
				<stop  offset="0.6227" style="stop-color:#E5E5E5"/>
				<stop  offset="0.6876" style="stop-color:#D1D1D1"/>
				<stop  offset="0.7523" style="stop-color:#B6B6B6"/>
				<stop  offset="0.8169" style="stop-color:#929292"/>
				<stop  offset="0.8814" style="stop-color:#666666"/>
				<stop  offset="0.9445" style="stop-color:#333333"/>
				<stop  offset="1" style="stop-color:#000000"/>
			</linearGradient>
			<rect x="0.601" y="158.882" fill="url(#SVGID_2_)" width="842.167" height="436.398"/>
		</g>
	</mask>
	
		<linearGradient id="SVGID_3_" gradientUnits="userSpaceOnUse" x1="210.5552" y1="402.1807" x2="615.7021" y2="402.1807" gradientTransform="matrix(0 1 -1 0 823.0791 -20.4219)">
		<stop  offset="0" style="stop-color:#99D647"/>
		<stop  offset="1" style="stop-color:#5FBB46"/>
	</linearGradient>
	<path mask="url(#SVGID_1_)" fill="url(#SVGID_3_)" d="M0.093,595.28l-0.186-405.147c0,0,66.044,17.044,196.064,14.615
		c174.621-3.263,259.965,17.792,417.609,35.489c119.678,13.435,228.309-9.859,228.309-9.859V595.28H0.093z"/>
	<defs>
		<filter id="Adobe_OpacityMaskFilter_1_" filterUnits="userSpaceOnUse" x="0" y="244.939" width="841.705" height="350.341">
			<feColorMatrix  type="matrix" values="1 0 0 0 0  0 1 0 0 0  0 0 1 0 0  0 0 0 1 0"/>
		</filter>
	</defs>
	<mask maskUnits="userSpaceOnUse" x="0" y="244.939" width="841.705" height="350.341" id="SVGID_4_">
		<g filter="url(#Adobe_OpacityMaskFilter_1_)">
			
				<linearGradient id="SVGID_5_" gradientUnits="userSpaceOnUse" x1="421.7305" y1="560.0938" x2="421.7304" y2="207.3237" gradientTransform="matrix(-1 0 0 1 841.8906 0)">
				<stop  offset="0" style="stop-color:#FFFFFF"/>
				<stop  offset="0.3482" style="stop-color:#F9F9F9"/>
				<stop  offset="0.4908" style="stop-color:#F5F5F5"/>
				<stop  offset="0.5573" style="stop-color:#F1F1F1"/>
				<stop  offset="0.6227" style="stop-color:#E5E5E5"/>
				<stop  offset="0.6876" style="stop-color:#D1D1D1"/>
				<stop  offset="0.7523" style="stop-color:#B6B6B6"/>
				<stop  offset="0.8169" style="stop-color:#929292"/>
				<stop  offset="0.8814" style="stop-color:#666666"/>
				<stop  offset="0.9445" style="stop-color:#333333"/>
				<stop  offset="1" style="stop-color:#000000"/>
			</linearGradient>
			<rect x="-0.878" y="207.324" fill="url(#SVGID_5_)" width="842.075" height="352.769"/>
		</g>
	</mask>
	
		<linearGradient id="SVGID_6_" gradientUnits="userSpaceOnUse" x1="265.3613" y1="402.041" x2="615.7021" y2="402.041" gradientTransform="matrix(0 1 1 0 18.8115 -20.4219)">
		<stop  offset="0" style="stop-color:#99D647"/>
		<stop  offset="1" style="stop-color:#5FBB46"/>
	</linearGradient>
	<path mask="url(#SVGID_4_)" fill="url(#SVGID_6_)" d="M841.705,595.28V277.279c0,0-323.776-57.377-612.95-19.281
		C109.628,273.692,0,265.118,0,265.118V595.28H841.705z"/>
	<linearGradient id="SVGID_7_" gradientUnits="userSpaceOnUse" x1="420.853" y1="154.4688" x2="420.853" y2="1.421085e-13">
		<stop  offset="0" style="stop-color:#FFFFFF"/>
		<stop  offset="1" style="stop-color:#5FBBCF"/>
	</linearGradient>
	<rect opacity="0.3" fill="url(#SVGID_7_)" width="841.705" height="154.469"/>
	<path fill="none" stroke="#000000" stroke-width="0.452" stroke-miterlimit="10" d="M508.895,174.778"/>
	<path fill="none" stroke="#000000" stroke-width="0.452" stroke-miterlimit="10" d="M420.945,305.97"/>
	<path fill="none" stroke="#000000" stroke-width="0.452" stroke-miterlimit="10" d="M313.445,305.97"/>
	<g>
		<path fill="#FFDD00" stroke="#000000" stroke-width="0.452" stroke-miterlimit="10" d="M321.294,182.34l97.435-18.604
			l97.435,18.604l50,142.046c0,0-16.24,27.438-147.435,27.438c-131.196,0-147.435-27.438-147.435-27.438L321.294,182.34z"/>
		<path opacity="0.9" fill="#FF0000" stroke="#000000" stroke-width="0.452" stroke-miterlimit="10" d="M531.062,227.671
			c-4.5-12.266-8.898-24.572-13.02-36.987L531.062,227.671z M498.135,182.127c16.15,51.189,38.443,99.993,54.167,151.303
			c10.403-4.991,12.803-9.044,12.803-9.044l-34.043-96.714c-4.5-12.266-8.898-24.572-13.02-36.987l-2.938-8.345l-1.115-0.213
			C508.704,182.127,503.42,182.127,498.135,182.127z M463.263,182.127c12.839,55.193,31.95,108.534,45.255,163.581
			c7.146-1.185,13.414-2.481,18.905-3.829c-15.036-53.972-36.598-105.71-51.484-159.752
			C470.575,182.127,468.06,182.127,463.263,182.127z M436.425,182.127c4.961,56.46,13.388,112.484,19.346,168.828
			c7.749-0.375,14.961-0.86,21.667-1.438c-9.269-56.01-22.566-111.219-31.002-167.39
			C442.281,182.127,440.297,182.127,436.425,182.127z M413.159,182.127c-4.603,56.518-9.922,112.912-13.22,169.52
			c5.664,0.115,11.571,0.177,17.731,0.177c1.536,0,3.052-0.006,4.557-0.013c-0.44-56.571-0.698-113.108,0.056-169.684
			C418.625,182.127,416.817,182.127,413.159,182.127z M389.007,182.127c-13.531,55.703-31.361,110.069-43.039,166.211
			c6.427,0.72,13.386,1.354,20.922,1.876c8.628-56.459,21.908-111.906,32.126-168.087
			C395.146,182.127,393.162,182.127,389.007,182.127z M359.503,182.127c-19.002,53.03-43.359,103.588-59.635,157.586
			c4.849,1.431,10.466,2.837,16.958,4.157c15.096-55.143,37.903-107.35,55.353-161.743
			C367.382,182.127,364.865,182.127,359.503,182.127z M337.307,182.127c-5.318,0-10.638,0-15.956,0l-1.116,0.213l-50,142.046
			c0,0,1.751,2.959,8.752,6.935C294.867,280.05,318.099,232.164,337.307,182.127z"/>
		<g>
			<path opacity="0.3" fill="#231F20" stroke="#000000" stroke-width="0.452" stroke-miterlimit="10" d="M407.003,226.437
				c0,0-2.66,19.458-13.273,19.458s-9.887-20.687-9.887-20.687l12.246,0.659L407.003,226.437z"/>
			<path opacity="0.3" fill="#231F20" stroke="#000000" stroke-width="0.452" stroke-miterlimit="10" d="M383.832,225.319
				c0,0-2.66,19.459-13.273,19.459c-10.612,0-9.068-22.53-9.068-22.53l12.192,1.671L383.832,225.319z"/>
			<path opacity="0.3" fill="#231F20" stroke="#000000" stroke-width="0.452" stroke-miterlimit="10" d="M361.412,222.258
				c0,0-1.902,19.459-12.514,19.459c-10.614,0-8.421-23.96-8.421-23.96l10.374,2.434L361.412,222.258z"/>
			<path opacity="0.3" fill="#231F20" stroke="#000000" stroke-width="0.452" stroke-miterlimit="10" d="M340.477,217.757
				c0,0-0.765,19.553-11.377,19.553s-8.047-25.351-8.047-25.351l9.576,3.067L340.477,217.757z"/>
			<path opacity="0.3" fill="#231F20" stroke="#000000" stroke-width="0.452" stroke-miterlimit="10" d="M407.003,226.437
				c0,0,2.659,20.218,13.273,20.218c10.612,0,9.886-20.688,9.886-20.688l-11.838,0.469H407.003z"/>
			<path opacity="0.3" fill="#231F20" stroke="#000000" stroke-width="0.452" stroke-miterlimit="10" d="M430.293,225.868
				c0,0,2.371,19.262,12.984,19.262c10.612,0,9.722-21.595,9.722-21.595l-10.972,1.353L430.293,225.868z"/>
			<path opacity="0.3" fill="#231F20" stroke="#000000" stroke-width="0.452" stroke-miterlimit="10" d="M452.999,223.536
				c0,0,1.965,20.015,12.578,20.015c9.602,0,8.951-23.96,8.951-23.96l-10.335,2.114L452.999,223.536z"/>
			<path opacity="0.3" fill="#231F20" stroke="#000000" stroke-width="0.452" stroke-miterlimit="10" d="M474.528,219.59
				c0,0,0.819,20.053,11.432,20.053c9.308,0,8.622-25.331,8.622-25.331l-9.612,2.708L474.528,219.59z"/>
			<path opacity="0.3" fill="#231F20" stroke="#000000" stroke-width="0.452" stroke-miterlimit="10" d="M494.51,214.268
				c0,0,0.79,20.041,11.402,20.041c10.013,0,7.004-26.55,7.004-26.55l-7.02,2.553L494.51,214.268z"/>
			<path opacity="0.3" fill="#231F20" stroke="#000000" stroke-width="0.452" stroke-miterlimit="10" d="M512.897,207.758
				c0,0,0.028,19.531,10.641,19.531c10.613,0,6.578-27.306,6.578-27.306l-6.912,3.348L512.897,207.758z"/>
			<path fill="#FF0000" stroke="#000000" stroke-width="0.452" stroke-miterlimit="10" d="M544.479,198.991
				c0,0-1.545,17.417,4.507,16.048c7.43-1.682,0.095-18.316,0.095-18.316l0,0L544.479,198.991z"/>
			<g>
				<path fill="#FFDD00" stroke="#000000" stroke-width="0.452" stroke-miterlimit="10" d="M417.131,77.512
					c0.002-0.005,0.005-0.01,0.007-0.015c-0.019,0.098,0.204,1.071,0.678,1.182c-0.008-0.002-0.016-0.004-0.023-0.006
					c31.462,56.559,67.41,78.267,126.687,120.318c-3.533,1.686-7.178,3.303-10.932,4.847
					c-58.979-47.223-90.251-73.98-115.835-125.191c-0.039-0.016-0.081-0.036-0.123-0.06c19.433,46.991,44.87,77.925,99.049,131.481
					c-5.85,1.918-11.898,3.674-18.13,5.255c-46.28-58.503-66.368-92.025-81.039-136.817c-0.038-0.03-0.075-0.063-0.11-0.097
					c10.529,43.58,25.374,78.891,61.45,141.212c-6.909,1.272-13.994,2.338-21.228,3.186
					c-24.057-65.053-33.63-101.572-40.318-144.508c-0.027-0.038-0.053-0.077-0.076-0.117c2.986,42.658,7.228,79.864,18.007,146.508
					c-6.158,0.32-12.399,0.486-18.712,0.486c-1.421,0-2.838-0.01-4.252-0.026c3.099-67.043,4.229-104.432,4.899-147.088
					c-0.015-0.041-0.026-0.081-0.035-0.12c-4.35,42.915-10.859,79.979-27.699,146.216c-7.492-0.568-14.846-1.37-22.038-2.391
					c29.73-64.239,41.593-100.462,49.72-143.939c-0.002-0.037-0.002-0.072,0-0.105c-12.116,44.48-29.305,79.317-70.438,140.417
					c-6.564-1.375-12.956-2.939-19.153-4.68c50.518-56.839,73.072-89.626,89.604-135.828c0.006-0.027,0.013-0.051,0.02-0.072
					c-21.829,49.255-50.004,78.948-107.306,130.271c-5.836-2.091-11.452-4.349-16.824-6.76
					C353.146,156.933,387.872,132.876,417.131,77.512z"/>
				<path fill="#FF0000" stroke="#000000" stroke-width="0.452" stroke-miterlimit="10" d="M417.589,78.588
					c0.042,0.023,0.084,0.044,0.123,0.06c25.584,51.211,56.855,77.968,115.835,125.191c-5.421,2.231-11.063,4.312-16.909,6.23
					C462.459,156.513,437.021,125.579,417.589,78.588z"/>
				<path fill="#FF0000" stroke="#000000" stroke-width="0.452" stroke-miterlimit="10" d="M417.792,78.673
					c0.008,0.002,0.016,0.004,0.023,0.006c0.004,0.001,0.008,0.001,0.012,0.002c34.988,60.144,73.354,78.12,130.652,117.181
					c0.204,0.289,0.399,0.572,0.601,0.86c-1.511,0.77-3.046,1.526-4.602,2.269C485.202,156.94,449.254,135.232,417.792,78.673z"/>
				<path fill="#FF0000" stroke="#000000" stroke-width="0.452" stroke-miterlimit="10" d="M417.469,78.507
					c14.671,44.792,34.759,78.314,81.039,136.817c-6.384,1.621-12.958,3.057-19.699,4.298
					c-36.076-62.321-50.921-97.633-61.45-141.212C417.394,78.444,417.431,78.477,417.469,78.507z"/>
				<path fill="#FF0000" stroke="#000000" stroke-width="0.452" stroke-miterlimit="10" d="M417.263,78.3
					c6.688,42.936,16.262,79.455,40.318,144.508c-7.317,0.857-14.789,1.489-22.388,1.883
					c-10.779-66.644-15.021-103.85-18.007-146.508C417.21,78.223,417.235,78.262,417.263,78.3z"/>
				<path fill="#FF0000" stroke="#000000" stroke-width="0.452" stroke-miterlimit="10" d="M417.129,78.062
					c-0.67,42.656-1.801,80.045-4.899,147.088c-7.731-0.091-15.352-0.425-22.835-0.992c16.84-66.238,23.35-103.302,27.699-146.216
					C417.103,77.982,417.114,78.022,417.129,78.062z"/>
				<path fill="#FF0000" stroke="#000000" stroke-width="0.452" stroke-miterlimit="10" d="M417.076,77.829
					c-8.126,43.477-19.989,79.7-49.72,143.939c-7.072-1.001-13.986-2.215-20.718-3.627c41.133-61.101,58.322-95.938,70.438-140.417
					C417.074,77.757,417.074,77.792,417.076,77.829z"/>
				<path fill="#FF0000" stroke="#000000" stroke-width="0.452" stroke-miterlimit="10" d="M417.109,77.562
					c-0.007,0.021-0.014,0.045-0.02,0.072c-16.533,46.202-39.086,78.989-89.604,135.828c-6.089-1.71-11.991-3.589-17.682-5.628
					C367.105,156.509,395.28,126.816,417.109,77.562z"/>
				<path fill="#FF0000" stroke="#000000" stroke-width="0.452" stroke-miterlimit="10" d="M417.138,77.498
					c-0.002,0.004-0.005,0.009-0.007,0.015c-29.259,55.364-63.985,79.421-124.152,123.561c-2.899-1.301-5.728-2.647-8.481-4.037
					C343.015,157.193,382.1,138.852,417.138,77.498z"/>
			</g>
			<path fill="#FF0000" stroke="#000000" stroke-width="0.452" stroke-miterlimit="10" d="M412.229,225.151
				c0,0-2.622,15.71-13.087,15.71c-10.463,0-9.748-16.702-9.748-16.702l12.073,0.532L412.229,225.151z"/>
			<path fill="#FFDD00" stroke="#000000" stroke-width="0.452" stroke-miterlimit="10" d="M389.385,224.248
				c0,0-2.624,15.711-13.086,15.711c-10.465,0-8.942-18.191-8.942-18.191l12.022,1.35L389.385,224.248z"/>
			<path fill="#FF0000" stroke="#000000" stroke-width="0.452" stroke-miterlimit="10" d="M367.279,221.776
				c0,0-1.876,15.711-12.339,15.711c-10.464,0-8.302-19.346-8.302-19.346l10.229,1.967L367.279,221.776z"/>
			<path fill="#FFDD00" stroke="#000000" stroke-width="0.452" stroke-miterlimit="10" d="M346.638,218.141
				c0,0-0.753,15.789-11.218,15.789c-10.464,0-7.935-20.469-7.935-20.469l9.443,2.478L346.638,218.141z"/>
			<path fill="#FF0000" stroke="#000000" stroke-width="0.452" stroke-miterlimit="10" d="M327.485,213.482
				c0,0-0.754,15.787-11.218,15.787s-6.464-21.437-6.464-21.437l6.921,2.062L327.485,213.482z"/>
			<path fill="#FF0000" stroke="#231F20" stroke-width="0.452" stroke-miterlimit="10" d="M292.979,201.073
				c0,0,1.638,18.146-8.481,16.004c-5.813-1.23,0-20.041,0-20.041l0,0L292.979,201.073z"/>
			<path fill="#FFDD00" stroke="#000000" stroke-width="0.452" stroke-miterlimit="10" d="M309.803,207.833
				c0,0,0.125,15.285-10.337,15.285c-10.465,0-6.487-22.045-6.487-22.045l6.779,2.909L309.803,207.833z"/>
			<path fill="#FFDD00" stroke="#000000" stroke-width="0.452" stroke-miterlimit="10" d="M412.229,225.151
				c0,0,2.624,16.323,13.087,16.323c10.464,0,9.748-16.702,9.748-16.702l-11.672,0.379H412.229z"/>
			<path fill="#FF0000" stroke="#000000" stroke-width="0.452" stroke-miterlimit="10" d="M435.193,224.691
				c0,0,2.338,15.552,12.802,15.552s9.586-17.436,9.586-17.436l-10.817,1.092L435.193,224.691z"/>
			<path fill="#FFDD00" stroke="#000000" stroke-width="0.452" stroke-miterlimit="10" d="M457.581,222.808
				c0,0,1.937,16.16,12.4,16.16c9.467,0,8.827-19.345,8.827-19.345l-10.191,1.707L457.581,222.808z"/>
			<path fill="#FF0000" stroke="#000000" stroke-width="0.452" stroke-miterlimit="10" d="M478.809,219.622
				c0,0,0.807,16.189,11.271,16.189c9.176,0,8.5-20.451,8.5-20.451l-9.477,2.186L478.809,219.622z"/>
			<path fill="#FFDD00" stroke="#000000" stroke-width="0.452" stroke-miterlimit="10" d="M498.508,215.324
				c0,0,0.778,16.182,11.242,16.182c9.872,0,6.905-21.437,6.905-21.437l-6.921,2.062L498.508,215.324z"/>
			<path fill="#FFDD00" stroke="#000000" stroke-width="0.452" stroke-miterlimit="10" d="M533.547,203.838
				c0,0-0.61,18.092,9.349,15.51c7.346-1.904,1.589-20.357,1.589-20.357l0,0L533.547,203.838z"/>
			<path fill="#FF0000" stroke="#000000" stroke-width="0.452" stroke-miterlimit="10" d="M516.638,210.069
				c0,0,0.027,15.769,10.492,15.769c10.463,0,6.485-22.044,6.485-22.044l-6.816,2.702L516.638,210.069z"/>
		</g>
	</g>
	<polygon points="417.67,351.823 420.853,240.337 421.996,240.861 422.227,351.811 	"/>
	<line fill="none" stroke="#000000" stroke-miterlimit="10" x1="417.358" y1="78.588" x2="417.358" y2="38.855"/>
	<circle fill="#FFDD00" stroke="#000000" stroke-width="0.452" stroke-miterlimit="10" cx="417.635" cy="35.637" r="3.218"/>
	<g>
		
			<line fill="none" stroke="#231F20" stroke-width="0.452" stroke-miterlimit="10" x1="532.899" y1="221.771" x2="624.779" y2="304.623"/>
		<polygon fill="#FF0000" stroke="#231F20" stroke-width="0.452" stroke-miterlimit="10" points="535.625,224.229 538.326,237.06 
			542.537,230.461 		"/>
		<polygon fill="#FF0000" stroke="#231F20" stroke-width="0.452" stroke-miterlimit="10" points="564.9,250.745 567.6,263.577 
			571.811,256.978 		"/>
		<polygon fill="#FF0000" stroke="#231F20" stroke-width="0.452" stroke-miterlimit="10" points="597.822,280.287 600.521,293.118 
			604.732,286.519 		"/>
		<polygon fill="#5FBBCF" stroke="#231F20" stroke-width="0.452" stroke-miterlimit="10" points="544.869,232.582 547.57,245.414 
			551.781,238.814 		"/>
		<polygon fill="#5FBBCF" stroke="#231F20" stroke-width="0.452" stroke-miterlimit="10" points="607.903,289.466 610.604,302.299 
			614.814,295.699 		"/>
		<polygon fill="#5FBBCF" stroke="#231F20" stroke-width="0.452" stroke-miterlimit="10" points="575.384,260.111 578.084,272.942 
			582.295,266.343 		"/>
		<polygon fill="#FFDD00" stroke="#231F20" stroke-width="0.452" stroke-miterlimit="10" points="555.477,242.153 558.176,254.985 
			562.387,248.386 		"/>
		<polygon fill="#FFDD00" stroke="#231F20" stroke-width="0.452" stroke-miterlimit="10" points="586.607,270.193 589.307,283.024 
			593.518,276.425 		"/>
	</g>
	<g>
		
			<line fill="none" stroke="#231F20" stroke-width="0.452" stroke-miterlimit="10" x1="299.466" y1="223.118" x2="207.586" y2="305.97"/>
		<polygon fill="#FF0000" stroke="#231F20" stroke-width="0.452" stroke-miterlimit="10" points="296.74,225.576 294.04,238.408 
			289.829,231.809 		"/>
		<polygon fill="#FF0000" stroke="#231F20" stroke-width="0.452" stroke-miterlimit="10" points="267.465,252.093 264.765,264.924 
			260.554,258.325 		"/>
		<polygon fill="#FF0000" stroke="#231F20" stroke-width="0.452" stroke-miterlimit="10" points="234.543,281.634 231.843,294.466 
			227.632,287.867 		"/>
		<polygon fill="#5FBBCF" stroke="#231F20" stroke-width="0.452" stroke-miterlimit="10" points="287.496,233.93 284.795,246.761 
			280.584,240.162 		"/>
		<polygon fill="#5FBBCF" stroke="#231F20" stroke-width="0.452" stroke-miterlimit="10" points="224.462,290.814 221.762,303.646 
			217.551,297.046 		"/>
		<polygon fill="#5FBBCF" stroke="#231F20" stroke-width="0.452" stroke-miterlimit="10" points="256.981,261.458 254.281,274.29 
			250.07,267.691 		"/>
		<polygon fill="#FFDD00" stroke="#231F20" stroke-width="0.452" stroke-miterlimit="10" points="276.889,243.501 274.189,256.333 
			269.978,249.733 		"/>
		<polygon fill="#FFDD00" stroke="#231F20" stroke-width="0.452" stroke-miterlimit="10" points="245.758,271.541 243.058,284.372 
			238.847,277.773 		"/>
	</g>
	<polygon fill="#FFDD00" points="738.832,31.729 743.093,40.905 748.59,32.411 751.531,42.091 758.156,34.445 759.723,44.44 
		767.348,37.791 767.508,47.906 775.984,42.382 774.735,52.422 783.897,48.132 781.264,57.9 790.934,54.926 786.966,64.233 
		796.955,62.634 791.73,71.298 801.846,71.104 795.467,78.957 805.511,80.174 798.1,87.062 807.877,89.664 799.579,95.454 
		808.898,99.392 799.877,103.971 808.558,109.167 798.986,112.445 806.859,118.8 796.925,120.714 803.836,128.103 793.732,128.616 
		799.549,136.894 789.472,135.996 794.079,145.003 784.225,142.711 787.534,152.271 778.095,148.631 780.041,158.559 771.2,153.64 
		771.746,163.742 763.676,157.64 762.811,167.72 755.668,160.555 753.408,170.417 747.333,162.327 743.723,171.778 738.832,162.921 
		733.941,171.778 730.331,162.327 724.255,170.417 721.995,160.555 714.853,167.72 713.987,157.64 705.917,163.742 706.463,153.64 
		697.623,158.559 699.569,148.631 690.129,152.271 693.438,142.711 683.585,145.003 688.192,135.996 678.115,136.894 
		683.932,128.616 673.827,128.103 680.739,120.714 670.805,118.8 678.678,112.445 669.106,109.167 677.787,103.971 668.765,99.392 
		678.084,95.454 669.787,89.664 679.563,87.062 672.153,80.174 682.197,78.957 675.818,71.104 685.934,71.298 680.709,62.634 
		690.698,64.233 686.73,54.926 696.4,57.9 693.766,48.132 702.929,52.422 701.68,42.382 710.155,47.906 710.315,37.791 
		717.94,44.44 719.507,34.445 726.132,42.091 729.074,32.411 734.57,40.905 	"/>
	<path fill="#FF0000" stroke="#000000" stroke-width="0.452" stroke-miterlimit="10" d="M417.358,45.077
		c0,0,9.296,1.598,20.492-10.621v24.723c0,0-14.401,12.363-20.492,10.123V45.077z"/>
</g>
<g id="Layer_5">
</g>
<g id="Layer_4">
</g>
<g id="mutsjes">
</g>
<g id="molltjes">
</g>
</svg>
