<?xml version="1.0" encoding="utf-8"?>
<!-- Generator: Adobe Illustrator 15.0.0, SVG Export Plug-In . SVG Version: 6.00 Build 0)  -->
<!DOCTYPE svg PUBLIC "-//W3C//DTD SVG 1.1//EN" "http://www.w3.org/Graphics/SVG/1.1/DTD/svg11.dtd">
<svg version="1.1" xmlns="http://www.w3.org/2000/svg" xmlns:xlink="http://www.w3.org/1999/xlink" x="0px" y="0px"
	 width="841.89px" height="595.28px" viewBox="0 0 841.89 595.28" enable-background="new 0 0 841.89 595.28" xml:space="preserve">
<g id="achtergrond">
	
		<line fill="none" stroke="#000000" stroke-width="0.452" stroke-miterlimit="10" x1="418.358" y1="79.586" x2="278.201" y2="279.263"/>
	
		<line fill="none" stroke="#000000" stroke-width="0.452" stroke-miterlimit="10" x1="417.358" y1="79.586" x2="572.334" y2="286.947"/>
	<defs>
		<filter id="Adobe_OpacityMaskFilter" filterUnits="userSpaceOnUse" x="-0.092" y="190.133" width="841.982" height="405.147">
			<feColorMatrix  type="matrix" values="1 0 0 0 0  0 1 0 0 0  0 0 1 0 0  0 0 0 1 0"/>
		</filter>
	</defs>
	<mask maskUnits="userSpaceOnUse" x="-0.092" y="190.133" width="841.982" height="405.147" id="SVGID_1_">
		<g filter="url(#Adobe_OpacityMaskFilter)">
			<linearGradient id="SVGID_2_" gradientUnits="userSpaceOnUse" x1="421.6836" y1="595.2803" x2="421.6836" y2="158.8823">
				<stop  offset="0" style="stop-color:#FFFFFF"/>
				<stop  offset="0.3482" style="stop-color:#F9F9F9"/>
				<stop  offset="0.4908" style="stop-color:#F5F5F5"/>
				<stop  offset="0.5573" style="stop-color:#F1F1F1"/>
				<stop  offset="0.6227" style="stop-color:#E5E5E5"/>
				<stop  offset="0.6876" style="stop-color:#D1D1D1"/>
				<stop  offset="0.7523" style="stop-color:#B6B6B6"/>
				<stop  offset="0.8169" style="stop-color:#929292"/>
				<stop  offset="0.8814" style="stop-color:#666666"/>
				<stop  offset="0.9445" style="stop-color:#333333"/>
				<stop  offset="1" style="stop-color:#000000"/>
			</linearGradient>
			<rect x="0.601" y="158.882" fill="url(#SVGID_2_)" width="842.167" height="436.398"/>
		</g>
	</mask>
	
		<linearGradient id="SVGID_3_" gradientUnits="userSpaceOnUse" x1="210.5552" y1="402.1807" x2="615.7021" y2="402.1807" gradientTransform="matrix(0 1 -1 0 823.0791 -20.4219)">
		<stop  offset="0" style="stop-color:#99D647"/>
		<stop  offset="1" style="stop-color:#5FBB46"/>
	</linearGradient>
	<path mask="url(#SVGID_1_)" fill="url(#SVGID_3_)" d="M0.093,595.28l-0.186-405.147c0,0,66.044,17.044,196.064,14.615
		c174.621-3.263,259.965,17.792,417.609,35.489c119.678,13.435,228.309-9.859,228.309-9.859V595.28H0.093z"/>
	<defs>
		<filter id="Adobe_OpacityMaskFilter_1_" filterUnits="userSpaceOnUse" x="0" y="244.939" width="841.705" height="350.341">
			<feColorMatrix  type="matrix" values="1 0 0 0 0  0 1 0 0 0  0 0 1 0 0  0 0 0 1 0"/>
		</filter>
	</defs>
	<mask maskUnits="userSpaceOnUse" x="0" y="244.939" width="841.705" height="350.341" id="SVGID_4_">
		<g filter="url(#Adobe_OpacityMaskFilter_1_)">
			
				<linearGradient id="SVGID_5_" gradientUnits="userSpaceOnUse" x1="421.7305" y1="560.0938" x2="421.7304" y2="207.3237" gradientTransform="matrix(-1 0 0 1 841.8906 0)">
				<stop  offset="0" style="stop-color:#FFFFFF"/>
				<stop  offset="0.3482" style="stop-color:#F9F9F9"/>
				<stop  offset="0.4908" style="stop-color:#F5F5F5"/>
				<stop  offset="0.5573" style="stop-color:#F1F1F1"/>
				<stop  offset="0.6227" style="stop-color:#E5E5E5"/>
				<stop  offset="0.6876" style="stop-color:#D1D1D1"/>
				<stop  offset="0.7523" style="stop-color:#B6B6B6"/>
				<stop  offset="0.8169" style="stop-color:#929292"/>
				<stop  offset="0.8814" style="stop-color:#666666"/>
				<stop  offset="0.9445" style="stop-color:#333333"/>
				<stop  offset="1" style="stop-color:#000000"/>
			</linearGradient>
			<rect x="-0.878" y="207.324" fill="url(#SVGID_5_)" width="842.075" height="352.769"/>
		</g>
	</mask>
	
		<linearGradient id="SVGID_6_" gradientUnits="userSpaceOnUse" x1="265.3613" y1="402.041" x2="615.7021" y2="402.041" gradientTransform="matrix(0 1 1 0 18.8115 -20.4219)">
		<stop  offset="0" style="stop-color:#99D647"/>
		<stop  offset="1" style="stop-color:#5FBB46"/>
	</linearGradient>
	<path mask="url(#SVGID_4_)" fill="url(#SVGID_6_)" d="M841.705,595.28V277.279c0,0-323.776-57.377-612.95-19.281
		C109.628,273.692,0,265.118,0,265.118V595.28H841.705z"/>
	<linearGradient id="SVGID_7_" gradientUnits="userSpaceOnUse" x1="420.853" y1="154.4688" x2="420.853" y2="1.421085e-13">
		<stop  offset="0" style="stop-color:#FFFFFF"/>
		<stop  offset="1" style="stop-color:#5FBBCF"/>
	</linearGradient>
	<rect opacity="0.3" fill="url(#SVGID_7_)" width="841.705" height="154.469"/>
	<path fill="none" stroke="#000000" stroke-width="0.452" stroke-miterlimit="10" d="M420.945,305.97"/>
	<circle fill="#FFDD00" stroke="#000000" stroke-width="0.452" stroke-miterlimit="10" cx="417.635" cy="35.637" r="3.218"/>
	<line fill="none" stroke="#000000" stroke-width="2" stroke-miterlimit="10" x1="417.635" y1="38.855" x2="417.635" y2="326.833"/>
	<path fill="none" stroke="#000000" stroke-width="0.452" stroke-miterlimit="10" d="M307.667,349.484"/>
	<path fill="none" stroke="#000000" stroke-width="0.452" stroke-miterlimit="10" d="M417.358,79.586"/>
	<g>
		<g>
			<g>
				<g>
					<path fill="none" stroke="#059F14" stroke-width="0.4455" stroke-miterlimit="10" d="M262.554,283.631
						c0,0,0.261-7.615-0.203-11.395l1.748,12.127c0,0,0.493-5.724,0.658-7.197l0.426,6.759c0,0,0.515-4.604,1.658-8.204
						c0,0-0.141,3.899,0.027,5.037c0,0,1.873-3.52,1.847-7.251c0,0,0.383,5.822,0.053,8.768c0,0,0.538-3.482,1.454-5.057
						c0,0-0.867,6.428-0.825,7.365c0,0,1.075-6.964,2.866-9.747c0,0-0.371,3.314-0.431,5.171l1.332-2.647
						c0,0-0.188,0.352-0.454,4.051c0,0,2.684-5.479,2.826-8.073c0,0-0.388,6.108-1.01,9.021"/>
				</g>
				<g>
					<path fill="none" stroke="#059F14" stroke-width="0.4455" stroke-miterlimit="10" d="M276.171,285.156
						c0,0,0.261-7.615-0.203-11.395l1.748,12.127c0,0,0.493-5.724,0.658-7.197l0.426,6.759c0,0,0.515-4.604,1.658-8.204
						c0,0-0.141,3.899,0.027,5.037c0,0,1.873-3.52,1.847-7.251c0,0,0.383,5.822,0.053,8.768c0,0,0.538-3.482,1.454-5.057
						c0,0-0.867,6.428-0.825,7.365c0,0,1.075-6.964,2.866-9.747c0,0-0.371,3.314-0.431,5.171l1.332-2.647
						c0,0-0.188,0.352-0.454,4.051c0,0,2.684-5.479,2.826-8.073c0,0-0.388,6.108-1.01,9.021"/>
				</g>
			</g>
		</g>
	</g>
	<g>
		<g>
			<g>
				<g>
					<path fill="none" stroke="#059F14" stroke-width="0.4455" stroke-miterlimit="10" d="M295.015,352.713
						c0,0,0.261-7.614-0.203-11.395l1.748,12.127c0,0,0.493-5.724,0.658-7.197l0.426,6.76c0,0,0.515-4.604,1.658-8.204
						c0,0-0.141,3.899,0.027,5.037c0,0,1.873-3.52,1.847-7.251c0,0,0.383,5.822,0.053,8.769c0,0,0.538-3.482,1.454-5.058
						c0,0-0.867,6.429-0.825,7.365c0,0,1.075-6.964,2.866-9.747c0,0-0.371,3.314-0.431,5.172l1.332-2.647
						c0,0-0.188,0.353-0.454,4.052c0,0,2.684-5.479,2.826-8.073c0,0-0.388,6.108-1.01,9.021"/>
				</g>
				<g>
					<path fill="none" stroke="#059F14" stroke-width="0.4455" stroke-miterlimit="10" d="M308.632,354.237
						c0,0,0.261-7.614-0.203-11.395l1.748,12.127c0,0,0.493-5.724,0.658-7.197l0.426,6.76c0,0,0.515-4.604,1.658-8.204
						c0,0-0.141,3.899,0.027,5.037c0,0,1.873-3.52,1.847-7.251c0,0,0.383,5.822,0.053,8.769c0,0,0.538-3.482,1.454-5.058
						c0,0-0.867,6.429-0.825,7.365c0,0,1.075-6.964,2.866-9.747c0,0-0.371,3.314-0.431,5.172l1.332-2.647
						c0,0-0.188,0.353-0.454,4.052c0,0,2.684-5.479,2.826-8.073c0,0-0.388,6.108-1.01,9.021"/>
				</g>
			</g>
		</g>
	</g>
	
		<line fill="none" stroke="#9C4F17" stroke-width="2" stroke-miterlimit="10" x1="398.333" y1="347.696" x2="398.333" y2="318.643"/>
	
		<line fill="none" stroke="#000000" stroke-width="0.452" stroke-miterlimit="10" x1="534.357" y1="219.622" x2="626.334" y2="305.97"/>
	<path fill="#FFDD00" stroke="#000000" stroke-width="0.452" stroke-miterlimit="10" d="M321.294,182.34l97.435-18.604
		l97.435,18.604l50,142.046c0,0-16.24,27.438-147.435,27.438c-131.196,0-147.435-27.438-147.435-27.438L321.294,182.34z"/>
	<path stroke="#000000" stroke-width="0.452" stroke-miterlimit="10" d="M413.015,182.127c-4.603,56.518-9.922,112.912-13.22,169.52
		c5.664,0.115,11.571,0.177,17.731,0.177c1.536,0,16.045-0.143,17.55-0.149c-0.104-13.459,4.64-20.891,2.309-34.144
		c-9.196-52.29-15.82-92.289-15.246-135.403C418.48,182.127,416.673,182.127,413.015,182.127z"/>
	<path opacity="0.9" fill="#FF0000" stroke="#000000" stroke-width="0.452" stroke-miterlimit="10" d="M531.062,227.671
		c-4.5-12.266-8.898-24.572-13.02-36.987L531.062,227.671z M498.135,182.127c16.15,51.189,38.443,99.993,54.167,151.303
		c10.403-4.991,12.803-9.044,12.803-9.044l-34.043-96.714c-4.5-12.266-8.898-24.572-13.02-36.987l-2.938-8.345l-1.115-0.213
		C508.704,182.127,503.42,182.127,498.135,182.127z M463.263,182.127c12.839,55.193,31.95,108.534,45.255,163.581
		c7.146-1.185,13.414-2.481,18.905-3.829c-15.036-53.972-36.598-105.71-51.484-159.752
		C470.575,182.127,468.06,182.127,463.263,182.127z M436.425,182.127c4.961,56.46,13.388,112.484,19.346,168.828
		c7.749-0.375,14.961-0.86,21.667-1.438c-9.269-56.01-22.566-111.219-31.002-167.39
		C442.281,182.127,440.297,182.127,436.425,182.127z M389.007,182.127c-13.531,55.703-31.361,110.069-43.039,166.211
		c6.427,0.72,13.386,1.354,20.922,1.876c8.628-56.459,21.908-111.906,32.126-168.087
		C395.146,182.127,393.162,182.127,389.007,182.127z M359.503,182.127c-19.002,53.03-43.359,103.588-59.635,157.586
		c4.849,1.431,10.466,2.837,16.958,4.157c15.096-55.143,37.903-107.35,55.353-161.743
		C367.382,182.127,364.865,182.127,359.503,182.127z M337.307,182.127c-5.318,0-10.638,0-15.956,0l-1.116,0.213l-50,142.046
		c0,0,1.751,2.959,8.752,6.935C294.867,280.05,318.099,232.164,337.307,182.127z"/>
	<path fill="#FF0000" stroke="#000000" stroke-width="0.452" stroke-miterlimit="10" d="M425.474,238.967
		c0,0,1.72,36.618,8.295,55.911s-6.423,57.284-6.423,57.284l20.803-4.107c0,0,3.341-24.833-9.774-53.533
		S425.474,238.967,425.474,238.967z"/>
	<g>
		<g>
			
				<line fill="none" stroke="#9C4F17" stroke-width="3" stroke-miterlimit="10" x1="404.199" y1="216.786" x2="380.336" y2="358.814"/>
			
				<line fill="none" stroke="#9C4F17" stroke-width="3" stroke-miterlimit="10" x1="384.304" y1="216.884" x2="357.305" y2="358.927"/>
			
				<line fill="none" stroke="#9C4F17" stroke-width="3" stroke-miterlimit="10" x1="401.973" y1="230.036" x2="381.796" y2="230.135"/>
			
				<line fill="none" stroke="#9C4F17" stroke-width="3" stroke-miterlimit="10" x1="398.2" y1="246.021" x2="378.023" y2="246.121"/>
			
				<line fill="none" stroke="#9C4F17" stroke-width="3" stroke-miterlimit="10" x1="396.648" y1="260.221" x2="376.471" y2="260.32"/>
			
				<line fill="none" stroke="#9C4F17" stroke-width="3" stroke-miterlimit="10" x1="393.795" y1="274.54" x2="373.619" y2="274.639"/>
			
				<line fill="none" stroke="#9C4F17" stroke-width="3" stroke-miterlimit="10" x1="392.169" y1="287.801" x2="371.993" y2="287.9"/>
			
				<line fill="none" stroke="#9C4F17" stroke-width="3" stroke-miterlimit="10" x1="390.134" y1="299.924" x2="369.958" y2="300.023"/>
			
				<line fill="none" stroke="#9C4F17" stroke-width="3" stroke-miterlimit="10" x1="387.433" y1="311.289" x2="367.257" y2="311.391"/>
			
				<line fill="none" stroke="#9C4F17" stroke-width="3" stroke-miterlimit="10" x1="384.952" y1="324.21" x2="364.775" y2="324.309"/>
		</g>
		
			<line fill="none" stroke="#9C4F17" stroke-width="3" stroke-miterlimit="10" x1="382.335" y1="339.355" x2="362.159" y2="339.456"/>
		
			<line fill="none" stroke="#9C4F17" stroke-width="3" stroke-miterlimit="10" x1="380.302" y1="351.744" x2="360.126" y2="351.843"/>
	</g>
	<g>
		<path opacity="0.3" fill="#231F20" stroke="#000000" stroke-width="0.452" stroke-miterlimit="10" d="M407.003,226.437
			c0,0-2.66,19.458-13.273,19.458s-9.887-20.687-9.887-20.687l12.246,0.659L407.003,226.437z"/>
		<path opacity="0.3" fill="#231F20" stroke="#000000" stroke-width="0.452" stroke-miterlimit="10" d="M383.832,225.319
			c0,0-2.66,19.459-13.273,19.459c-10.612,0-9.068-22.53-9.068-22.53l12.192,1.671L383.832,225.319z"/>
		<path opacity="0.3" fill="#231F20" stroke="#000000" stroke-width="0.452" stroke-miterlimit="10" d="M361.412,222.258
			c0,0-1.902,19.459-12.514,19.459c-10.614,0-8.421-23.96-8.421-23.96l10.374,2.434L361.412,222.258z"/>
		<path opacity="0.3" fill="#231F20" stroke="#000000" stroke-width="0.452" stroke-miterlimit="10" d="M340.477,217.757
			c0,0-0.765,19.553-11.377,19.553s-8.047-25.351-8.047-25.351l9.576,3.067L340.477,217.757z"/>
		<path opacity="0.3" fill="#231F20" stroke="#000000" stroke-width="0.452" stroke-miterlimit="10" d="M407.003,226.437
			c0,0,2.659,20.218,13.273,20.218c10.612,0,9.886-20.688,9.886-20.688l-11.838,0.469H407.003z"/>
		<path opacity="0.3" fill="#231F20" stroke="#000000" stroke-width="0.452" stroke-miterlimit="10" d="M430.293,225.868
			c0,0,2.371,19.262,12.984,19.262c10.612,0,9.722-21.595,9.722-21.595l-10.972,1.353L430.293,225.868z"/>
		<path opacity="0.3" fill="#231F20" stroke="#000000" stroke-width="0.452" stroke-miterlimit="10" d="M452.999,223.536
			c0,0,1.965,20.015,12.578,20.015c9.602,0,8.951-23.96,8.951-23.96l-10.335,2.114L452.999,223.536z"/>
		<path opacity="0.3" fill="#231F20" stroke="#000000" stroke-width="0.452" stroke-miterlimit="10" d="M474.528,219.59
			c0,0,0.819,20.053,11.432,20.053c9.308,0,8.622-25.331,8.622-25.331l-9.612,2.708L474.528,219.59z"/>
		<path opacity="0.3" fill="#231F20" stroke="#000000" stroke-width="0.452" stroke-miterlimit="10" d="M494.51,214.268
			c0,0,0.79,20.041,11.402,20.041c10.013,0,7.004-26.55,7.004-26.55l-7.02,2.553L494.51,214.268z"/>
		<path opacity="0.3" fill="#231F20" stroke="#000000" stroke-width="0.452" stroke-miterlimit="10" d="M512.897,207.758
			c0,0,0.028,19.531,10.641,19.531c10.613,0,6.578-27.306,6.578-27.306l-6.912,3.348L512.897,207.758z"/>
		<path fill="#FF0000" stroke="#000000" stroke-width="0.452" stroke-miterlimit="10" d="M544.479,198.991
			c0,0-1.545,17.417,4.507,16.048c7.43-1.682,0.095-18.316,0.095-18.316l0,0L544.479,198.991z"/>
		<g>
			<path fill="#FF0000" stroke="#000000" stroke-width="0.452" stroke-miterlimit="10" d="M417.589,78.588
				c0.042,0.023,0.084,0.044,0.123,0.06c25.584,51.211,56.855,77.968,115.835,125.191c-5.421,2.231-11.063,4.312-16.909,6.23
				C462.459,156.513,437.021,125.579,417.589,78.588z"/>
			<path fill="#FF0000" stroke="#000000" stroke-width="0.452" stroke-miterlimit="10" d="M417.792,78.673
				c0.008,0.002,0.016,0.004,0.023,0.006c0.004,0.001,0.008,0.001,0.012,0.002c34.988,60.144,73.354,78.12,130.652,117.181
				c0.204,0.289,0.399,0.572,0.601,0.86c-1.511,0.77-3.046,1.526-4.602,2.269C485.202,156.94,449.254,135.232,417.792,78.673z"/>
			<path fill="#FF0000" stroke="#000000" stroke-width="0.452" stroke-miterlimit="10" d="M417.469,78.507
				c14.671,44.792,34.759,78.314,81.039,136.817c-6.384,1.621-12.958,3.057-19.699,4.298
				c-36.076-62.321-50.921-97.633-61.45-141.212C417.394,78.444,417.431,78.477,417.469,78.507z"/>
			<path fill="#FF0000" stroke="#000000" stroke-width="0.452" stroke-miterlimit="10" d="M417.076,77.829
				c-8.126,43.477-19.989,79.7-49.72,143.939c-7.072-1.001-13.986-2.215-20.718-3.627c41.133-61.101,58.322-95.938,70.438-140.417
				C417.074,77.757,417.074,77.792,417.076,77.829z"/>
			<path fill="#FF0000" stroke="#000000" stroke-width="0.452" stroke-miterlimit="10" d="M417.109,77.562
				c-0.007,0.021-0.014,0.045-0.02,0.072c-16.533,46.202-39.086,78.989-89.604,135.828c-6.089-1.71-11.991-3.589-17.682-5.628
				C367.105,156.509,395.28,126.816,417.109,77.562z"/>
			<path fill="#FF0000" stroke="#000000" stroke-width="0.452" stroke-miterlimit="10" d="M417.138,77.498
				c-0.002,0.004-0.005,0.009-0.007,0.015c-29.259,55.364-63.985,79.421-124.152,123.561c-2.899-1.301-5.728-2.647-8.481-4.037
				C343.015,157.193,382.1,138.852,417.138,77.498z"/>
			<path fill="#FFDD00" stroke="#000000" stroke-width="0.452" stroke-miterlimit="10" d="M417.131,77.512
				c0.002-0.005,0.005-0.01,0.007-0.015c-0.019,0.098,0.204,1.071,0.678,1.182c-0.008-0.002-0.016-0.004-0.023-0.006
				c31.462,56.559,67.41,78.267,126.687,120.318c-3.533,1.686-7.178,3.303-10.932,4.847
				c-58.979-47.223-90.251-73.98-115.835-125.191c-0.039-0.016-0.081-0.036-0.123-0.06c19.433,46.991,44.87,77.925,99.049,131.481
				c-5.85,1.918-11.898,3.674-18.13,5.255c-46.28-58.503-66.368-92.025-81.039-136.817c-0.038-0.03-0.075-0.063-0.11-0.097
				c10.529,43.58,25.374,78.891,61.45,141.212c-6.909,1.272-13.994,2.338-21.228,3.186c-24.057-65.053-33.63-101.572-40.318-144.508
				c-0.027-0.038-0.053-0.077-0.076-0.117c2.986,42.658,7.228,79.864,18.007,146.508c-6.158,0.32-12.399,0.486-18.712,0.486
				c-1.421,0-2.838-0.01-4.252-0.026c3.099-67.043,4.229-104.432,4.899-147.088c-0.015-0.041-0.026-0.081-0.035-0.12
				c-4.35,42.915-10.859,79.979-27.699,146.216c-7.492-0.568-14.846-1.37-22.038-2.391c29.73-64.239,41.593-100.462,49.72-143.939
				c-0.002-0.037-0.002-0.072,0-0.105c-12.116,44.48-29.305,79.317-70.438,140.417c-6.564-1.375-12.956-2.939-19.153-4.68
				c50.518-56.839,73.072-89.626,89.604-135.828c0.006-0.027,0.013-0.051,0.02-0.072c-21.829,49.255-50.004,78.948-107.306,130.271
				c-5.836-2.091-11.452-4.349-16.824-6.76C353.146,156.933,387.872,132.876,417.131,77.512z"/>
			<path fill="#FF0000" stroke="#000000" stroke-width="0.452" stroke-miterlimit="10" d="M417.129,78.062
				c-0.67,42.656-1.801,80.045-4.899,147.088c-7.731-0.091-15.352-0.425-22.835-0.992c16.84-66.238,23.35-103.302,27.699-146.216
				C417.103,77.982,417.114,78.022,417.129,78.062z"/>
			<path fill="#FF0000" stroke="#000000" stroke-width="0.452" stroke-miterlimit="10" d="M417.263,78.3
				c6.688,42.936,16.262,79.455,40.318,144.508c-7.317,0.857-14.789,1.489-22.388,1.883
				c-10.779-66.644-15.021-103.85-18.007-146.508C417.21,78.223,417.235,78.262,417.263,78.3z"/>
		</g>
		<path fill="#FF0000" stroke="#000000" stroke-width="0.452" stroke-miterlimit="10" d="M367.279,221.776
			c0,0-1.876,15.711-12.339,15.711c-10.464,0-8.302-19.346-8.302-19.346l10.229,1.967L367.279,221.776z"/>
		<path fill="#FFDD00" stroke="#000000" stroke-width="0.452" stroke-miterlimit="10" d="M346.638,218.141
			c0,0-0.753,15.789-11.218,15.789c-10.464,0-7.935-20.469-7.935-20.469l9.443,2.478L346.638,218.141z"/>
		<path fill="#FF0000" stroke="#000000" stroke-width="0.452" stroke-miterlimit="10" d="M327.485,213.482
			c0,0-0.754,15.787-11.218,15.787s-6.464-21.437-6.464-21.437l6.921,2.062L327.485,213.482z"/>
		<path fill="#FF0000" stroke="#231F20" stroke-width="0.452" stroke-miterlimit="10" d="M292.979,201.073
			c0,0,1.638,18.146-8.481,16.004c-5.813-1.23,0-20.041,0-20.041l0,0L292.979,201.073z"/>
		<path fill="#FFDD00" stroke="#000000" stroke-width="0.452" stroke-miterlimit="10" d="M309.803,207.833
			c0,0,0.125,15.285-10.337,15.285c-10.465,0-6.487-22.045-6.487-22.045l6.779,2.909L309.803,207.833z"/>
		<path fill="#FF0000" stroke="#000000" stroke-width="0.452" stroke-miterlimit="10" d="M435.193,224.691
			c0,0,2.338,15.552,12.802,15.552s9.586-17.436,9.586-17.436l-10.817,1.092L435.193,224.691z"/>
		<path fill="#FFDD00" stroke="#000000" stroke-width="0.452" stroke-miterlimit="10" d="M457.581,222.808
			c0,0,1.937,16.16,12.4,16.16c9.467,0,8.827-19.345,8.827-19.345l-10.191,1.707L457.581,222.808z"/>
		<path fill="#FF0000" stroke="#000000" stroke-width="0.452" stroke-miterlimit="10" d="M478.809,219.622
			c0,0,0.807,16.189,11.271,16.189c9.176,0,8.5-20.451,8.5-20.451l-9.477,2.186L478.809,219.622z"/>
		<path fill="#FFDD00" stroke="#000000" stroke-width="0.452" stroke-miterlimit="10" d="M498.508,215.324
			c0,0,0.778,16.182,11.242,16.182c9.872,0,6.905-21.437,6.905-21.437l-6.921,2.062L498.508,215.324z"/>
		<path fill="#FFDD00" stroke="#000000" stroke-width="0.452" stroke-miterlimit="10" d="M533.547,203.838
			c0,0-0.61,18.092,9.349,15.51c7.346-1.904,1.589-20.357,1.589-20.357l0,0L533.547,203.838z"/>
		<path fill="#FF0000" stroke="#000000" stroke-width="0.452" stroke-miterlimit="10" d="M516.638,210.069
			c0,0,0.027,15.769,10.492,15.769c10.463,0,6.485-22.044,6.485-22.044l-6.816,2.702L516.638,210.069z"/>
		<path fill="#FF0000" stroke="#000000" stroke-width="0.452" stroke-miterlimit="10" d="M412.229,225.151
			c0,0-2.622,15.71-13.087,15.71c-10.463,0-9.748-16.702-9.748-16.702l12.073,0.532L412.229,225.151z"/>
		<path fill="#FFDD00" stroke="#000000" stroke-width="0.452" stroke-miterlimit="10" d="M389.385,224.248
			c0,0-2.624,15.711-13.086,15.711c-10.465,0-8.942-18.191-8.942-18.191l12.022,1.35L389.385,224.248z"/>
		<path fill="#FFDD00" stroke="#000000" stroke-width="0.452" stroke-miterlimit="10" d="M412.229,225.151
			c0,0,2.624,16.323,13.087,16.323c10.464,0,9.748-16.702,9.748-16.702l-11.672,0.379H412.229z"/>
	</g>
	<circle fill="#FFDD00" stroke="#000000" stroke-width="0.452" stroke-miterlimit="10" cx="417.635" cy="35.637" r="3.218"/>
	<g>
		<g>
			<g>
				<g>
					<path fill="none" stroke="#059F14" stroke-width="0.4875" stroke-miterlimit="10" d="M609.611,314.043
						c0,0-1.218-8.253-2.522-12.234l4.489,12.721c0,0-0.566-6.262-0.668-7.881l1.856,7.198c0,0-0.314-5.06,0.31-9.161
						c0,0,0.615,4.228,1.042,5.42c0,0,1.5-4.156,0.723-8.171c0,0,1.618,6.196,1.819,9.435c0,0-0.063-3.856,0.699-5.731
						c0,0,0.267,7.094,0.505,8.094c0,0-0.13-7.711,1.422-11.059c0,0,0.228,3.643,0.528,5.655l1.038-3.112
						c0,0-0.149,0.416,0.277,4.453c0,0,2.063-6.427,1.712-9.248c0,0,0.767,6.655,0.618,9.915"/>
				</g>
				<g>
					<path fill="none" stroke="#059F14" stroke-width="0.4875" stroke-miterlimit="10" d="M625.958,313.023
						c0,0-1.218-8.253-2.522-12.234l4.489,12.722c0,0-0.566-6.262-0.668-7.881l1.856,7.197c0,0-0.314-5.059,0.31-9.161
						c0,0,0.615,4.228,1.042,5.421c0,0,1.5-4.157,0.723-8.172c0,0,1.618,6.197,1.819,9.435c0,0-0.063-3.855,0.699-5.731
						c0,0,0.267,7.094,0.505,8.095c0,0-0.13-7.712,1.422-11.059c0,0,0.228,3.643,0.528,5.655l1.038-3.112
						c0,0-0.15,0.416,0.277,4.452c0,0,2.063-6.426,1.712-9.248c0,0,0.767,6.655,0.618,9.915"/>
				</g>
			</g>
		</g>
	</g>
	
		<line fill="none" stroke="#000000" stroke-width="0.452" stroke-miterlimit="10" x1="297.903" y1="222.93" x2="206.846" y2="308.415"/>
	<g>
		<g>
			<path fill="#FF0000" d="M395.6,367.841c-0.348,0-0.699-0.022-1.045-0.068c-2.106-0.277-3.979-1.358-5.273-3.045
				s-1.854-3.775-1.576-5.883c0.52-3.944,3.908-6.918,7.883-6.918c0.348,0,0.699,0.022,1.045,0.068
				c2.106,0.277,3.979,1.359,5.273,3.046c1.293,1.686,1.853,3.774,1.575,5.882C402.962,364.867,399.574,367.841,395.6,367.841z"/>
			<path d="M395.588,354.924c0.216,0,0.434,0.014,0.653,0.043c2.715,0.357,4.626,2.85,4.269,5.564
				c-0.328,2.495-2.46,4.312-4.91,4.312c-0.216,0-0.434-0.014-0.653-0.043c-2.715-0.357-4.627-2.85-4.27-5.564
				C391.005,356.741,393.138,354.924,395.588,354.924 M395.588,348.929L395.588,348.929c-5.474,0.001-10.14,4.096-10.854,9.525
				c-0.382,2.9,0.389,5.776,2.17,8.098s4.36,3.811,7.261,4.192c0.475,0.062,0.958,0.095,1.436,0.095
				c5.473,0,10.139-4.095,10.854-9.525c0.382-2.9-0.389-5.775-2.169-8.097c-1.781-2.322-4.359-3.812-7.261-4.193
				C396.549,348.961,396.066,348.929,395.588,348.929L395.588,348.929z"/>
		</g>
		<polyline fill="none" stroke="#000000" stroke-linejoin="round" stroke-miterlimit="10" points="431.881,358.627 438.451,371.785 
			445.896,357.506 		"/>
		<polygon fill="#1E82A4" stroke="#000000" stroke-width="0.452" stroke-miterlimit="10" points="408.971,359.311 392.574,332.176 
			457.383,340.5 445.898,358.793 		"/>
		<polyline fill="none" stroke="#000000" stroke-miterlimit="10" points="395.594,359.885 452.15,357.877 465.988,343.084 
			479.752,341.889 		"/>
		<g>
			<g>
				<g>
					<path fill="#1E47A4" d="M459.242,340.421c-0.07,0.515-0.549,0.878-1.064,0.808l-65.725-8.943
						c-0.515-0.07-0.878-0.549-0.808-1.062l0.06-0.439c0.07-0.516,0.549-0.879,1.063-0.809l65.726,8.945
						c0.514,0.07,0.877,0.549,0.807,1.062L459.242,340.421z"/>
					<path fill="none" stroke="#000000" stroke-width="0.452" stroke-miterlimit="10" d="M459.242,340.421
						c-0.07,0.515-0.549,0.878-1.064,0.808l-65.725-8.943c-0.515-0.07-0.878-0.549-0.808-1.062l0.06-0.439
						c0.07-0.516,0.549-0.879,1.063-0.809l65.726,8.945c0.514,0.07,0.877,0.549,0.807,1.062L459.242,340.421z"/>
				</g>
			</g>
		</g>
	</g>
	<polygon fill="#FFDD00" points="738.832,31.729 743.093,40.905 748.59,32.411 751.531,42.091 758.156,34.445 759.723,44.44 
		767.348,37.791 767.508,47.906 775.984,42.382 774.735,52.422 783.897,48.132 781.264,57.9 790.934,54.926 786.966,64.233 
		796.955,62.634 791.73,71.298 801.846,71.104 795.467,78.957 805.511,80.174 798.1,87.062 807.877,89.664 799.579,95.454 
		808.898,99.392 799.877,103.971 808.558,109.167 798.986,112.445 806.859,118.8 796.925,120.714 803.836,128.103 793.732,128.616 
		799.549,136.894 789.472,135.996 794.079,145.003 784.225,142.711 787.534,152.271 778.095,148.631 780.041,158.559 771.2,153.64 
		771.746,163.742 763.676,157.64 762.811,167.72 755.668,160.555 753.408,170.417 747.333,162.327 743.723,171.778 738.832,162.921 
		733.941,171.778 730.331,162.327 724.255,170.417 721.995,160.555 714.853,167.72 713.987,157.64 705.917,163.742 706.463,153.64 
		697.623,158.559 699.569,148.631 690.129,152.271 693.438,142.711 683.585,145.003 688.192,135.996 678.115,136.894 
		683.932,128.616 673.827,128.103 680.739,120.714 670.805,118.8 678.678,112.445 669.106,109.167 677.787,103.971 668.765,99.392 
		678.084,95.454 669.787,89.664 679.563,87.062 672.153,80.174 682.197,78.957 675.818,71.104 685.934,71.298 680.709,62.634 
		690.698,64.233 686.73,54.926 696.4,57.9 693.766,48.132 702.929,52.422 701.68,42.382 710.155,47.906 710.315,37.791 
		717.94,44.44 719.507,34.445 726.132,42.091 729.074,32.411 734.57,40.905 	"/>
</g>
<g id="mollen">
	<g>
		<path fill="#F7941E" stroke="#000000" stroke-width="0.4524" stroke-miterlimit="10" d="M362.531,371.444
			c-0.249-0.984-0.525-1.968-0.86-2.95c-0.196-0.568-0.411-1.138-0.675-1.711c-0.272-0.572-0.561-1.148-1.086-1.752l-1.677,1.719
			c0.294,0.219,0.634,0.631,0.932,1.062c0.302,0.438,0.587,0.916,0.856,1.406c0.541,0.984,1.029,2.022,1.491,3.076
			c0.223,0.509,0.438,1.021,0.647,1.537l0.038,0.019C362.313,373.049,362.423,372.247,362.531,371.444z"/>
		<path fill="#5FBB46" stroke="#000000" stroke-width="0.4524" stroke-miterlimit="10" d="M362.841,372.743
			c0.178-0.364,0.36-0.728,0.55-1.087c0.218-0.829,0.433-1.66,0.642-2.492c0.394-1.576,0.769-3.156,1.102-4.76
			c0.164-0.803,0.318-1.609,0.445-2.436c0.062-0.414,0.119-0.832,0.158-1.268c0.036-0.439,0.071-0.871,0.021-1.424l-2.374,0.355
			c0.061,0.248,0.091,0.628,0.103,0.993c0.013,0.372,0.01,0.761,0,1.151c-0.022,0.781-0.074,1.576-0.137,2.373
			c-0.127,1.593-0.305,3.194-0.498,4.795c-0.103,0.834-0.21,1.666-0.322,2.499c0.04,0.155,0.081,0.311,0.119,0.466
			C362.717,372.188,362.778,372.466,362.841,372.743z"/>
		<path fill="#5FBBCF" stroke="#000000" stroke-width="0.4524" stroke-miterlimit="10" d="M363.15,374.136
			c0.448-0.731,0.916-1.446,1.412-2.138c1.806-2.518,3.96-4.796,6.481-6.316l-1.374-1.969c-1.331,1.053-2.48,2.27-3.487,3.564
			c-1.008,1.295-1.874,2.67-2.639,4.086c-0.053,0.098-0.101,0.195-0.152,0.293c-0.141,0.537-0.284,1.072-0.43,1.608
			C363.027,373.555,363.088,373.846,363.15,374.136z"/>
		<path fill="#FFDD00" stroke="#000000" stroke-width="0.4524" stroke-miterlimit="10" d="M343.62,405.42l18.335-32.127
			c0,0,1.666-3.256,1.597,1.04s-1.235,35.797-1.235,35.797s-3.699-6.274-8.18-7.821C349.656,400.763,344.723,403.323,343.62,405.42z
			"/>
		<g>
			<path fill="#F7941E" d="M357.035,389.209c-0.747,0-1.466-0.171-2.137-0.508c-0.4-0.2-0.773-0.46-1.109-0.771l-0.132-0.123
				l4.605-7.994l0.173,0.054c0.252,0.077,0.5,0.171,0.746,0.294c1.141,0.571,1.99,1.554,2.393,2.765s0.309,2.507-0.264,3.647
				C360.493,388.198,358.855,389.209,357.035,389.209L357.035,389.209z"/>
			<path d="M358.368,380.082c0.24,0.074,0.478,0.163,0.711,0.28c2.247,1.126,3.155,3.861,2.028,6.108
				c-0.799,1.592-2.404,2.512-4.072,2.512c-0.686,0-1.381-0.155-2.036-0.483c-0.396-0.198-0.747-0.448-1.057-0.735L358.368,380.082
				 M358.156,379.543l-0.18,0.313l-4.425,7.682l-0.18,0.312l0.264,0.245c0.352,0.326,0.742,0.598,1.162,0.808
				c0.703,0.353,1.456,0.532,2.238,0.532c1.906,0,3.622-1.059,4.476-2.762c0.599-1.195,0.697-2.552,0.276-3.82
				c-0.421-1.269-1.312-2.297-2.506-2.896c-0.233-0.117-0.489-0.218-0.78-0.309L358.156,379.543L358.156,379.543z"/>
		</g>
		<g>
			<path fill="#FF0000" d="M359.623,401.868c-0.78,0-1.535-0.173-2.242-0.514c-1.248-0.602-2.186-1.653-2.642-2.961
				c-0.457-1.308-0.376-2.715,0.226-3.962c0.859-1.781,2.693-2.932,4.673-2.932c0.783,0,1.54,0.173,2.249,0.516
				c0.34,0.165,0.669,0.372,0.978,0.618l0.09,0.071l-0.363,8.234l-0.096,0.063C361.638,401.569,360.645,401.868,359.623,401.868
				L359.623,401.868z"/>
			<path d="M359.638,391.726c0.723,0,1.457,0.159,2.151,0.494c0.342,0.165,0.651,0.365,0.935,0.591
				c-0.125,2.873-0.245,5.604-0.353,8.004c-0.812,0.537-1.77,0.828-2.748,0.828c-0.72,0-1.451-0.158-2.144-0.492
				c-2.467-1.189-3.5-4.154-2.311-6.62C356.023,392.759,357.794,391.726,359.638,391.726 M359.638,391.273
				c-2.065,0-3.98,1.201-4.877,3.061c-0.627,1.302-0.711,2.77-0.235,4.134c0.476,1.365,1.455,2.463,2.757,3.09
				c0.738,0.356,1.525,0.537,2.34,0.537c1.067,0,2.104-0.312,2.998-0.902l0.192-0.128l0.01-0.229c0.107-2.4,0.228-5.132,0.353-8.005
				l0.01-0.229l-0.18-0.144c-0.321-0.257-0.665-0.474-1.02-0.645C361.245,391.455,360.455,391.273,359.638,391.273L359.638,391.273z
				"/>
		</g>
	</g>
	<g>
		<g>
			<path stroke="#000000" stroke-width="0.4524" stroke-miterlimit="10" d="M330.432,411.943c0,0,2.789-3.619,7.767-5.655
				c0,0,2.79,4.977,4.75,7.39c0,0-0.528-5.699,0.679-8.671c0.981-2.414,4.3-6.26,9.652-6.26c6.034,0,11.085,2.64,12.744,11.84
				c0,0,2.639-2.564,3.921-7.015c0,0,2.715,4.148,6.712,4.524c0,0-0.679,3.545-7.843,15.46c0,0,3.017,7.842,3.017,12.744
				c0,4.901-1.81,7.54-1.81,7.54l-1.936,4.7h-22.347c0,0-3.997-3.494-3.393-12.015c0.527-7.451,1.206-10.181,1.206-10.181
				S334.428,417.599,330.432,411.943z"/>
			
				<ellipse transform="matrix(0.9747 -0.2233 0.2233 0.9747 -81.2623 88.8783)" fill="#FFFFFF" stroke="#000000" stroke-width="0.4524" stroke-miterlimit="10" cx="352.299" cy="403.699" rx="2.952" ry="3.839"/>
			<g>
				<g>
					<path fill="#A7A9AC" stroke="#000000" stroke-width="0.4524" stroke-miterlimit="10" d="M363.817,407.724
						c0,0-2.08-0.742-2.846-2.642c0,0-1.433,2.563-2.789,2.563c-1.357,0-1.835-0.88-2.339-1.434
						c-0.323-0.356-0.754-0.754-1.809-0.754c-1.056,0-3.093,0.377-2.489,3.996c0.604,3.621,1.434,5.506,1.056,9.729
						c-0.377,4.223-2.412,7.615-2.412,13.724c0,6.107,3.694,10.482,7.615,10.482c3.922,0,7.692-3.318,7.692-9.804
						c0-6.484-2.564-10.405-3.544-15.458c-0.765-3.937-0.887-6.172-0.903-6.971c-1.269,0.828-2.679,0.862-2.679,0.862
						s-0.151,2.263-0.566,3.017c-0.414,0.754-1.243,1.396-2.413-0.151c-1.168-1.546-1.206-6.295-1.206-6.295
						c-0.226,0-0.717,0.564-0.717,0.564s-0.15-1.094,0.528-1.471s1.093,0.15,1.093,0.15c-0.339,0.113-0.452,0.491-0.452,0.491
						s1.66,2.94,4.035,2.94S363.817,407.724,363.817,407.724z"/>
				</g>
			</g>
			<path fill="#FFFFFF" d="M360.202,402.586l-1.566,1.867c0,0-0.756,0.753-1.459,0.251c-0.704-0.503-1.106-1.257-1.357-2.463
				c-0.251-1.207-0.197-2.071,0.515-2.287c0.714-0.217,2.125,0.065,2.653,0.377C359.515,400.642,360.957,401.581,360.202,402.586z"
				/>
			<path fill="#FF0000" stroke="#000000" stroke-width="0.4524" stroke-miterlimit="10" d="M363.71,407.52
				c0,0,1.258-1.056,1.258-3.519c0-2.464-0.754-4.073-1.106-4.224c-0.351-0.15-0.753-0.301-1.658,0.504
				c-0.904,0.804-1.508,1.607-1.508,3.166C360.696,405.007,362.002,407.469,363.71,407.52z"/>
			<path fill="none" stroke="#A7A9AC" stroke-width="0.4524" stroke-miterlimit="10" d="M343.977,415.302
				c0,0,1.623,2.018,2.632,2.894"/>
			<path fill="none" stroke="#A7A9AC" stroke-width="0.4524" stroke-miterlimit="10" d="M366.274,412.371
				c0,0,0.662,6.707,2.028,10.269"/>
			<path fill="#F2D2BE" stroke="#000000" stroke-width="0.4524" stroke-miterlimit="10" d="M362.254,448.541
				c0,0,2.654-4.174,6.611-4.174s4.964,3.479,4.964,4.174H362.254z"/>
			<path fill="#F2D2BE" stroke="#000000" stroke-width="0.4524" stroke-miterlimit="10" d="M346.081,448.541
				c0,0,1.184-4.193,5.067-3.435c3.846,0.751,5.282,2.74,5.282,3.435H346.081z"/>
			<path fill="none" stroke="#000000" stroke-width="0.4524" stroke-miterlimit="10" d="M352.55,398.603c0,0,0.406-5.007,3.18-9.202
				"/>
			<path fill="none" stroke="#000000" stroke-width="0.4524" stroke-miterlimit="10" d="M350.521,399.347
				c0,0-1.489-2.368-0.475-10.149"/>
			<path fill="none" stroke="#000000" stroke-width="0.4524" stroke-miterlimit="10" d="M348.76,399.685c0,0-2.249-1.497-2.57-9.337
				"/>
			<path fill="#F2D2BE" stroke="#000000" stroke-width="0.4524" stroke-linejoin="round" stroke-miterlimit="10" d="
				M370.048,403.218c0,0,1.576-2.991-0.327-5.545c-1.902-2.556-2.011-2.122-1.794-2.828c0.218-0.707,2.005-1.889,3.317-0.326
				c1.157,1.379,1.142,1.903,1.142,1.903s1.927-4.95,3.479-5.764c0,0,2.393-1.467,2.61,0.599c0.218,2.064-1.903,4.512-1.903,4.512
				s2.229-2.648,3.154-3.424c1.018-0.856,3.045-1.088,3.207,0.217c0.163,1.305-0.816,2.556-3.425,5.926c0,0,1.876-1.058,3.098-0.979
				c1.224,0.079,1.664,0.264,1.85,1.195c0,1.088-0.653,2.066-1.522,2.557c-0.869,0.488-1.897,0.554-2.447,0.815
				c-0.549,0.261-1.521,0.706-2.066,1.739c-0.542,1.032-1.667,4.062-1.667,4.062S372.766,408.219,370.048,403.218z"/>
			<path fill="none" stroke="#000000" stroke-width="0.4524" stroke-linejoin="round" stroke-miterlimit="10" d="M372.404,396.214
				c0,0,0.233,1.726,0.204,2.427"/>
			<path fill="none" stroke="#000000" stroke-width="0.4524" stroke-linejoin="round" stroke-miterlimit="10" d="M372.491,397.121
				c0,0,3.391-0.468,2.514,4.004"/>
			<path fill="#F2D2BE" stroke="#000000" stroke-width="0.4524" stroke-linejoin="round" stroke-miterlimit="10" d="M337.96,406.082
				c0,0-2.202-3.304-1.389-5.365c0.813-2.061,2.107-3.64,1.198-4.551c-0.911-0.91-2.587-1.485-3.259,0.575
				c-0.67,2.061-1.006,2.635-1.724,3.257c0,0-0.315-3.765-1.198-5.317c-1.096-1.93-3.783-2.729-4.263-0.766
				c-0.479,1.964,0.958,3.929,0.958,3.929s1.135,1.799,0.526,2.251c-0.786,0.585-1.436-0.287-1.436-0.287s-2.492-2.299-3.978-2.348
				c-1.484-0.048-3.305,1.341-2.156,2.586c1.15,1.246,5.461,3.259,5.461,3.259s-3.661-0.07-4.789,0.287
				c-0.605,0.19-0.765,0.453-1.246,1.532c-0.707,1.586,1.197,2.826,4.408,2.636c0,0,2.011-0.337,3.065,1.148
				c1.054,1.485,1.867,2.443,2.203,2.827C330.344,411.735,334.799,408.238,337.96,406.082z"/>
			<path fill="#F2D2BE" stroke="#000000" stroke-width="0.4524" stroke-linejoin="round" stroke-miterlimit="10" d="
				M332.788,399.998c0,0-2.713,2.128-0.005,5.541"/>
			<ellipse transform="matrix(0.96 -0.2799 0.2799 0.96 -98.3715 116.451)" cx="358.536" cy="402.646" rx="0.795" ry="1.568"/>
			<ellipse transform="matrix(0.9599 -0.2804 0.2804 0.9599 -99.0488 115.2208)" cx="353.202" cy="403.811" rx="0.925" ry="1.825"/>
		</g>
		<g>
			<g>
				<path fill="#752E14" stroke="#000000" stroke-width="0.542" stroke-miterlimit="10" d="M326.603,456.672
					c0.172-3.864,1.894-3.503,3.357-3.863c0.598-0.149,1.166,0.226,1.63,0.724c-0.207-0.748-0.325-1.875,0.608-2.415
					c0.965-0.56,1.814-0.222,2.284,0.069l0.542-0.923c-0.204-0.435-0.33-1.028-0.33-1.683c0-1.334,0.521-2.417,1.163-2.417
					c0.266,0,0.659,0.085,1.028,0.275c-0.005-0.742-0.02-1.643-0.296-2.206c-0.606-1.239,0.374-3.537,1.099-4.233
					c0.611-0.59,2.098-0.115,2.913,0.79l1.534-2.608c-0.078-0.323-0.123-0.688-0.123-1.074c0-1.336,0.521-2.417,1.163-2.417
					s2.022,0.479,2.022,1.813c0,0.021-0.003,0.042-0.004,0.061c0.167-0.192,0.359-0.302,0.563-0.302
					c0.622,0,1.933,0.449,2.016,1.689h0.041c-0.078-0.553-0.078-1.057,0.021-1.348c0.277-0.81,1.197-1.001,2.056-0.425
					c0.616,0.416,1.029,1.112,1.112,1.772h1.39c0.003-0.005,0.004-0.014,0.006-0.019c0.277-0.812,1.197-1.002,2.056-0.426
					c0.186,0.125,0.352,0.277,0.498,0.444h11.538c0.507-0.689,1.178-1.189,1.556-1.14c0.389,0.053,0.705,0.499,0.873,1.14h4.088
					l1.379,2.499c0.344-0.312,0.812-0.495,1.458-0.439c2.756,0.243,2.497,2.657,2.756,4.71c0.074,0.588-0.036,1.155-0.23,1.669
					c1.717,0.684,1.558,2.72,1.779,4.491c0,0.003,0.001,0.009,0.001,0.014l0.544,0.983c0.138-0.035,0.294-0.052,0.472-0.034
					c1.747,0.152,1.583,1.685,1.747,2.986c0.024,0.201,0.015,0.396-0.019,0.585c0.531,0.06,1.179,0.12,1.608-0.22
					c0.934-0.734,2.478,0.841,2.909,1.914c0.43,1.077-0.31,3.746-1.242,4.48c-0.152,0.12-0.354,0.074-0.587-0.088h-8.412
					c-0.263,1.226-1.402,2.537-1.968,2.537c-0.643,0-1.163-1.082-1.163-2.415c0-0.041,0.002-0.081,0.003-0.122h-8.468
					c-0.021,0.538-0.155,1.026-0.5,1.296c-0.831,0.65-2.552-0.224-2.864-1.011c-0.036-0.09-0.062-0.186-0.078-0.285h-5.375
					c-0.204,1.037-0.841,2.481-2.017,2.323c-0.96-0.13-2.025-1.297-2.564-2.323h-12.738c-0.798,1.349-2.265,2.303-2.796,2.005
					c-0.407-0.229-0.602-1.009-0.562-2.005h-7.669l0.921-1.565C329.053,459.985,326.439,460.331,326.603,456.672z"/>
				<path fill="#CB3D17" stroke="#000000" stroke-width="0.542" stroke-miterlimit="10" d="M373.963,444.491
					c0,1.192,0.757,2.742,1.638,2.742s1.595-0.967,1.595-2.156c0-1.19-0.685-1.551-1.565-1.551S373.963,443.303,373.963,444.491z"/>
				<path fill="#CB3D17" stroke="#000000" stroke-width="0.542" stroke-miterlimit="10" d="M364.089,464.409
					c0,0.727,0.637,1.669,1.378,1.669c0.742,0,1.342-0.588,1.342-1.312s-0.576-0.942-1.317-0.942S364.089,463.685,364.089,464.409z"
					/>
				<path fill="#CB3D17" stroke="#000000" stroke-width="0.542" stroke-miterlimit="10" d="M342.409,463.774
					c0,0.723,0.358,1.667,0.775,1.667c0.415,0,0.752-0.588,0.752-1.312c0-0.727-0.322-0.947-0.739-0.947
					S342.409,463.048,342.409,463.774z"/>
				<path fill="#CB3D17" stroke="#000000" stroke-width="0.542" stroke-miterlimit="10" d="M327.399,461.324
					c0,0.803,0.45,1.845,0.976,1.845c0.523,0,0.95-0.648,0.95-1.45c0-0.801-0.408-1.043-0.934-1.043
					C327.867,460.676,327.399,460.524,327.399,461.324z"/>
				<path fill="#CB3D17" stroke="#000000" stroke-width="0.542" stroke-miterlimit="10" d="M366.442,442.922
					c-0.571,0.878-0.756,2.74-0.105,3.571c0.651,0.833,1.643,0.794,2.214-0.087c0.572-0.881,0.238-1.795-0.413-2.625
					C367.488,442.947,367.014,442.041,366.442,442.922z"/>
				<path fill="#CB3D17" stroke="#000000" stroke-width="0.542" stroke-miterlimit="10" d="M368.101,451.327
					c-0.278,0.43-0.369,1.338-0.051,1.745c0.317,0.404,0.801,0.384,1.08-0.045c0.278-0.428,0.116-0.874-0.201-1.279
					C368.612,451.34,368.38,450.896,368.101,451.327z"/>
				<path fill="#CB3D17" stroke="#000000" stroke-width="0.542" stroke-miterlimit="10" d="M363.724,442.339
					c-0.144-0.546-0.676-1.077-1.079-0.87c-0.403,0.208-0.614,0.817-0.473,1.363c0.143,0.547,0.5,0.55,0.903,0.342
					C363.48,442.967,363.866,442.885,363.724,442.339z"/>
				<path fill="#CB3D17" stroke="#000000" stroke-width="0.542" stroke-miterlimit="10" d="M360.175,439.979
					c0.021-0.578-0.322-1.359-0.75-1.39c-0.43-0.032-0.795,0.414-0.814,0.994c-0.021,0.581,0.307,0.781,0.735,0.812
					C359.776,440.424,360.155,440.56,360.175,439.979z"/>
				<path fill="#CB3D17" stroke="#000000" stroke-width="0.542" stroke-miterlimit="10" d="M379.453,448.989
					c-0.267-0.428-0.98-0.53-1.409-0.006c-0.428,0.525-0.56,1.296-0.294,1.724c0.267,0.428,0.681,0.148,1.107-0.378
					C379.287,449.806,379.718,449.417,379.453,448.989z"/>
				<path fill="#CB3D17" stroke="#000000" stroke-width="0.542" stroke-miterlimit="10" d="M373.153,455.314
					c-0.737-1.051-2.3-1.584-3.002-0.615c-0.7,0.971-0.671,2.605,0.066,3.656c0.738,1.052,1.507,0.615,2.208-0.354
					C373.126,457.032,373.89,456.364,373.153,455.314z"/>
				<path fill="#9C4F17" stroke="#000000" stroke-width="0.542" stroke-miterlimit="10" d="M374.734,451.55
					c-0.114-1.466-1.105-3.244-2.083-3.092c-0.979,0.149-1.679,1.46-1.563,2.925c0.114,1.466,0.91,1.793,1.889,1.642
					S374.849,453.015,374.734,451.55z"/>
				<path fill="#9C4F17" stroke="#000000" stroke-width="0.542" stroke-miterlimit="10" d="M379.282,456.104
					c-0.404-0.601-1.275-0.929-1.678-0.396c-0.402,0.531-0.399,1.448,0.005,2.05c0.403,0.603,0.839,0.373,1.24-0.159
					C379.25,457.07,379.685,456.707,379.282,456.104z"/>
				<path fill="#9C4F17" stroke="#000000" stroke-width="0.542" stroke-miterlimit="10" d="M379.535,465.232
					c0.011-0.825-0.451-1.913-1.003-1.927c-0.551-0.014-1.007,0.645-1.018,1.472c-0.011,0.825,0.417,1.087,0.968,1.101
					C379.035,465.892,379.525,466.06,379.535,465.232z"/>
				<path fill="#9C4F17" stroke="#000000" stroke-width="0.542" stroke-miterlimit="10" d="M392.407,460.836
					c0.016-1.234-0.439-2.851-0.991-2.864c-0.553-0.016-1.012,0.976-1.027,2.209c-0.015,1.233,0.41,1.618,0.962,1.633
					C391.903,461.826,392.392,462.068,392.407,460.836z"/>
				<path fill="#9C4F17" stroke="#000000" stroke-width="0.542" stroke-miterlimit="10" d="M357.269,457.081
					c0.314-1.448,2.436-2.671-0.607-3.968c-0.527-0.227-2.088,0.241-2.343,1.422c-0.257,1.181,1,2.021,1.528,2.245
					C356.375,457.006,357.014,458.263,357.269,457.081z"/>
				<path fill="#9C4F17" stroke="#000000" stroke-width="0.542" stroke-miterlimit="10" d="M346.843,462.268
					c-0.529-0.224-2.088,0.241-2.344,1.423c-0.256,1.181,1.002,2.021,1.529,2.247C346.556,466.163,349.884,463.567,346.843,462.268z
					"/>
				<path fill="#9C4F17" stroke="#000000" stroke-width="0.542" stroke-miterlimit="10" d="M350.799,459.233
					c1.024-0.48,2.435-2.674-0.608-3.971c-0.528-0.226-2.088,0.241-2.344,1.422c-0.255,1.181,1.017,1.962,1.529,2.246
					C350.061,459.312,350.119,459.55,350.799,459.233z"/>
				<path fill="#9C4F17" stroke="#000000" stroke-width="0.542" stroke-miterlimit="10" d="M340.782,453.813
					c-1.071-0.191-3.019,0.928-0.678,3.947c0.405,0.525,1.954,1.053,2.55,0.145s-0.309-2.387-0.684-2.955
					C341.471,454.19,341.493,453.941,340.782,453.813z"/>
				<path fill="#9C4F17" stroke="#000000" stroke-width="0.542" stroke-miterlimit="10" d="M343.149,446.065
					c-0.882,0.054-2.638,1.42-0.979,3.557c0.285,0.373,1.535,0.512,2.13-0.396c0.597-0.907-0.012-2.005-0.267-2.42
					C343.69,446.251,343.735,446.03,343.149,446.065z"/>
				<path fill="#9C4F17" stroke="#000000" stroke-width="0.542" stroke-miterlimit="10" d="M333.669,455.243
					c-0.384,0.021-1.146,0.616-0.426,1.547c0.125,0.16,0.668,0.222,0.927-0.174c0.259-0.394-0.006-0.872-0.117-1.052
					C333.905,455.323,333.924,455.227,333.669,455.243z"/>
				<path fill="#9C4F17" stroke="#000000" stroke-width="0.542" stroke-miterlimit="10" d="M353.761,441.786
					c-0.385,0.023-1.147,0.618-0.427,1.547c0.125,0.161,0.668,0.223,0.927-0.173c0.259-0.395-0.005-0.869-0.116-1.053
					C353.996,441.866,354.016,441.771,353.761,441.786z"/>
				<path fill="#9C4F17" stroke="#000000" stroke-width="0.542" stroke-miterlimit="10" d="M349.277,441.285
					c-0.454-0.067-1.29,0.434-0.313,1.691c0.169,0.219,0.824,0.425,1.083,0.03c0.259-0.396-0.115-1.014-0.271-1.253
					C349.568,441.438,349.579,441.331,349.277,441.285z"/>
				<path fill="#9C4F17" stroke="#000000" stroke-width="0.542" stroke-miterlimit="10" d="M341.622,440.739
					c-0.301,0.48-0.491,1.728,0.805,1.335c0.226-0.067,0.723-0.697,0.642-1.223c-0.08-0.524-0.657-0.452-0.886-0.412
					C341.878,440.495,341.822,440.419,341.622,440.739z"/>
				<path fill="#9C4F17" stroke="#000000" stroke-width="0.542" stroke-miterlimit="10" d="M361.743,447.571
					c-0.219,0.455-0.325,1.677,0.673,1.376c0.174-0.052,0.541-0.645,0.461-1.169c-0.082-0.524-0.529-0.491-0.705-0.466
					C361.935,447.346,361.889,447.269,361.743,447.571z"/>
				<path fill="#9C4F17" stroke="#000000" stroke-width="0.542" stroke-miterlimit="10" d="M363.447,449.98
					c-0.41-0.349-1.33-0.382-0.744,1.438c0.102,0.315,0.664,0.922,1.013,0.7c0.349-0.219,0.159-1.05,0.075-1.377
					C363.68,450.308,363.718,450.21,363.447,449.98z"/>
				<path fill="#9C4F17" stroke="#000000" stroke-width="0.542" stroke-miterlimit="10" d="M370.942,439.504
					c-0.526-0.275-1.803-0.083-1.216,1.736c0.101,0.318,0.808,0.832,1.32,0.507c0.514-0.322,0.354-1.173,0.279-1.506
					C371.226,439.8,371.292,439.687,370.942,439.504z"/>
				<path fill="#9C4F17" stroke="#000000" stroke-width="0.542" stroke-miterlimit="10" d="M372.591,443.649
					c-0.385-0.201-1.321-0.062-0.892,1.275c0.073,0.231,0.593,0.607,0.969,0.371c0.376-0.239,0.26-0.862,0.204-1.107
					C372.8,443.864,372.848,443.782,372.591,443.649z"/>
				<path fill="#CB3D17" stroke="#000000" stroke-width="0.542" stroke-miterlimit="10" d="M357.678,445.778
					c-0.462-0.659-1.442-0.995-1.882-0.388c-0.439,0.608-0.421,1.636,0.042,2.294c0.462,0.656,0.944,0.384,1.384-0.225
					C357.663,446.854,358.141,446.437,357.678,445.778z"/>
				<path fill="#CB3D17" stroke="#000000" stroke-width="0.542" stroke-miterlimit="10" d="M350.093,448.354
					c-0.301-0.427-0.99-0.576-1.335-0.099s-0.381,1.211-0.08,1.64c0.302,0.428,0.66,0.186,1.007-0.29
					C350.03,449.129,350.394,448.782,350.093,448.354z"/>
				<path fill="#CB3D17" stroke="#000000" stroke-width="0.542" stroke-miterlimit="10" d="M338.941,450.617
					c-0.408,0.181-0.814,0.975-0.668,1.623c0.146,0.647,0.597,1.026,1.006,0.841c0.408-0.18,0.418-0.74,0.271-1.388
					C339.404,451.047,339.35,450.433,338.941,450.617z"/>
			</g>
			<path fill="#5FBB46" stroke="#000000" stroke-width="0.542" stroke-miterlimit="10" d="M340.894,462.32
				c0,0-2.158-17.09-6.938-30.501c0,0,5.148,26.17,5.481,29.684L340.894,462.32z"/>
			<path fill="#5FBB46" stroke="#000000" stroke-width="0.542" stroke-miterlimit="10" d="M339.935,464.008
				c0,0-6.016-15.166-13.653-25.654c0,0,10.954,22.379,12.085,25.55L339.935,464.008z"/>
			<path fill="#B1BB46" stroke="#000000" stroke-width="0.542" stroke-miterlimit="10" d="M340.905,462.827
				c0,0-7.15-24.716-14.431-41.463c0,0,10.96,38.111,11.667,42.642L340.905,462.827z"/>
			<path fill="#9C4F17" stroke="#000000" stroke-width="0.542" stroke-miterlimit="10" d="M339.863,465.067
				c1.23-0.576,2.926-3.211-0.732-4.771c-0.634-0.271-2.508,0.292-2.816,1.71c-0.307,1.419,1.221,2.358,1.838,2.701
				C338.976,465.163,339.044,465.449,339.863,465.067z"/>
		</g>
	</g>
</g>
</svg>
